  0
SECTION
  2
HEADER
  9
$ANGBASE
  50
0.0
  9
$ANGDIR
  70
1
  9
$MEASUREMENT
  70
0
  0
ENDSEC
  0
SECTION
  2
TABLES
  0
TABLE
  2
LTYPE
  70
4
  0
LTYPE
  5
40F
  2
CONTINUOUS
  70
0
  3
Solid line
  72
65
  73
0
  40
0.0
  0
LTYPE
  5
410
  2
DASHDOT
 70
0
  3
Dash Dot ____ _ ____ _
 72
65
 73
4
 40
2.0
 49
1.25
 49
-0.25
 49
0.25
 49
-0.25
  0
LTYPE
  5
411
  2
DASHED
 70
0
  3
Dashed __ __ __ __ __
 72
65
 73
2
 40
0.75
 49
0.5
 49
-0.25
  0
LTYPE
  5
43B
  2
DOTTED
 70
0
  3
Dotted .  .  .  .
 72
65
 73
2
 40
0.2
 49
0.0
 49
-0.2
  0
ENDTAB
  0
TABLE
  2
STYLE
  70
4
  0
STYLE
  2
KICAD
  70
0
  40
0
  41
1
  42
1
  50
0
  71
0
  3
isocp.shx
  0
STYLE
  2
KICADB
  70
0
  40
0
  41
1
  42
1
  50
0
  71
0
  3
isocp.shx
  0
STYLE
  2
KICADI
  70
0
  40
0
  41
1
  42
1
  50
15
  71
0
  3
isocp.shx
  0
STYLE
  2
KICADBI
  70
0
  40
0
  41
1
  42
1
  50
15
  71
0
  3
isocp.shx
  0
ENDTAB
  0
TABLE
  2
LAYER
  70
1
  0
LAYER
  2
BLACK
  70
0
  62
7
  6
CONTINUOUS
  0
ENDTAB
  0
ENDSEC
  0
SECTION
  2
ENTITIES
0
LINE
8
BLACK
6
CONTINUOUS
10
2.79216
20
-2.35913
11
2.79225
21
-2.35913
0
LINE
8
BLACK
6
CONTINUOUS
10
2.79225
20
-2.35913
11
2.79234
21
-2.35914
0
LINE
8
BLACK
6
CONTINUOUS
10
2.79234
20
-2.35914
11
2.80752
21
-2.36154
0
LINE
8
BLACK
6
CONTINUOUS
10
2.80752
20
-2.36154
11
2.80753
21
-2.36154
0
LINE
8
BLACK
6
CONTINUOUS
10
2.80753
20
-2.36154
11
2.80758
21
-2.36156
0
LINE
8
BLACK
6
CONTINUOUS
10
2.80758
20
-2.36156
11
2.80762
21
-2.36156
0
LINE
8
BLACK
6
CONTINUOUS
10
2.80762
20
-2.36156
11
2.8081
21
-2.36169
0
LINE
8
BLACK
6
CONTINUOUS
10
2.8081
20
-2.36169
11
2.80811
21
-2.36169
0
LINE
8
BLACK
6
CONTINUOUS
10
2.80811
20
-2.36169
11
2.80815
21
-2.3617
0
LINE
8
BLACK
6
CONTINUOUS
10
2.80815
20
-2.3617
11
2.80815
21
-2.3617
0
LINE
8
BLACK
6
CONTINUOUS
10
2.80815
20
-2.3617
11
2.80815
21
-2.3617
0
LINE
8
BLACK
6
CONTINUOUS
10
2.80815
20
-2.3617
11
3.34056
21
-2.50436
0
LINE
8
BLACK
6
CONTINUOUS
10
3.34056
20
-2.50436
11
3.34103
21
-2.50449
0
LINE
8
BLACK
6
CONTINUOUS
10
3.34103
20
-2.50449
11
3.35607
21
-2.50687
0
LINE
8
BLACK
6
CONTINUOUS
10
3.35607
20
-2.50687
11
3.37123
21
-2.50628
0
LINE
8
BLACK
6
CONTINUOUS
10
3.37123
20
-2.50628
11
3.38599
21
-2.50277
0
LINE
8
BLACK
6
CONTINUOUS
10
3.38599
20
-2.50277
11
3.39979
21
-2.49645
0
LINE
8
BLACK
6
CONTINUOUS
10
3.39979
20
-2.49645
11
3.4121
21
-2.48757
0
LINE
8
BLACK
6
CONTINUOUS
10
3.4121
20
-2.48757
11
3.42244
21
-2.47648
0
LINE
8
BLACK
6
CONTINUOUS
10
3.42244
20
-2.47648
11
3.43044
21
-2.46358
0
LINE
8
BLACK
6
CONTINUOUS
10
3.43044
20
-2.46358
11
3.43581
21
-2.44929
0
LINE
8
BLACK
6
CONTINUOUS
10
3.43581
20
-2.44929
11
3.43582
21
-2.44928
0
LINE
8
BLACK
6
CONTINUOUS
10
3.43582
20
-2.44928
11
3.44122
21
-2.4349
0
LINE
8
BLACK
6
CONTINUOUS
10
3.44122
20
-2.4349
11
3.44123
21
-2.43489
0
LINE
8
BLACK
6
CONTINUOUS
10
3.44123
20
-2.43489
11
3.44127
21
-2.43481
0
LINE
8
BLACK
6
CONTINUOUS
10
3.44127
20
-2.43481
11
3.44131
21
-2.43473
0
LINE
8
BLACK
6
CONTINUOUS
10
3.44131
20
-2.43473
11
3.4494
21
-2.42167
0
LINE
8
BLACK
6
CONTINUOUS
10
3.4494
20
-2.42167
11
3.44941
21
-2.42166
0
LINE
8
BLACK
6
CONTINUOUS
10
3.44941
20
-2.42166
11
3.44947
21
-2.42159
0
LINE
8
BLACK
6
CONTINUOUS
10
3.44947
20
-2.42159
11
3.44952
21
-2.42152
0
LINE
8
BLACK
6
CONTINUOUS
10
3.44952
20
-2.42152
11
3.46
21
-2.41028
0
LINE
8
BLACK
6
CONTINUOUS
10
3.46
20
-2.41028
11
3.46001
21
-2.41027
0
LINE
8
BLACK
6
CONTINUOUS
10
3.46001
20
-2.41027
11
3.46008
21
-2.41021
0
LINE
8
BLACK
6
CONTINUOUS
10
3.46008
20
-2.41021
11
3.46014
21
-2.41015
0
LINE
8
BLACK
6
CONTINUOUS
10
3.46014
20
-2.41015
11
3.47261
21
-2.40116
0
LINE
8
BLACK
6
CONTINUOUS
10
3.47261
20
-2.40116
11
3.47261
21
-2.40116
0
LINE
8
BLACK
6
CONTINUOUS
10
3.47261
20
-2.40116
11
3.47261
21
-2.40116
0
LINE
8
BLACK
6
CONTINUOUS
10
3.47261
20
-2.40116
11
3.47262
21
-2.40115
0
LINE
8
BLACK
6
CONTINUOUS
10
3.47262
20
-2.40115
11
3.4727
21
-2.40111
0
LINE
8
BLACK
6
CONTINUOUS
10
3.4727
20
-2.40111
11
3.47277
21
-2.40106
0
LINE
8
BLACK
6
CONTINUOUS
10
3.47277
20
-2.40106
11
3.48675
21
-2.39467
0
LINE
8
BLACK
6
CONTINUOUS
10
3.48675
20
-2.39467
11
3.48676
21
-2.39466
0
LINE
8
BLACK
6
CONTINUOUS
10
3.48676
20
-2.39466
11
3.48684
21
-2.39463
0
LINE
8
BLACK
6
CONTINUOUS
10
3.48684
20
-2.39463
11
3.48693
21
-2.3946
0
LINE
8
BLACK
6
CONTINUOUS
10
3.48693
20
-2.3946
11
3.50188
21
-2.39104
0
LINE
8
BLACK
6
CONTINUOUS
10
3.50188
20
-2.39104
11
3.50188
21
-2.39104
0
LINE
8
BLACK
6
CONTINUOUS
10
3.50188
20
-2.39104
11
3.50188
21
-2.39104
0
LINE
8
BLACK
6
CONTINUOUS
10
3.50188
20
-2.39104
11
3.50189
21
-2.39104
0
LINE
8
BLACK
6
CONTINUOUS
10
3.50189
20
-2.39104
11
3.50198
21
-2.39103
0
LINE
8
BLACK
6
CONTINUOUS
10
3.50198
20
-2.39103
11
3.50207
21
-2.39102
0
LINE
8
BLACK
6
CONTINUOUS
10
3.50207
20
-2.39102
11
3.51742
21
-2.39043
0
LINE
8
BLACK
6
CONTINUOUS
10
3.51742
20
-2.39043
11
3.51742
21
-2.39043
0
LINE
8
BLACK
6
CONTINUOUS
10
3.51742
20
-2.39043
11
3.51744
21
-2.39043
0
LINE
8
BLACK
6
CONTINUOUS
10
3.51744
20
-2.39043
11
3.51753
21
-2.39043
0
LINE
8
BLACK
6
CONTINUOUS
10
3.51753
20
-2.39043
11
3.51762
21
-2.39044
0
LINE
8
BLACK
6
CONTINUOUS
10
3.51762
20
-2.39044
11
3.53279
21
-2.39284
0
LINE
8
BLACK
6
CONTINUOUS
10
3.53279
20
-2.39284
11
3.53281
21
-2.39284
0
LINE
8
BLACK
6
CONTINUOUS
10
3.53281
20
-2.39284
11
3.53285
21
-2.39286
0
LINE
8
BLACK
6
CONTINUOUS
10
3.53285
20
-2.39286
11
3.53289
21
-2.39286
0
LINE
8
BLACK
6
CONTINUOUS
10
3.53289
20
-2.39286
11
3.53338
21
-2.39299
0
LINE
8
BLACK
6
CONTINUOUS
10
3.53338
20
-2.39299
11
3.53338
21
-2.39299
0
LINE
8
BLACK
6
CONTINUOUS
10
3.53338
20
-2.39299
11
3.5334
21
-2.393
0
LINE
8
BLACK
6
CONTINUOUS
10
3.5334
20
-2.393
11
3.53342
21
-2.393
0
LINE
8
BLACK
6
CONTINUOUS
10
3.53342
20
-2.393
11
3.53344
21
-2.39301
0
LINE
8
BLACK
6
CONTINUOUS
10
3.53344
20
-2.39301
11
3.53344
21
-2.39301
0
LINE
8
BLACK
6
CONTINUOUS
10
3.53344
20
-2.39301
11
4.21799
21
-2.57643
0
LINE
8
BLACK
6
CONTINUOUS
10
4.21799
20
-2.57643
11
4.21803
21
-2.57645
0
LINE
8
BLACK
6
CONTINUOUS
10
4.21803
20
-2.57645
11
4.21803
21
-2.57645
0
LINE
8
BLACK
6
CONTINUOUS
10
4.21803
20
-2.57645
11
4.23242
21
-2.58186
0
LINE
8
BLACK
6
CONTINUOUS
10
4.23242
20
-2.58186
11
4.23243
21
-2.58186
0
LINE
8
BLACK
6
CONTINUOUS
10
4.23243
20
-2.58186
11
4.23251
21
-2.5819
0
LINE
8
BLACK
6
CONTINUOUS
10
4.23251
20
-2.5819
11
4.23259
21
-2.58194
0
LINE
8
BLACK
6
CONTINUOUS
10
4.23259
20
-2.58194
11
4.24565
21
-2.59004
0
LINE
8
BLACK
6
CONTINUOUS
10
4.24565
20
-2.59004
11
4.24566
21
-2.59005
0
LINE
8
BLACK
6
CONTINUOUS
10
4.24566
20
-2.59005
11
4.24573
21
-2.5901
0
LINE
8
BLACK
6
CONTINUOUS
10
4.24573
20
-2.5901
11
4.2458
21
-2.59015
0
LINE
8
BLACK
6
CONTINUOUS
10
4.2458
20
-2.59015
11
4.25704
21
-2.60064
0
LINE
8
BLACK
6
CONTINUOUS
10
4.25704
20
-2.60064
11
4.25705
21
-2.60064
0
LINE
8
BLACK
6
CONTINUOUS
10
4.25705
20
-2.60064
11
4.25711
21
-2.60071
0
LINE
8
BLACK
6
CONTINUOUS
10
4.25711
20
-2.60071
11
4.25717
21
-2.60078
0
LINE
8
BLACK
6
CONTINUOUS
10
4.25717
20
-2.60078
11
4.26616
21
-2.61324
0
LINE
8
BLACK
6
CONTINUOUS
10
4.26616
20
-2.61324
11
4.26616
21
-2.61324
0
LINE
8
BLACK
6
CONTINUOUS
10
4.26616
20
-2.61324
11
4.26616
21
-2.61324
0
LINE
8
BLACK
6
CONTINUOUS
10
4.26616
20
-2.61324
11
4.26617
21
-2.61325
0
LINE
8
BLACK
6
CONTINUOUS
10
4.26617
20
-2.61325
11
4.26621
21
-2.61333
0
LINE
8
BLACK
6
CONTINUOUS
10
4.26621
20
-2.61333
11
4.26625
21
-2.61341
0
LINE
8
BLACK
6
CONTINUOUS
10
4.26625
20
-2.61341
11
4.27265
21
-2.62738
0
LINE
8
BLACK
6
CONTINUOUS
10
4.27265
20
-2.62738
11
4.27266
21
-2.62739
0
LINE
8
BLACK
6
CONTINUOUS
10
4.27266
20
-2.62739
11
4.27269
21
-2.62748
0
LINE
8
BLACK
6
CONTINUOUS
10
4.27269
20
-2.62748
11
4.27271
21
-2.62756
0
LINE
8
BLACK
6
CONTINUOUS
10
4.27271
20
-2.62756
11
4.27628
21
-2.64251
0
LINE
8
BLACK
6
CONTINUOUS
10
4.27628
20
-2.64251
11
4.27628
21
-2.64251
0
LINE
8
BLACK
6
CONTINUOUS
10
4.27628
20
-2.64251
11
4.27628
21
-2.64251
0
LINE
8
BLACK
6
CONTINUOUS
10
4.27628
20
-2.64251
11
4.27628
21
-2.64253
0
LINE
8
BLACK
6
CONTINUOUS
10
4.27628
20
-2.64253
11
4.27629
21
-2.64261
0
LINE
8
BLACK
6
CONTINUOUS
10
4.27629
20
-2.64261
11
4.2763
21
-2.6427
0
LINE
8
BLACK
6
CONTINUOUS
10
4.2763
20
-2.6427
11
4.27689
21
-2.65806
0
LINE
8
BLACK
6
CONTINUOUS
10
4.27689
20
-2.65806
11
4.27689
21
-2.65807
0
LINE
8
BLACK
6
CONTINUOUS
10
4.27689
20
-2.65807
11
4.27689
21
-2.65816
0
LINE
8
BLACK
6
CONTINUOUS
10
4.27689
20
-2.65816
11
4.27688
21
-2.65825
0
LINE
8
BLACK
6
CONTINUOUS
10
4.27688
20
-2.65825
11
4.27448
21
-2.67343
0
LINE
8
BLACK
6
CONTINUOUS
10
4.27448
20
-2.67343
11
4.27447
21
-2.67344
0
LINE
8
BLACK
6
CONTINUOUS
10
4.27447
20
-2.67344
11
4.27446
21
-2.67348
0
LINE
8
BLACK
6
CONTINUOUS
10
4.27446
20
-2.67348
11
4.27446
21
-2.67353
0
LINE
8
BLACK
6
CONTINUOUS
10
4.27446
20
-2.67353
11
4.27432
21
-2.67405
0
LINE
8
BLACK
6
CONTINUOUS
10
4.27432
20
-2.67405
11
4.27432
21
-2.67406
0
LINE
8
BLACK
6
CONTINUOUS
10
4.27432
20
-2.67406
11
4.27419
21
-2.67454
0
LINE
8
BLACK
6
CONTINUOUS
10
4.27419
20
-2.67454
11
4.27181
21
-2.68957
0
LINE
8
BLACK
6
CONTINUOUS
10
4.27181
20
-2.68957
11
4.27239
21
-2.70474
0
LINE
8
BLACK
6
CONTINUOUS
10
4.27239
20
-2.70474
11
4.27591
21
-2.7195
0
LINE
8
BLACK
6
CONTINUOUS
10
4.27591
20
-2.7195
11
4.28222
21
-2.7333
0
LINE
8
BLACK
6
CONTINUOUS
10
4.28222
20
-2.7333
11
4.2911
21
-2.7456
0
LINE
8
BLACK
6
CONTINUOUS
10
4.2911
20
-2.7456
11
4.3022
21
-2.75595
0
LINE
8
BLACK
6
CONTINUOUS
10
4.3022
20
-2.75595
11
4.31509
21
-2.76395
0
LINE
8
BLACK
6
CONTINUOUS
10
4.31509
20
-2.76395
11
4.32934
21
-2.7693
0
LINE
8
BLACK
6
CONTINUOUS
10
4.32934
20
-2.7693
11
4.86174
21
-2.91196
0
LINE
8
BLACK
6
CONTINUOUS
10
4.86174
20
-2.91196
11
4.86179
21
-2.91198
0
LINE
8
BLACK
6
CONTINUOUS
10
4.86179
20
-2.91198
11
4.86179
21
-2.91198
0
LINE
8
BLACK
6
CONTINUOUS
10
4.86179
20
-2.91198
11
4.87617
21
-2.91738
0
LINE
8
BLACK
6
CONTINUOUS
10
4.87617
20
-2.91738
11
4.87619
21
-2.91739
0
LINE
8
BLACK
6
CONTINUOUS
10
4.87619
20
-2.91739
11
4.87627
21
-2.91743
0
LINE
8
BLACK
6
CONTINUOUS
10
4.87627
20
-2.91743
11
4.87634
21
-2.91747
0
LINE
8
BLACK
6
CONTINUOUS
10
4.87634
20
-2.91747
11
4.88941
21
-2.92557
0
LINE
8
BLACK
6
CONTINUOUS
10
4.88941
20
-2.92557
11
4.88942
21
-2.92557
0
LINE
8
BLACK
6
CONTINUOUS
10
4.88942
20
-2.92557
11
4.88949
21
-2.92563
0
LINE
8
BLACK
6
CONTINUOUS
10
4.88949
20
-2.92563
11
4.88956
21
-2.92568
0
LINE
8
BLACK
6
CONTINUOUS
10
4.88956
20
-2.92568
11
4.9008
21
-2.93616
0
LINE
8
BLACK
6
CONTINUOUS
10
4.9008
20
-2.93616
11
4.90081
21
-2.93617
0
LINE
8
BLACK
6
CONTINUOUS
10
4.90081
20
-2.93617
11
4.90086
21
-2.93624
0
LINE
8
BLACK
6
CONTINUOUS
10
4.90086
20
-2.93624
11
4.90092
21
-2.93631
0
LINE
8
BLACK
6
CONTINUOUS
10
4.90092
20
-2.93631
11
4.90991
21
-2.94877
0
LINE
8
BLACK
6
CONTINUOUS
10
4.90991
20
-2.94877
11
4.90991
21
-2.94877
0
LINE
8
BLACK
6
CONTINUOUS
10
4.90991
20
-2.94877
11
4.90991
21
-2.94877
0
LINE
8
BLACK
6
CONTINUOUS
10
4.90991
20
-2.94877
11
4.90992
21
-2.94878
0
LINE
8
BLACK
6
CONTINUOUS
10
4.90992
20
-2.94878
11
4.90997
21
-2.94886
0
LINE
8
BLACK
6
CONTINUOUS
10
4.90997
20
-2.94886
11
4.91001
21
-2.94894
0
LINE
8
BLACK
6
CONTINUOUS
10
4.91001
20
-2.94894
11
4.91641
21
-2.96291
0
LINE
8
BLACK
6
CONTINUOUS
10
4.91641
20
-2.96291
11
4.91641
21
-2.96292
0
LINE
8
BLACK
6
CONTINUOUS
10
4.91641
20
-2.96292
11
4.91644
21
-2.96301
0
LINE
8
BLACK
6
CONTINUOUS
10
4.91644
20
-2.96301
11
4.91647
21
-2.96309
0
LINE
8
BLACK
6
CONTINUOUS
10
4.91647
20
-2.96309
11
4.92003
21
-2.97804
0
LINE
8
BLACK
6
CONTINUOUS
10
4.92003
20
-2.97804
11
4.92003
21
-2.97804
0
LINE
8
BLACK
6
CONTINUOUS
10
4.92003
20
-2.97804
11
4.92003
21
-2.97804
0
LINE
8
BLACK
6
CONTINUOUS
10
4.92003
20
-2.97804
11
4.92003
21
-2.97806
0
LINE
8
BLACK
6
CONTINUOUS
10
4.92003
20
-2.97806
11
4.92004
21
-2.97814
0
LINE
8
BLACK
6
CONTINUOUS
10
4.92004
20
-2.97814
11
4.92006
21
-2.97823
0
LINE
8
BLACK
6
CONTINUOUS
10
4.92006
20
-2.97823
11
4.92065
21
-2.99359
0
LINE
8
BLACK
6
CONTINUOUS
10
4.92065
20
-2.99359
11
4.92065
21
-2.9936
0
LINE
8
BLACK
6
CONTINUOUS
10
4.92065
20
-2.9936
11
4.92064
21
-2.99369
0
LINE
8
BLACK
6
CONTINUOUS
10
4.92064
20
-2.99369
11
4.92064
21
-2.99378
0
LINE
8
BLACK
6
CONTINUOUS
10
4.92064
20
-2.99378
11
4.91823
21
-3.00896
0
LINE
8
BLACK
6
CONTINUOUS
10
4.91823
20
-3.00896
11
4.91823
21
-3.00897
0
LINE
8
BLACK
6
CONTINUOUS
10
4.91823
20
-3.00897
11
4.91822
21
-3.00901
0
LINE
8
BLACK
6
CONTINUOUS
10
4.91822
20
-3.00901
11
4.91821
21
-3.00906
0
LINE
8
BLACK
6
CONTINUOUS
10
4.91821
20
-3.00906
11
4.91807
21
-3.00958
0
LINE
8
BLACK
6
CONTINUOUS
10
4.91807
20
-3.00958
11
4.91807
21
-3.00959
0
LINE
8
BLACK
6
CONTINUOUS
10
4.91807
20
-3.00959
11
4.91794
21
-3.01007
0
LINE
8
BLACK
6
CONTINUOUS
10
4.91794
20
-3.01007
11
4.91556
21
-3.0251
0
LINE
8
BLACK
6
CONTINUOUS
10
4.91556
20
-3.0251
11
4.91614
21
-3.04027
0
LINE
8
BLACK
6
CONTINUOUS
10
4.91614
20
-3.04027
11
4.91966
21
-3.05503
0
LINE
8
BLACK
6
CONTINUOUS
10
4.91966
20
-3.05503
11
4.92598
21
-3.06883
0
LINE
8
BLACK
6
CONTINUOUS
10
4.92598
20
-3.06883
11
4.93485
21
-3.08113
0
LINE
8
BLACK
6
CONTINUOUS
10
4.93485
20
-3.08113
11
4.94595
21
-3.09148
0
LINE
8
BLACK
6
CONTINUOUS
10
4.94595
20
-3.09148
11
4.95885
21
-3.09948
0
LINE
8
BLACK
6
CONTINUOUS
10
4.95885
20
-3.09948
11
4.97312
21
-3.10484
0
LINE
8
BLACK
6
CONTINUOUS
10
4.97312
20
-3.10484
11
5.00027
21
-3.11323
0
LINE
8
BLACK
6
CONTINUOUS
10
5.00027
20
-3.11323
11
5.13693
21
-3.14975
0
LINE
8
BLACK
6
CONTINUOUS
10
5.13693
20
-3.14975
11
5.27506
21
-3.18028
0
LINE
8
BLACK
6
CONTINUOUS
10
5.27506
20
-3.18028
11
5.41438
21
-3.20475
0
LINE
8
BLACK
6
CONTINUOUS
10
5.41438
20
-3.20475
11
5.55463
21
-3.22312
0
LINE
8
BLACK
6
CONTINUOUS
10
5.55463
20
-3.22312
11
5.69556
21
-3.23536
0
LINE
8
BLACK
6
CONTINUOUS
10
5.69556
20
-3.23536
11
5.83688
21
-3.24144
0
LINE
8
BLACK
6
CONTINUOUS
10
5.83688
20
-3.24144
11
5.97834
21
-3.24135
0
LINE
8
BLACK
6
CONTINUOUS
10
5.97834
20
-3.24135
11
6.11965
21
-3.23509
0
LINE
8
BLACK
6
CONTINUOUS
10
6.11965
20
-3.23509
11
6.26056
21
-3.22267
0
LINE
8
BLACK
6
CONTINUOUS
10
6.26056
20
-3.22267
11
6.4008
21
-3.20411
0
LINE
8
BLACK
6
CONTINUOUS
10
6.4008
20
-3.20411
11
6.54009
21
-3.17946
0
LINE
8
BLACK
6
CONTINUOUS
10
6.54009
20
-3.17946
11
6.67817
21
-3.14875
0
LINE
8
BLACK
6
CONTINUOUS
10
6.67817
20
-3.14875
11
6.81478
21
-3.11205
0
LINE
8
BLACK
6
CONTINUOUS
10
6.81478
20
-3.11205
11
6.83798
21
-3.10482
0
LINE
8
BLACK
6
CONTINUOUS
10
6.83798
20
-3.10482
11
6.838
21
-3.10481
0
LINE
8
BLACK
6
CONTINUOUS
10
6.838
20
-3.10481
11
6.83845
21
-3.10469
0
LINE
8
BLACK
6
CONTINUOUS
10
6.83845
20
-3.10469
11
6.85266
21
-3.09924
0
LINE
8
BLACK
6
CONTINUOUS
10
6.85266
20
-3.09924
11
6.8655
21
-3.09115
0
LINE
8
BLACK
6
CONTINUOUS
10
6.8655
20
-3.09115
11
6.87653
21
-3.08072
0
LINE
8
BLACK
6
CONTINUOUS
10
6.87653
20
-3.08072
11
6.88532
21
-3.06836
0
LINE
8
BLACK
6
CONTINUOUS
10
6.88532
20
-3.06836
11
6.89154
21
-3.05451
0
LINE
8
BLACK
6
CONTINUOUS
10
6.89154
20
-3.05451
11
6.89495
21
-3.03973
0
LINE
8
BLACK
6
CONTINUOUS
10
6.89495
20
-3.03973
11
6.89543
21
-3.02456
0
LINE
8
BLACK
6
CONTINUOUS
10
6.89543
20
-3.02456
11
6.89293
21
-3.0095
0
LINE
8
BLACK
6
CONTINUOUS
10
6.89293
20
-3.0095
11
6.89042
21
-2.99434
0
LINE
8
BLACK
6
CONTINUOUS
10
6.89042
20
-2.99434
11
6.89042
21
-2.99432
0
LINE
8
BLACK
6
CONTINUOUS
10
6.89042
20
-2.99432
11
6.89042
21
-2.99423
0
LINE
8
BLACK
6
CONTINUOUS
10
6.89042
20
-2.99423
11
6.89041
21
-2.99414
0
LINE
8
BLACK
6
CONTINUOUS
10
6.89041
20
-2.99414
11
6.89089
21
-2.97878
0
LINE
8
BLACK
6
CONTINUOUS
10
6.89089
20
-2.97878
11
6.89089
21
-2.97877
0
LINE
8
BLACK
6
CONTINUOUS
10
6.89089
20
-2.97877
11
6.89091
21
-2.97868
0
LINE
8
BLACK
6
CONTINUOUS
10
6.89091
20
-2.97868
11
6.89092
21
-2.97859
0
LINE
8
BLACK
6
CONTINUOUS
10
6.89092
20
-2.97859
11
6.89438
21
-2.96362
0
LINE
8
BLACK
6
CONTINUOUS
10
6.89438
20
-2.96362
11
6.89438
21
-2.96361
0
LINE
8
BLACK
6
CONTINUOUS
10
6.89438
20
-2.96361
11
6.89441
21
-2.96352
0
LINE
8
BLACK
6
CONTINUOUS
10
6.89441
20
-2.96352
11
6.89444
21
-2.96344
0
LINE
8
BLACK
6
CONTINUOUS
10
6.89444
20
-2.96344
11
6.90074
21
-2.94942
0
LINE
8
BLACK
6
CONTINUOUS
10
6.90074
20
-2.94942
11
6.90074
21
-2.94941
0
LINE
8
BLACK
6
CONTINUOUS
10
6.90074
20
-2.94941
11
6.90079
21
-2.94933
0
LINE
8
BLACK
6
CONTINUOUS
10
6.90079
20
-2.94933
11
6.90083
21
-2.94925
0
LINE
8
BLACK
6
CONTINUOUS
10
6.90083
20
-2.94925
11
6.90973
21
-2.93673
0
LINE
8
BLACK
6
CONTINUOUS
10
6.90973
20
-2.93673
11
6.90974
21
-2.93672
0
LINE
8
BLACK
6
CONTINUOUS
10
6.90974
20
-2.93672
11
6.9098
21
-2.93665
0
LINE
8
BLACK
6
CONTINUOUS
10
6.9098
20
-2.93665
11
6.90986
21
-2.93658
0
LINE
8
BLACK
6
CONTINUOUS
10
6.90986
20
-2.93658
11
6.92103
21
-2.92602
0
LINE
8
BLACK
6
CONTINUOUS
10
6.92103
20
-2.92602
11
6.92104
21
-2.92601
0
LINE
8
BLACK
6
CONTINUOUS
10
6.92104
20
-2.92601
11
6.92111
21
-2.92596
0
LINE
8
BLACK
6
CONTINUOUS
10
6.92111
20
-2.92596
11
6.92118
21
-2.92591
0
LINE
8
BLACK
6
CONTINUOUS
10
6.92118
20
-2.92591
11
6.93418
21
-2.91772
0
LINE
8
BLACK
6
CONTINUOUS
10
6.93418
20
-2.91772
11
6.93419
21
-2.91771
0
LINE
8
BLACK
6
CONTINUOUS
10
6.93419
20
-2.91771
11
6.93427
21
-2.91767
0
LINE
8
BLACK
6
CONTINUOUS
10
6.93427
20
-2.91767
11
6.93435
21
-2.91763
0
LINE
8
BLACK
6
CONTINUOUS
10
6.93435
20
-2.91763
11
6.9487
21
-2.91212
0
LINE
8
BLACK
6
CONTINUOUS
10
6.9487
20
-2.91212
11
6.94871
21
-2.91212
0
LINE
8
BLACK
6
CONTINUOUS
10
6.94871
20
-2.91212
11
6.94875
21
-2.91211
0
LINE
8
BLACK
6
CONTINUOUS
10
6.94875
20
-2.91211
11
6.94879
21
-2.91209
0
LINE
8
BLACK
6
CONTINUOUS
10
6.94879
20
-2.91209
11
6.94928
21
-2.91196
0
LINE
8
BLACK
6
CONTINUOUS
10
6.94928
20
-2.91196
11
6.94928
21
-2.91196
0
LINE
8
BLACK
6
CONTINUOUS
10
6.94928
20
-2.91196
11
6.94932
21
-2.91195
0
LINE
8
BLACK
6
CONTINUOUS
10
6.94932
20
-2.91195
11
6.94932
21
-2.91195
0
LINE
8
BLACK
6
CONTINUOUS
10
6.94932
20
-2.91195
11
6.94934
21
-2.91195
0
LINE
8
BLACK
6
CONTINUOUS
10
6.94934
20
-2.91195
11
6.94934
21
-2.91195
0
LINE
8
BLACK
6
CONTINUOUS
10
6.94934
20
-2.91195
11
7.48174
21
-2.76929
0
LINE
8
BLACK
6
CONTINUOUS
10
7.48174
20
-2.76929
11
7.48221
21
-2.76916
0
LINE
8
BLACK
6
CONTINUOUS
10
7.48221
20
-2.76916
11
7.49642
21
-2.76371
0
LINE
8
BLACK
6
CONTINUOUS
10
7.49642
20
-2.76371
11
7.50926
21
-2.75562
0
LINE
8
BLACK
6
CONTINUOUS
10
7.50926
20
-2.75562
11
7.52028
21
-2.7452
0
LINE
8
BLACK
6
CONTINUOUS
10
7.52028
20
-2.7452
11
7.52907
21
-2.73283
0
LINE
8
BLACK
6
CONTINUOUS
10
7.52907
20
-2.73283
11
7.53529
21
-2.71899
0
LINE
8
BLACK
6
CONTINUOUS
10
7.53529
20
-2.71899
11
7.53871
21
-2.7042
0
LINE
8
BLACK
6
CONTINUOUS
10
7.53871
20
-2.7042
11
7.53918
21
-2.68903
0
LINE
8
BLACK
6
CONTINUOUS
10
7.53918
20
-2.68903
11
7.53669
21
-2.67397
0
LINE
8
BLACK
6
CONTINUOUS
10
7.53669
20
-2.67397
11
7.53418
21
-2.65881
0
LINE
8
BLACK
6
CONTINUOUS
10
7.53418
20
-2.65881
11
7.53418
21
-2.65879
0
LINE
8
BLACK
6
CONTINUOUS
10
7.53418
20
-2.65879
11
7.53417
21
-2.6587
0
LINE
8
BLACK
6
CONTINUOUS
10
7.53417
20
-2.6587
11
7.53417
21
-2.65861
0
LINE
8
BLACK
6
CONTINUOUS
10
7.53417
20
-2.65861
11
7.53465
21
-2.64325
0
LINE
8
BLACK
6
CONTINUOUS
10
7.53465
20
-2.64325
11
7.53465
21
-2.64324
0
LINE
8
BLACK
6
CONTINUOUS
10
7.53465
20
-2.64324
11
7.53466
21
-2.64315
0
LINE
8
BLACK
6
CONTINUOUS
10
7.53466
20
-2.64315
11
7.53467
21
-2.64306
0
LINE
8
BLACK
6
CONTINUOUS
10
7.53467
20
-2.64306
11
7.53813
21
-2.62809
0
LINE
8
BLACK
6
CONTINUOUS
10
7.53813
20
-2.62809
11
7.53813
21
-2.62808
0
LINE
8
BLACK
6
CONTINUOUS
10
7.53813
20
-2.62808
11
7.53816
21
-2.62799
0
LINE
8
BLACK
6
CONTINUOUS
10
7.53816
20
-2.62799
11
7.53819
21
-2.62791
0
LINE
8
BLACK
6
CONTINUOUS
10
7.53819
20
-2.62791
11
7.54449
21
-2.61389
0
LINE
8
BLACK
6
CONTINUOUS
10
7.54449
20
-2.61389
11
7.5445
21
-2.61388
0
LINE
8
BLACK
6
CONTINUOUS
10
7.5445
20
-2.61388
11
7.54454
21
-2.6138
0
LINE
8
BLACK
6
CONTINUOUS
10
7.54454
20
-2.6138
11
7.54459
21
-2.61372
0
LINE
8
BLACK
6
CONTINUOUS
10
7.54459
20
-2.61372
11
7.55349
21
-2.6012
0
LINE
8
BLACK
6
CONTINUOUS
10
7.55349
20
-2.6012
11
7.5535
21
-2.60119
0
LINE
8
BLACK
6
CONTINUOUS
10
7.5535
20
-2.60119
11
7.55356
21
-2.60112
0
LINE
8
BLACK
6
CONTINUOUS
10
7.55356
20
-2.60112
11
7.55362
21
-2.60105
0
LINE
8
BLACK
6
CONTINUOUS
10
7.55362
20
-2.60105
11
7.56478
21
-2.59049
0
LINE
8
BLACK
6
CONTINUOUS
10
7.56478
20
-2.59049
11
7.56479
21
-2.59049
0
LINE
8
BLACK
6
CONTINUOUS
10
7.56479
20
-2.59049
11
7.56486
21
-2.59043
0
LINE
8
BLACK
6
CONTINUOUS
10
7.56486
20
-2.59043
11
7.56493
21
-2.59038
0
LINE
8
BLACK
6
CONTINUOUS
10
7.56493
20
-2.59038
11
7.57794
21
-2.58219
0
LINE
8
BLACK
6
CONTINUOUS
10
7.57794
20
-2.58219
11
7.57795
21
-2.58218
0
LINE
8
BLACK
6
CONTINUOUS
10
7.57795
20
-2.58218
11
7.57803
21
-2.58214
0
LINE
8
BLACK
6
CONTINUOUS
10
7.57803
20
-2.58214
11
7.57811
21
-2.5821
0
LINE
8
BLACK
6
CONTINUOUS
10
7.57811
20
-2.5821
11
7.59245
21
-2.57659
0
LINE
8
BLACK
6
CONTINUOUS
10
7.59245
20
-2.57659
11
7.59247
21
-2.57659
0
LINE
8
BLACK
6
CONTINUOUS
10
7.59247
20
-2.57659
11
7.59251
21
-2.57658
0
LINE
8
BLACK
6
CONTINUOUS
10
7.59251
20
-2.57658
11
7.59255
21
-2.57656
0
LINE
8
BLACK
6
CONTINUOUS
10
7.59255
20
-2.57656
11
7.59304
21
-2.57643
0
LINE
8
BLACK
6
CONTINUOUS
10
7.59304
20
-2.57643
11
7.59304
21
-2.57643
0
LINE
8
BLACK
6
CONTINUOUS
10
7.59304
20
-2.57643
11
7.59307
21
-2.57642
0
LINE
8
BLACK
6
CONTINUOUS
10
7.59307
20
-2.57642
11
7.59308
21
-2.57642
0
LINE
8
BLACK
6
CONTINUOUS
10
7.59308
20
-2.57642
11
7.59309
21
-2.57642
0
LINE
8
BLACK
6
CONTINUOUS
10
7.59309
20
-2.57642
11
7.59309
21
-2.57642
0
LINE
8
BLACK
6
CONTINUOUS
10
7.59309
20
-2.57642
11
8.27764
21
-2.39299
0
LINE
8
BLACK
6
CONTINUOUS
10
8.27764
20
-2.39299
11
8.27769
21
-2.39298
0
LINE
8
BLACK
6
CONTINUOUS
10
8.27769
20
-2.39298
11
8.27769
21
-2.39298
0
LINE
8
BLACK
6
CONTINUOUS
10
8.27769
20
-2.39298
11
8.29285
21
-2.39047
0
LINE
8
BLACK
6
CONTINUOUS
10
8.29285
20
-2.39047
11
8.29287
21
-2.39047
0
LINE
8
BLACK
6
CONTINUOUS
10
8.29287
20
-2.39047
11
8.29296
21
-2.39047
0
LINE
8
BLACK
6
CONTINUOUS
10
8.29296
20
-2.39047
11
8.29304
21
-2.39046
0
LINE
8
BLACK
6
CONTINUOUS
10
8.29304
20
-2.39046
11
8.3084
21
-2.39094
0
LINE
8
BLACK
6
CONTINUOUS
10
8.3084
20
-2.39094
11
8.30842
21
-2.39094
0
LINE
8
BLACK
6
CONTINUOUS
10
8.30842
20
-2.39094
11
8.30851
21
-2.39096
0
LINE
8
BLACK
6
CONTINUOUS
10
8.30851
20
-2.39096
11
8.30859
21
-2.39097
0
LINE
8
BLACK
6
CONTINUOUS
10
8.30859
20
-2.39097
11
8.32357
21
-2.39443
0
LINE
8
BLACK
6
CONTINUOUS
10
8.32357
20
-2.39443
11
8.32358
21
-2.39443
0
LINE
8
BLACK
6
CONTINUOUS
10
8.32358
20
-2.39443
11
8.32367
21
-2.39446
0
LINE
8
BLACK
6
CONTINUOUS
10
8.32367
20
-2.39446
11
8.32375
21
-2.39449
0
LINE
8
BLACK
6
CONTINUOUS
10
8.32375
20
-2.39449
11
8.33777
21
-2.40079
0
LINE
8
BLACK
6
CONTINUOUS
10
8.33777
20
-2.40079
11
8.33778
21
-2.40079
0
LINE
8
BLACK
6
CONTINUOUS
10
8.33778
20
-2.40079
11
8.33786
21
-2.40084
0
LINE
8
BLACK
6
CONTINUOUS
10
8.33786
20
-2.40084
11
8.33793
21
-2.40088
0
LINE
8
BLACK
6
CONTINUOUS
10
8.33793
20
-2.40088
11
8.35046
21
-2.40978
0
LINE
8
BLACK
6
CONTINUOUS
10
8.35046
20
-2.40978
11
8.35047
21
-2.40979
0
LINE
8
BLACK
6
CONTINUOUS
10
8.35047
20
-2.40979
11
8.35054
21
-2.40985
0
LINE
8
BLACK
6
CONTINUOUS
10
8.35054
20
-2.40985
11
8.35061
21
-2.40991
0
LINE
8
BLACK
6
CONTINUOUS
10
8.35061
20
-2.40991
11
8.36116
21
-2.42108
0
LINE
8
BLACK
6
CONTINUOUS
10
8.36116
20
-2.42108
11
8.36117
21
-2.42109
0
LINE
8
BLACK
6
CONTINUOUS
10
8.36117
20
-2.42109
11
8.36123
21
-2.42116
0
LINE
8
BLACK
6
CONTINUOUS
10
8.36123
20
-2.42116
11
8.36128
21
-2.42123
0
LINE
8
BLACK
6
CONTINUOUS
10
8.36128
20
-2.42123
11
8.36947
21
-2.43423
0
LINE
8
BLACK
6
CONTINUOUS
10
8.36947
20
-2.43423
11
8.36948
21
-2.43424
0
LINE
8
BLACK
6
CONTINUOUS
10
8.36948
20
-2.43424
11
8.36952
21
-2.43432
0
LINE
8
BLACK
6
CONTINUOUS
10
8.36952
20
-2.43432
11
8.36956
21
-2.4344
0
LINE
8
BLACK
6
CONTINUOUS
10
8.36956
20
-2.4344
11
8.37506
21
-2.44875
0
LINE
8
BLACK
6
CONTINUOUS
10
8.37506
20
-2.44875
11
8.37507
21
-2.44876
0
LINE
8
BLACK
6
CONTINUOUS
10
8.37507
20
-2.44876
11
8.37508
21
-2.4488
0
LINE
8
BLACK
6
CONTINUOUS
10
8.37508
20
-2.4488
11
8.37509
21
-2.44884
0
LINE
8
BLACK
6
CONTINUOUS
10
8.37509
20
-2.44884
11
8.37524
21
-2.44937
0
LINE
8
BLACK
6
CONTINUOUS
10
8.37524
20
-2.44937
11
8.37537
21
-2.44986
0
LINE
8
BLACK
6
CONTINUOUS
10
8.37537
20
-2.44986
11
8.38082
21
-2.46407
0
LINE
8
BLACK
6
CONTINUOUS
10
8.38082
20
-2.46407
11
8.38891
21
-2.47691
0
LINE
8
BLACK
6
CONTINUOUS
10
8.38891
20
-2.47691
11
8.39934
21
-2.48793
0
LINE
8
BLACK
6
CONTINUOUS
10
8.39934
20
-2.48793
11
8.41171
21
-2.49672
0
LINE
8
BLACK
6
CONTINUOUS
10
8.41171
20
-2.49672
11
8.42555
21
-2.50294
0
LINE
8
BLACK
6
CONTINUOUS
10
8.42555
20
-2.50294
11
8.44033
21
-2.50636
0
LINE
8
BLACK
6
CONTINUOUS
10
8.44033
20
-2.50636
11
8.4555
21
-2.50683
0
LINE
8
BLACK
6
CONTINUOUS
10
8.4555
20
-2.50683
11
8.47052
21
-2.50435
0
LINE
8
BLACK
6
CONTINUOUS
10
8.47052
20
-2.50435
11
9.00292
21
-2.36169
0
LINE
8
BLACK
6
CONTINUOUS
10
9.00292
20
-2.36169
11
9.00296
21
-2.36168
0
LINE
8
BLACK
6
CONTINUOUS
10
9.00296
20
-2.36168
11
9.00296
21
-2.36168
0
LINE
8
BLACK
6
CONTINUOUS
10
9.00296
20
-2.36168
11
9.01813
21
-2.35917
0
LINE
8
BLACK
6
CONTINUOUS
10
9.01813
20
-2.35917
11
9.01814
21
-2.35917
0
LINE
8
BLACK
6
CONTINUOUS
10
9.01814
20
-2.35917
11
9.01823
21
-2.35917
0
LINE
8
BLACK
6
CONTINUOUS
10
9.01823
20
-2.35917
11
9.01832
21
-2.35916
0
LINE
8
BLACK
6
CONTINUOUS
10
9.01832
20
-2.35916
11
9.03368
21
-2.35964
0
LINE
8
BLACK
6
CONTINUOUS
10
9.03368
20
-2.35964
11
9.03369
21
-2.35964
0
LINE
8
BLACK
6
CONTINUOUS
10
9.03369
20
-2.35964
11
9.03378
21
-2.35966
0
LINE
8
BLACK
6
CONTINUOUS
10
9.03378
20
-2.35966
11
9.03387
21
-2.35967
0
LINE
8
BLACK
6
CONTINUOUS
10
9.03387
20
-2.35967
11
9.04884
21
-2.36312
0
LINE
8
BLACK
6
CONTINUOUS
10
9.04884
20
-2.36312
11
9.04885
21
-2.36313
0
LINE
8
BLACK
6
CONTINUOUS
10
9.04885
20
-2.36313
11
9.04894
21
-2.36316
0
LINE
8
BLACK
6
CONTINUOUS
10
9.04894
20
-2.36316
11
9.04902
21
-2.36319
0
LINE
8
BLACK
6
CONTINUOUS
10
9.04902
20
-2.36319
11
9.06304
21
-2.36949
0
LINE
8
BLACK
6
CONTINUOUS
10
9.06304
20
-2.36949
11
9.06305
21
-2.36949
0
LINE
8
BLACK
6
CONTINUOUS
10
9.06305
20
-2.36949
11
9.06313
21
-2.36954
0
LINE
8
BLACK
6
CONTINUOUS
10
9.06313
20
-2.36954
11
9.06321
21
-2.36958
0
LINE
8
BLACK
6
CONTINUOUS
10
9.06321
20
-2.36958
11
9.07573
21
-2.37848
0
LINE
8
BLACK
6
CONTINUOUS
10
9.07573
20
-2.37848
11
9.07574
21
-2.37849
0
LINE
8
BLACK
6
CONTINUOUS
10
9.07574
20
-2.37849
11
9.07581
21
-2.37855
0
LINE
8
BLACK
6
CONTINUOUS
10
9.07581
20
-2.37855
11
9.07588
21
-2.37861
0
LINE
8
BLACK
6
CONTINUOUS
10
9.07588
20
-2.37861
11
9.08644
21
-2.38977
0
LINE
8
BLACK
6
CONTINUOUS
10
9.08644
20
-2.38977
11
9.08645
21
-2.38978
0
LINE
8
BLACK
6
CONTINUOUS
10
9.08645
20
-2.38978
11
9.0865
21
-2.38986
0
LINE
8
BLACK
6
CONTINUOUS
10
9.0865
20
-2.38986
11
9.08655
21
-2.38993
0
LINE
8
BLACK
6
CONTINUOUS
10
9.08655
20
-2.38993
11
9.09474
21
-2.40293
0
LINE
8
BLACK
6
CONTINUOUS
10
9.09474
20
-2.40293
11
9.09475
21
-2.40294
0
LINE
8
BLACK
6
CONTINUOUS
10
9.09475
20
-2.40294
11
9.09479
21
-2.40302
0
LINE
8
BLACK
6
CONTINUOUS
10
9.09479
20
-2.40302
11
9.09483
21
-2.4031
0
LINE
8
BLACK
6
CONTINUOUS
10
9.09483
20
-2.4031
11
9.10034
21
-2.41745
0
LINE
8
BLACK
6
CONTINUOUS
10
9.10034
20
-2.41745
11
9.10034
21
-2.41746
0
LINE
8
BLACK
6
CONTINUOUS
10
9.10034
20
-2.41746
11
9.10035
21
-2.4175
0
LINE
8
BLACK
6
CONTINUOUS
10
9.10035
20
-2.4175
11
9.10037
21
-2.41754
0
LINE
8
BLACK
6
CONTINUOUS
10
9.10037
20
-2.41754
11
9.10051
21
-2.41807
0
LINE
8
BLACK
6
CONTINUOUS
10
9.10051
20
-2.41807
11
9.10064
21
-2.41856
0
LINE
8
BLACK
6
CONTINUOUS
10
9.10064
20
-2.41856
11
9.1061
21
-2.43277
0
LINE
8
BLACK
6
CONTINUOUS
10
9.1061
20
-2.43277
11
9.11418
21
-2.44561
0
LINE
8
BLACK
6
CONTINUOUS
10
9.11418
20
-2.44561
11
9.12461
21
-2.45663
0
LINE
8
BLACK
6
CONTINUOUS
10
9.12461
20
-2.45663
11
9.13698
21
-2.46542
0
LINE
8
BLACK
6
CONTINUOUS
10
9.13698
20
-2.46542
11
9.15082
21
-2.47164
0
LINE
8
BLACK
6
CONTINUOUS
10
9.15082
20
-2.47164
11
9.16561
21
-2.47506
0
LINE
8
BLACK
6
CONTINUOUS
10
9.16561
20
-2.47506
11
9.18077
21
-2.47553
0
LINE
8
BLACK
6
CONTINUOUS
10
9.18077
20
-2.47553
11
9.19579
21
-2.47305
0
LINE
8
BLACK
6
CONTINUOUS
10
9.19579
20
-2.47305
11
9.72819
21
-2.33039
0
LINE
8
BLACK
6
CONTINUOUS
10
9.72819
20
-2.33039
11
9.72824
21
-2.33038
0
LINE
8
BLACK
6
CONTINUOUS
10
9.72824
20
-2.33038
11
9.72824
21
-2.33038
0
LINE
8
BLACK
6
CONTINUOUS
10
9.72824
20
-2.33038
11
9.7434
21
-2.32787
0
LINE
8
BLACK
6
CONTINUOUS
10
9.7434
20
-2.32787
11
9.74341
21
-2.32787
0
LINE
8
BLACK
6
CONTINUOUS
10
9.74341
20
-2.32787
11
9.7435
21
-2.32787
0
LINE
8
BLACK
6
CONTINUOUS
10
9.7435
20
-2.32787
11
9.74359
21
-2.32786
0
LINE
8
BLACK
6
CONTINUOUS
10
9.74359
20
-2.32786
11
9.75895
21
-2.32834
0
LINE
8
BLACK
6
CONTINUOUS
10
9.75895
20
-2.32834
11
9.75896
21
-2.32834
0
LINE
8
BLACK
6
CONTINUOUS
10
9.75896
20
-2.32834
11
9.75905
21
-2.32836
0
LINE
8
BLACK
6
CONTINUOUS
10
9.75905
20
-2.32836
11
9.75914
21
-2.32837
0
LINE
8
BLACK
6
CONTINUOUS
10
9.75914
20
-2.32837
11
9.77411
21
-2.33182
0
LINE
8
BLACK
6
CONTINUOUS
10
9.77411
20
-2.33182
11
9.77413
21
-2.33183
0
LINE
8
BLACK
6
CONTINUOUS
10
9.77413
20
-2.33183
11
9.77421
21
-2.33186
0
LINE
8
BLACK
6
CONTINUOUS
10
9.77421
20
-2.33186
11
9.7743
21
-2.33189
0
LINE
8
BLACK
6
CONTINUOUS
10
9.7743
20
-2.33189
11
9.78831
21
-2.33818
0
LINE
8
BLACK
6
CONTINUOUS
10
9.78831
20
-2.33818
11
9.78833
21
-2.33819
0
LINE
8
BLACK
6
CONTINUOUS
10
9.78833
20
-2.33819
11
9.7884
21
-2.33824
0
LINE
8
BLACK
6
CONTINUOUS
10
9.7884
20
-2.33824
11
9.78848
21
-2.33828
0
LINE
8
BLACK
6
CONTINUOUS
10
9.78848
20
-2.33828
11
9.80101
21
-2.34718
0
LINE
8
BLACK
6
CONTINUOUS
10
9.80101
20
-2.34718
11
9.80102
21
-2.34719
0
LINE
8
BLACK
6
CONTINUOUS
10
9.80102
20
-2.34719
11
9.80109
21
-2.34725
0
LINE
8
BLACK
6
CONTINUOUS
10
9.80109
20
-2.34725
11
9.80115
21
-2.34731
0
LINE
8
BLACK
6
CONTINUOUS
10
9.80115
20
-2.34731
11
9.81171
21
-2.35847
0
LINE
8
BLACK
6
CONTINUOUS
10
9.81171
20
-2.35847
11
9.81172
21
-2.35848
0
LINE
8
BLACK
6
CONTINUOUS
10
9.81172
20
-2.35848
11
9.81177
21
-2.35856
0
LINE
8
BLACK
6
CONTINUOUS
10
9.81177
20
-2.35856
11
9.81183
21
-2.35863
0
LINE
8
BLACK
6
CONTINUOUS
10
9.81183
20
-2.35863
11
9.82002
21
-2.37163
0
LINE
8
BLACK
6
CONTINUOUS
10
9.82002
20
-2.37163
11
9.82002
21
-2.37164
0
LINE
8
BLACK
6
CONTINUOUS
10
9.82002
20
-2.37164
11
9.82006
21
-2.37172
0
LINE
8
BLACK
6
CONTINUOUS
10
9.82006
20
-2.37172
11
9.8201
21
-2.3718
0
LINE
8
BLACK
6
CONTINUOUS
10
9.8201
20
-2.3718
11
9.82561
21
-2.38615
0
LINE
8
BLACK
6
CONTINUOUS
10
9.82561
20
-2.38615
11
9.82562
21
-2.38616
0
LINE
8
BLACK
6
CONTINUOUS
10
9.82562
20
-2.38616
11
9.82563
21
-2.3862
0
LINE
8
BLACK
6
CONTINUOUS
10
9.82563
20
-2.3862
11
9.82564
21
-2.38624
0
LINE
8
BLACK
6
CONTINUOUS
10
9.82564
20
-2.38624
11
9.82577
21
-2.38673
0
LINE
8
BLACK
6
CONTINUOUS
10
9.82577
20
-2.38673
11
9.82577
21
-2.38673
0
LINE
8
BLACK
6
CONTINUOUS
10
9.82577
20
-2.38673
11
9.82578
21
-2.38677
0
LINE
8
BLACK
6
CONTINUOUS
10
9.82578
20
-2.38677
11
9.82579
21
-2.38677
0
LINE
8
BLACK
6
CONTINUOUS
10
9.82579
20
-2.38677
11
9.82579
21
-2.38679
0
LINE
8
BLACK
6
CONTINUOUS
10
9.82579
20
-2.38679
11
10.5798
21
-5.20094
0
LINE
8
BLACK
6
CONTINUOUS
10
10.5798
20
-5.20094
11
10.5798
21
-5.20098
0
LINE
8
BLACK
6
CONTINUOUS
10
10.5798
20
-5.20098
11
10.5798
21
-5.20098
0
LINE
8
BLACK
6
CONTINUOUS
10
10.5798
20
-5.20098
11
10.5824
21
-5.21615
0
LINE
8
BLACK
6
CONTINUOUS
10
10.5824
20
-5.21615
11
10.5824
21
-5.21616
0
LINE
8
BLACK
6
CONTINUOUS
10
10.5824
20
-5.21616
11
10.5824
21
-5.21625
0
LINE
8
BLACK
6
CONTINUOUS
10
10.5824
20
-5.21625
11
10.5824
21
-5.21634
0
LINE
8
BLACK
6
CONTINUOUS
10
10.5824
20
-5.21634
11
10.5819
21
-5.2317
0
LINE
8
BLACK
6
CONTINUOUS
10
10.5819
20
-5.2317
11
10.5819
21
-5.23171
0
LINE
8
BLACK
6
CONTINUOUS
10
10.5819
20
-5.23171
11
10.5819
21
-5.2318
0
LINE
8
BLACK
6
CONTINUOUS
10
10.5819
20
-5.2318
11
10.5819
21
-5.23189
0
LINE
8
BLACK
6
CONTINUOUS
10
10.5819
20
-5.23189
11
10.5784
21
-5.24686
0
LINE
8
BLACK
6
CONTINUOUS
10
10.5784
20
-5.24686
11
10.5784
21
-5.24687
0
LINE
8
BLACK
6
CONTINUOUS
10
10.5784
20
-5.24687
11
10.5784
21
-5.24696
0
LINE
8
BLACK
6
CONTINUOUS
10
10.5784
20
-5.24696
11
10.5783
21
-5.24704
0
LINE
8
BLACK
6
CONTINUOUS
10
10.5783
20
-5.24704
11
10.572
21
-5.26106
0
LINE
8
BLACK
6
CONTINUOUS
10
10.572
20
-5.26106
11
10.572
21
-5.26107
0
LINE
8
BLACK
6
CONTINUOUS
10
10.572
20
-5.26107
11
10.572
21
-5.26115
0
LINE
8
BLACK
6
CONTINUOUS
10
10.572
20
-5.26115
11
10.5719
21
-5.26123
0
LINE
8
BLACK
6
CONTINUOUS
10
10.5719
20
-5.26123
11
10.563
21
-5.27375
0
LINE
8
BLACK
6
CONTINUOUS
10
10.563
20
-5.27375
11
10.563
21
-5.27375
0
LINE
8
BLACK
6
CONTINUOUS
10
10.563
20
-5.27375
11
10.563
21
-5.27375
0
LINE
8
BLACK
6
CONTINUOUS
10
10.563
20
-5.27375
11
10.563
21
-5.27376
0
LINE
8
BLACK
6
CONTINUOUS
10
10.563
20
-5.27376
11
10.563
21
-5.27383
0
LINE
8
BLACK
6
CONTINUOUS
10
10.563
20
-5.27383
11
10.5629
21
-5.2739
0
LINE
8
BLACK
6
CONTINUOUS
10
10.5629
20
-5.2739
11
10.5518
21
-5.28446
0
LINE
8
BLACK
6
CONTINUOUS
10
10.5518
20
-5.28446
11
10.5518
21
-5.28446
0
LINE
8
BLACK
6
CONTINUOUS
10
10.5518
20
-5.28446
11
10.5518
21
-5.28446
0
LINE
8
BLACK
6
CONTINUOUS
10
10.5518
20
-5.28446
11
10.5517
21
-5.28447
0
LINE
8
BLACK
6
CONTINUOUS
10
10.5517
20
-5.28447
11
10.5517
21
-5.28452
0
LINE
8
BLACK
6
CONTINUOUS
10
10.5517
20
-5.28452
11
10.5516
21
-5.28457
0
LINE
8
BLACK
6
CONTINUOUS
10
10.5516
20
-5.28457
11
10.5386
21
-5.29276
0
LINE
8
BLACK
6
CONTINUOUS
10
10.5386
20
-5.29276
11
10.5386
21
-5.29277
0
LINE
8
BLACK
6
CONTINUOUS
10
10.5386
20
-5.29277
11
10.5385
21
-5.29281
0
LINE
8
BLACK
6
CONTINUOUS
10
10.5385
20
-5.29281
11
10.5384
21
-5.29285
0
LINE
8
BLACK
6
CONTINUOUS
10
10.5384
20
-5.29285
11
10.5241
21
-5.29836
0
LINE
8
BLACK
6
CONTINUOUS
10
10.5241
20
-5.29836
11
10.5241
21
-5.29836
0
LINE
8
BLACK
6
CONTINUOUS
10
10.5241
20
-5.29836
11
10.524
21
-5.29837
0
LINE
8
BLACK
6
CONTINUOUS
10
10.524
20
-5.29837
11
10.524
21
-5.29839
0
LINE
8
BLACK
6
CONTINUOUS
10
10.524
20
-5.29839
11
10.5235
21
-5.29852
0
LINE
8
BLACK
6
CONTINUOUS
10
10.5235
20
-5.29852
11
10.5235
21
-5.29852
0
LINE
8
BLACK
6
CONTINUOUS
10
10.5235
20
-5.29852
11
10.5235
21
-5.29852
0
LINE
8
BLACK
6
CONTINUOUS
10
10.5235
20
-5.29852
11
10.5235
21
-5.29853
0
LINE
8
BLACK
6
CONTINUOUS
10
10.5235
20
-5.29853
11
10.5234
21
-5.29854
0
LINE
8
BLACK
6
CONTINUOUS
10
10.5234
20
-5.29854
11
10.5234
21
-5.29854
0
LINE
8
BLACK
6
CONTINUOUS
10
10.5234
20
-5.29854
11
9.83889
21
-5.48196
0
LINE
8
BLACK
6
CONTINUOUS
10
9.83889
20
-5.48196
11
9.83884
21
-5.48197
0
LINE
8
BLACK
6
CONTINUOUS
10
9.83884
20
-5.48197
11
9.83884
21
-5.48197
0
LINE
8
BLACK
6
CONTINUOUS
10
9.83884
20
-5.48197
11
9.82368
21
-5.48448
0
LINE
8
BLACK
6
CONTINUOUS
10
9.82368
20
-5.48448
11
9.82368
21
-5.48448
0
LINE
8
BLACK
6
CONTINUOUS
10
9.82368
20
-5.48448
11
9.82367
21
-5.48448
0
LINE
8
BLACK
6
CONTINUOUS
10
9.82367
20
-5.48448
11
9.82358
21
-5.48449
0
LINE
8
BLACK
6
CONTINUOUS
10
9.82358
20
-5.48449
11
9.82349
21
-5.48449
0
LINE
8
BLACK
6
CONTINUOUS
10
9.82349
20
-5.48449
11
9.80813
21
-5.48401
0
LINE
8
BLACK
6
CONTINUOUS
10
9.80813
20
-5.48401
11
9.80812
21
-5.48401
0
LINE
8
BLACK
6
CONTINUOUS
10
9.80812
20
-5.48401
11
9.80803
21
-5.48399
0
LINE
8
BLACK
6
CONTINUOUS
10
9.80803
20
-5.48399
11
9.80794
21
-5.48398
0
LINE
8
BLACK
6
CONTINUOUS
10
9.80794
20
-5.48398
11
9.79297
21
-5.48053
0
LINE
8
BLACK
6
CONTINUOUS
10
9.79297
20
-5.48053
11
9.79295
21
-5.48052
0
LINE
8
BLACK
6
CONTINUOUS
10
9.79295
20
-5.48052
11
9.79287
21
-5.48049
0
LINE
8
BLACK
6
CONTINUOUS
10
9.79287
20
-5.48049
11
9.79279
21
-5.48047
0
LINE
8
BLACK
6
CONTINUOUS
10
9.79279
20
-5.48047
11
9.77877
21
-5.47417
0
LINE
8
BLACK
6
CONTINUOUS
10
9.77877
20
-5.47417
11
9.77876
21
-5.47416
0
LINE
8
BLACK
6
CONTINUOUS
10
9.77876
20
-5.47416
11
9.77868
21
-5.47411
0
LINE
8
BLACK
6
CONTINUOUS
10
9.77868
20
-5.47411
11
9.7786
21
-5.47407
0
LINE
8
BLACK
6
CONTINUOUS
10
9.7786
20
-5.47407
11
9.76608
21
-5.46517
0
LINE
8
BLACK
6
CONTINUOUS
10
9.76608
20
-5.46517
11
9.76608
21
-5.46517
0
LINE
8
BLACK
6
CONTINUOUS
10
9.76608
20
-5.46517
11
9.76607
21
-5.46517
0
LINE
8
BLACK
6
CONTINUOUS
10
9.76607
20
-5.46517
11
9.76606
21
-5.46516
0
LINE
8
BLACK
6
CONTINUOUS
10
9.76606
20
-5.46516
11
9.766
21
-5.4651
0
LINE
8
BLACK
6
CONTINUOUS
10
9.766
20
-5.4651
11
9.76593
21
-5.46504
0
LINE
8
BLACK
6
CONTINUOUS
10
9.76593
20
-5.46504
11
9.75537
21
-5.45388
0
LINE
8
BLACK
6
CONTINUOUS
10
9.75537
20
-5.45388
11
9.75537
21
-5.45388
0
LINE
8
BLACK
6
CONTINUOUS
10
9.75537
20
-5.45388
11
9.75537
21
-5.45388
0
LINE
8
BLACK
6
CONTINUOUS
10
9.75537
20
-5.45388
11
9.75536
21
-5.45387
0
LINE
8
BLACK
6
CONTINUOUS
10
9.75536
20
-5.45387
11
9.75531
21
-5.4538
0
LINE
8
BLACK
6
CONTINUOUS
10
9.75531
20
-5.4538
11
9.75525
21
-5.45373
0
LINE
8
BLACK
6
CONTINUOUS
10
9.75525
20
-5.45373
11
9.74706
21
-5.44072
0
LINE
8
BLACK
6
CONTINUOUS
10
9.74706
20
-5.44072
11
9.74706
21
-5.44071
0
LINE
8
BLACK
6
CONTINUOUS
10
9.74706
20
-5.44071
11
9.74702
21
-5.44063
0
LINE
8
BLACK
6
CONTINUOUS
10
9.74702
20
-5.44063
11
9.74698
21
-5.44055
0
LINE
8
BLACK
6
CONTINUOUS
10
9.74698
20
-5.44055
11
9.74147
21
-5.4262
0
LINE
8
BLACK
6
CONTINUOUS
10
9.74147
20
-5.4262
11
9.74147
21
-5.42619
0
LINE
8
BLACK
6
CONTINUOUS
10
9.74147
20
-5.42619
11
9.74146
21
-5.42615
0
LINE
8
BLACK
6
CONTINUOUS
10
9.74146
20
-5.42615
11
9.74144
21
-5.42611
0
LINE
8
BLACK
6
CONTINUOUS
10
9.74144
20
-5.42611
11
9.7413
21
-5.42558
0
LINE
8
BLACK
6
CONTINUOUS
10
9.7413
20
-5.42558
11
9.74129
21
-5.42556
0
LINE
8
BLACK
6
CONTINUOUS
10
9.74129
20
-5.42556
11
9.74129
21
-5.42556
0
LINE
8
BLACK
6
CONTINUOUS
10
9.74129
20
-5.42556
11
9.74117
21
-5.42509
0
LINE
8
BLACK
6
CONTINUOUS
10
9.74117
20
-5.42509
11
9.73571
21
-5.41089
0
LINE
8
BLACK
6
CONTINUOUS
10
9.73571
20
-5.41089
11
9.72762
21
-5.39804
0
LINE
8
BLACK
6
CONTINUOUS
10
9.72762
20
-5.39804
11
9.7172
21
-5.38702
0
LINE
8
BLACK
6
CONTINUOUS
10
9.7172
20
-5.38702
11
9.70483
21
-5.37823
0
LINE
8
BLACK
6
CONTINUOUS
10
9.70483
20
-5.37823
11
9.69099
21
-5.37201
0
LINE
8
BLACK
6
CONTINUOUS
10
9.69099
20
-5.37201
11
9.6762
21
-5.3686
0
LINE
8
BLACK
6
CONTINUOUS
10
9.6762
20
-5.3686
11
9.66104
21
-5.36812
0
LINE
8
BLACK
6
CONTINUOUS
10
9.66104
20
-5.36812
11
9.64602
21
-5.3706
0
LINE
8
BLACK
6
CONTINUOUS
10
9.64602
20
-5.3706
11
9.11362
21
-5.51326
0
LINE
8
BLACK
6
CONTINUOUS
10
9.11362
20
-5.51326
11
9.11357
21
-5.51327
0
LINE
8
BLACK
6
CONTINUOUS
10
9.11357
20
-5.51327
11
9.11357
21
-5.51327
0
LINE
8
BLACK
6
CONTINUOUS
10
9.11357
20
-5.51327
11
9.09841
21
-5.51578
0
LINE
8
BLACK
6
CONTINUOUS
10
9.09841
20
-5.51578
11
9.09841
21
-5.51578
0
LINE
8
BLACK
6
CONTINUOUS
10
9.09841
20
-5.51578
11
9.0984
21
-5.51578
0
LINE
8
BLACK
6
CONTINUOUS
10
9.0984
20
-5.51578
11
9.09831
21
-5.51579
0
LINE
8
BLACK
6
CONTINUOUS
10
9.09831
20
-5.51579
11
9.09822
21
-5.51579
0
LINE
8
BLACK
6
CONTINUOUS
10
9.09822
20
-5.51579
11
9.08286
21
-5.51531
0
LINE
8
BLACK
6
CONTINUOUS
10
9.08286
20
-5.51531
11
9.08284
21
-5.51531
0
LINE
8
BLACK
6
CONTINUOUS
10
9.08284
20
-5.51531
11
9.08275
21
-5.5153
0
LINE
8
BLACK
6
CONTINUOUS
10
9.08275
20
-5.5153
11
9.08267
21
-5.51528
0
LINE
8
BLACK
6
CONTINUOUS
10
9.08267
20
-5.51528
11
9.06769
21
-5.51183
0
LINE
8
BLACK
6
CONTINUOUS
10
9.06769
20
-5.51183
11
9.06768
21
-5.51182
0
LINE
8
BLACK
6
CONTINUOUS
10
9.06768
20
-5.51182
11
9.0676
21
-5.51179
0
LINE
8
BLACK
6
CONTINUOUS
10
9.0676
20
-5.51179
11
9.06751
21
-5.51177
0
LINE
8
BLACK
6
CONTINUOUS
10
9.06751
20
-5.51177
11
9.0535
21
-5.50547
0
LINE
8
BLACK
6
CONTINUOUS
10
9.0535
20
-5.50547
11
9.05348
21
-5.50546
0
LINE
8
BLACK
6
CONTINUOUS
10
9.05348
20
-5.50546
11
9.0534
21
-5.50542
0
LINE
8
BLACK
6
CONTINUOUS
10
9.0534
20
-5.50542
11
9.05333
21
-5.50537
0
LINE
8
BLACK
6
CONTINUOUS
10
9.05333
20
-5.50537
11
9.0408
21
-5.49647
0
LINE
8
BLACK
6
CONTINUOUS
10
9.0408
20
-5.49647
11
9.0408
21
-5.49647
0
LINE
8
BLACK
6
CONTINUOUS
10
9.0408
20
-5.49647
11
9.0408
21
-5.49647
0
LINE
8
BLACK
6
CONTINUOUS
10
9.0408
20
-5.49647
11
9.04079
21
-5.49646
0
LINE
8
BLACK
6
CONTINUOUS
10
9.04079
20
-5.49646
11
9.04072
21
-5.4964
0
LINE
8
BLACK
6
CONTINUOUS
10
9.04072
20
-5.4964
11
9.04066
21
-5.49634
0
LINE
8
BLACK
6
CONTINUOUS
10
9.04066
20
-5.49634
11
9.0301
21
-5.48518
0
LINE
8
BLACK
6
CONTINUOUS
10
9.0301
20
-5.48518
11
9.0301
21
-5.48518
0
LINE
8
BLACK
6
CONTINUOUS
10
9.0301
20
-5.48518
11
9.0301
21
-5.48518
0
LINE
8
BLACK
6
CONTINUOUS
10
9.0301
20
-5.48518
11
9.03009
21
-5.48517
0
LINE
8
BLACK
6
CONTINUOUS
10
9.03009
20
-5.48517
11
9.03004
21
-5.4851
0
LINE
8
BLACK
6
CONTINUOUS
10
9.03004
20
-5.4851
11
9.02998
21
-5.48503
0
LINE
8
BLACK
6
CONTINUOUS
10
9.02998
20
-5.48503
11
9.02179
21
-5.47202
0
LINE
8
BLACK
6
CONTINUOUS
10
9.02179
20
-5.47202
11
9.02178
21
-5.47201
0
LINE
8
BLACK
6
CONTINUOUS
10
9.02178
20
-5.47201
11
9.02174
21
-5.47193
0
LINE
8
BLACK
6
CONTINUOUS
10
9.02174
20
-5.47193
11
9.02171
21
-5.47185
0
LINE
8
BLACK
6
CONTINUOUS
10
9.02171
20
-5.47185
11
9.0162
21
-5.4575
0
LINE
8
BLACK
6
CONTINUOUS
10
9.0162
20
-5.4575
11
9.01619
21
-5.45749
0
LINE
8
BLACK
6
CONTINUOUS
10
9.01619
20
-5.45749
11
9.01618
21
-5.45745
0
LINE
8
BLACK
6
CONTINUOUS
10
9.01618
20
-5.45745
11
9.01617
21
-5.45741
0
LINE
8
BLACK
6
CONTINUOUS
10
9.01617
20
-5.45741
11
9.01602
21
-5.45688
0
LINE
8
BLACK
6
CONTINUOUS
10
9.01602
20
-5.45688
11
9.01602
21
-5.45686
0
LINE
8
BLACK
6
CONTINUOUS
10
9.01602
20
-5.45686
11
9.01602
21
-5.45686
0
LINE
8
BLACK
6
CONTINUOUS
10
9.01602
20
-5.45686
11
9.01589
21
-5.4564
0
LINE
8
BLACK
6
CONTINUOUS
10
9.01589
20
-5.4564
11
9.01044
21
-5.44219
0
LINE
8
BLACK
6
CONTINUOUS
10
9.01044
20
-5.44219
11
9.00235
21
-5.42935
0
LINE
8
BLACK
6
CONTINUOUS
10
9.00235
20
-5.42935
11
8.99193
21
-5.41832
0
LINE
8
BLACK
6
CONTINUOUS
10
8.99193
20
-5.41832
11
8.97956
21
-5.40953
0
LINE
8
BLACK
6
CONTINUOUS
10
8.97956
20
-5.40953
11
8.96572
21
-5.40331
0
LINE
8
BLACK
6
CONTINUOUS
10
8.96572
20
-5.40331
11
8.95093
21
-5.3999
0
LINE
8
BLACK
6
CONTINUOUS
10
8.95093
20
-5.3999
11
8.93576
21
-5.39942
0
LINE
8
BLACK
6
CONTINUOUS
10
8.93576
20
-5.39942
11
8.92075
21
-5.40191
0
LINE
8
BLACK
6
CONTINUOUS
10
8.92075
20
-5.40191
11
8.54051
21
-5.50379
0
LINE
8
BLACK
6
CONTINUOUS
10
8.54051
20
-5.50379
11
8.54051
21
-5.50379
0
LINE
8
BLACK
6
CONTINUOUS
10
8.54051
20
-5.50379
11
8.54003
21
-5.50392
0
LINE
8
BLACK
6
CONTINUOUS
10
8.54003
20
-5.50392
11
8.52582
21
-5.50938
0
LINE
8
BLACK
6
CONTINUOUS
10
8.52582
20
-5.50938
11
8.51298
21
-5.51746
0
LINE
8
BLACK
6
CONTINUOUS
10
8.51298
20
-5.51746
11
8.50195
21
-5.52789
0
LINE
8
BLACK
6
CONTINUOUS
10
8.50195
20
-5.52789
11
8.49316
21
-5.54026
0
LINE
8
BLACK
6
CONTINUOUS
10
8.49316
20
-5.54026
11
8.48694
21
-5.5541
0
LINE
8
BLACK
6
CONTINUOUS
10
8.48694
20
-5.5541
11
8.48353
21
-5.56888
0
LINE
8
BLACK
6
CONTINUOUS
10
8.48353
20
-5.56888
11
8.48305
21
-5.58405
0
LINE
8
BLACK
6
CONTINUOUS
10
8.48305
20
-5.58405
11
8.48554
21
-5.59912
0
LINE
8
BLACK
6
CONTINUOUS
10
8.48554
20
-5.59912
11
8.48554
21
-5.59912
0
LINE
8
BLACK
6
CONTINUOUS
10
8.48554
20
-5.59912
11
8.48805
21
-5.61428
0
LINE
8
BLACK
6
CONTINUOUS
10
8.48805
20
-5.61428
11
8.48806
21
-5.61429
0
LINE
8
BLACK
6
CONTINUOUS
10
8.48806
20
-5.61429
11
8.48806
21
-5.61438
0
LINE
8
BLACK
6
CONTINUOUS
10
8.48806
20
-5.61438
11
8.48807
21
-5.61447
0
LINE
8
BLACK
6
CONTINUOUS
10
8.48807
20
-5.61447
11
8.48758
21
-5.62983
0
LINE
8
BLACK
6
CONTINUOUS
10
8.48758
20
-5.62983
11
8.48758
21
-5.62984
0
LINE
8
BLACK
6
CONTINUOUS
10
8.48758
20
-5.62984
11
8.48757
21
-5.62993
0
LINE
8
BLACK
6
CONTINUOUS
10
8.48757
20
-5.62993
11
8.48756
21
-5.63002
0
LINE
8
BLACK
6
CONTINUOUS
10
8.48756
20
-5.63002
11
8.4841
21
-5.64499
0
LINE
8
BLACK
6
CONTINUOUS
10
8.4841
20
-5.64499
11
8.4841
21
-5.64501
0
LINE
8
BLACK
6
CONTINUOUS
10
8.4841
20
-5.64501
11
8.48407
21
-5.64509
0
LINE
8
BLACK
6
CONTINUOUS
10
8.48407
20
-5.64509
11
8.48404
21
-5.64517
0
LINE
8
BLACK
6
CONTINUOUS
10
8.48404
20
-5.64517
11
8.47774
21
-5.65919
0
LINE
8
BLACK
6
CONTINUOUS
10
8.47774
20
-5.65919
11
8.47774
21
-5.6592
0
LINE
8
BLACK
6
CONTINUOUS
10
8.47774
20
-5.6592
11
8.47769
21
-5.65928
0
LINE
8
BLACK
6
CONTINUOUS
10
8.47769
20
-5.65928
11
8.47765
21
-5.65936
0
LINE
8
BLACK
6
CONTINUOUS
10
8.47765
20
-5.65936
11
8.46874
21
-5.67188
0
LINE
8
BLACK
6
CONTINUOUS
10
8.46874
20
-5.67188
11
8.46874
21
-5.67188
0
LINE
8
BLACK
6
CONTINUOUS
10
8.46874
20
-5.67188
11
8.46874
21
-5.67188
0
LINE
8
BLACK
6
CONTINUOUS
10
8.46874
20
-5.67188
11
8.46874
21
-5.6719
0
LINE
8
BLACK
6
CONTINUOUS
10
8.46874
20
-5.6719
11
8.46868
21
-5.67196
0
LINE
8
BLACK
6
CONTINUOUS
10
8.46868
20
-5.67196
11
8.46862
21
-5.67203
0
LINE
8
BLACK
6
CONTINUOUS
10
8.46862
20
-5.67203
11
8.45745
21
-5.68259
0
LINE
8
BLACK
6
CONTINUOUS
10
8.45745
20
-5.68259
11
8.45745
21
-5.68259
0
LINE
8
BLACK
6
CONTINUOUS
10
8.45745
20
-5.68259
11
8.45745
21
-5.68259
0
LINE
8
BLACK
6
CONTINUOUS
10
8.45745
20
-5.68259
11
8.45744
21
-5.6826
0
LINE
8
BLACK
6
CONTINUOUS
10
8.45744
20
-5.6826
11
8.45737
21
-5.68265
0
LINE
8
BLACK
6
CONTINUOUS
10
8.45737
20
-5.68265
11
8.4573
21
-5.68271
0
LINE
8
BLACK
6
CONTINUOUS
10
8.4573
20
-5.68271
11
8.4443
21
-5.69089
0
LINE
8
BLACK
6
CONTINUOUS
10
8.4443
20
-5.69089
11
8.44429
21
-5.6909
0
LINE
8
BLACK
6
CONTINUOUS
10
8.44429
20
-5.6909
11
8.4442
21
-5.69094
0
LINE
8
BLACK
6
CONTINUOUS
10
8.4442
20
-5.69094
11
8.44413
21
-5.69098
0
LINE
8
BLACK
6
CONTINUOUS
10
8.44413
20
-5.69098
11
8.42978
21
-5.69649
0
LINE
8
BLACK
6
CONTINUOUS
10
8.42978
20
-5.69649
11
8.42977
21
-5.69649
0
LINE
8
BLACK
6
CONTINUOUS
10
8.42977
20
-5.69649
11
8.42972
21
-5.6965
0
LINE
8
BLACK
6
CONTINUOUS
10
8.42972
20
-5.6965
11
8.42968
21
-5.69652
0
LINE
8
BLACK
6
CONTINUOUS
10
8.42968
20
-5.69652
11
8.4292
21
-5.69665
0
LINE
8
BLACK
6
CONTINUOUS
10
8.4292
20
-5.69665
11
8.4292
21
-5.69665
0
LINE
8
BLACK
6
CONTINUOUS
10
8.4292
20
-5.69665
11
8.42918
21
-5.69666
0
LINE
8
BLACK
6
CONTINUOUS
10
8.42918
20
-5.69666
11
8.42915
21
-5.69666
0
LINE
8
BLACK
6
CONTINUOUS
10
8.42915
20
-5.69666
11
8.42914
21
-5.69667
0
LINE
8
BLACK
6
CONTINUOUS
10
8.42914
20
-5.69667
11
8.42914
21
-5.69667
0
LINE
8
BLACK
6
CONTINUOUS
10
8.42914
20
-5.69667
11
7.89675
21
-5.83932
0
LINE
8
BLACK
6
CONTINUOUS
10
7.89675
20
-5.83932
11
7.89675
21
-5.83932
0
LINE
8
BLACK
6
CONTINUOUS
10
7.89675
20
-5.83932
11
7.89627
21
-5.83945
0
LINE
8
BLACK
6
CONTINUOUS
10
7.89627
20
-5.83945
11
7.88206
21
-5.8449
0
LINE
8
BLACK
6
CONTINUOUS
10
7.88206
20
-5.8449
11
7.86922
21
-5.85299
0
LINE
8
BLACK
6
CONTINUOUS
10
7.86922
20
-5.85299
11
7.8582
21
-5.86342
0
LINE
8
BLACK
6
CONTINUOUS
10
7.8582
20
-5.86342
11
7.8494
21
-5.87579
0
LINE
8
BLACK
6
CONTINUOUS
10
7.8494
20
-5.87579
11
7.84318
21
-5.88963
0
LINE
8
BLACK
6
CONTINUOUS
10
7.84318
20
-5.88963
11
7.83977
21
-5.90441
0
LINE
8
BLACK
6
CONTINUOUS
10
7.83977
20
-5.90441
11
7.83929
21
-5.91958
0
LINE
8
BLACK
6
CONTINUOUS
10
7.83929
20
-5.91958
11
7.84179
21
-5.93464
0
LINE
8
BLACK
6
CONTINUOUS
10
7.84179
20
-5.93464
11
7.84179
21
-5.93464
0
LINE
8
BLACK
6
CONTINUOUS
10
7.84179
20
-5.93464
11
7.8443
21
-5.94981
0
LINE
8
BLACK
6
CONTINUOUS
10
7.8443
20
-5.94981
11
7.8443
21
-5.94982
0
LINE
8
BLACK
6
CONTINUOUS
10
7.8443
20
-5.94982
11
7.84431
21
-5.94991
0
LINE
8
BLACK
6
CONTINUOUS
10
7.84431
20
-5.94991
11
7.84431
21
-5.95
0
LINE
8
BLACK
6
CONTINUOUS
10
7.84431
20
-5.95
11
7.84383
21
-5.96536
0
LINE
8
BLACK
6
CONTINUOUS
10
7.84383
20
-5.96536
11
7.84383
21
-5.96537
0
LINE
8
BLACK
6
CONTINUOUS
10
7.84383
20
-5.96537
11
7.84382
21
-5.96546
0
LINE
8
BLACK
6
CONTINUOUS
10
7.84382
20
-5.96546
11
7.8438
21
-5.96555
0
LINE
8
BLACK
6
CONTINUOUS
10
7.8438
20
-5.96555
11
7.84035
21
-5.98052
0
LINE
8
BLACK
6
CONTINUOUS
10
7.84035
20
-5.98052
11
7.84034
21
-5.98053
0
LINE
8
BLACK
6
CONTINUOUS
10
7.84034
20
-5.98053
11
7.84031
21
-5.98062
0
LINE
8
BLACK
6
CONTINUOUS
10
7.84031
20
-5.98062
11
7.84029
21
-5.9807
0
LINE
8
BLACK
6
CONTINUOUS
10
7.84029
20
-5.9807
11
7.83399
21
-5.99472
0
LINE
8
BLACK
6
CONTINUOUS
10
7.83399
20
-5.99472
11
7.83398
21
-5.99473
0
LINE
8
BLACK
6
CONTINUOUS
10
7.83398
20
-5.99473
11
7.83393
21
-5.99481
0
LINE
8
BLACK
6
CONTINUOUS
10
7.83393
20
-5.99481
11
7.83389
21
-5.99489
0
LINE
8
BLACK
6
CONTINUOUS
10
7.83389
20
-5.99489
11
7.82499
21
-6.00741
0
LINE
8
BLACK
6
CONTINUOUS
10
7.82499
20
-6.00741
11
7.82499
21
-6.00741
0
LINE
8
BLACK
6
CONTINUOUS
10
7.82499
20
-6.00741
11
7.82499
21
-6.00741
0
LINE
8
BLACK
6
CONTINUOUS
10
7.82499
20
-6.00741
11
7.82498
21
-6.00742
0
LINE
8
BLACK
6
CONTINUOUS
10
7.82498
20
-6.00742
11
7.82492
21
-6.00749
0
LINE
8
BLACK
6
CONTINUOUS
10
7.82492
20
-6.00749
11
7.82486
21
-6.00756
0
LINE
8
BLACK
6
CONTINUOUS
10
7.82486
20
-6.00756
11
7.8137
21
-6.01812
0
LINE
8
BLACK
6
CONTINUOUS
10
7.8137
20
-6.01812
11
7.8137
21
-6.01812
0
LINE
8
BLACK
6
CONTINUOUS
10
7.8137
20
-6.01812
11
7.8137
21
-6.01812
0
LINE
8
BLACK
6
CONTINUOUS
10
7.8137
20
-6.01812
11
7.81369
21
-6.01813
0
LINE
8
BLACK
6
CONTINUOUS
10
7.81369
20
-6.01813
11
7.81362
21
-6.01818
0
LINE
8
BLACK
6
CONTINUOUS
10
7.81362
20
-6.01818
11
7.81355
21
-6.01823
0
LINE
8
BLACK
6
CONTINUOUS
10
7.81355
20
-6.01823
11
7.80054
21
-6.02642
0
LINE
8
BLACK
6
CONTINUOUS
10
7.80054
20
-6.02642
11
7.80053
21
-6.02643
0
LINE
8
BLACK
6
CONTINUOUS
10
7.80053
20
-6.02643
11
7.80045
21
-6.02647
0
LINE
8
BLACK
6
CONTINUOUS
10
7.80045
20
-6.02647
11
7.80037
21
-6.02651
0
LINE
8
BLACK
6
CONTINUOUS
10
7.80037
20
-6.02651
11
7.78602
21
-6.03202
0
LINE
8
BLACK
6
CONTINUOUS
10
7.78602
20
-6.03202
11
7.78601
21
-6.03202
0
LINE
8
BLACK
6
CONTINUOUS
10
7.78601
20
-6.03202
11
7.78597
21
-6.03203
0
LINE
8
BLACK
6
CONTINUOUS
10
7.78597
20
-6.03203
11
7.78593
21
-6.03205
0
LINE
8
BLACK
6
CONTINUOUS
10
7.78593
20
-6.03205
11
7.78544
21
-6.03218
0
LINE
8
BLACK
6
CONTINUOUS
10
7.78544
20
-6.03218
11
7.78544
21
-6.03218
0
LINE
8
BLACK
6
CONTINUOUS
10
7.78544
20
-6.03218
11
7.78543
21
-6.03218
0
LINE
8
BLACK
6
CONTINUOUS
10
7.78543
20
-6.03218
11
7.7854
21
-6.03219
0
LINE
8
BLACK
6
CONTINUOUS
10
7.7854
20
-6.03219
11
7.78538
21
-6.0322
0
LINE
8
BLACK
6
CONTINUOUS
10
7.78538
20
-6.0322
11
7.78538
21
-6.0322
0
LINE
8
BLACK
6
CONTINUOUS
10
7.78538
20
-6.0322
11
7.253
21
-6.17485
0
LINE
8
BLACK
6
CONTINUOUS
10
7.253
20
-6.17485
11
7.253
21
-6.17485
0
LINE
8
BLACK
6
CONTINUOUS
10
7.253
20
-6.17485
11
7.25252
21
-6.17498
0
LINE
8
BLACK
6
CONTINUOUS
10
7.25252
20
-6.17498
11
7.23831
21
-6.18043
0
LINE
8
BLACK
6
CONTINUOUS
10
7.23831
20
-6.18043
11
7.22546
21
-6.18852
0
LINE
8
BLACK
6
CONTINUOUS
10
7.22546
20
-6.18852
11
7.21444
21
-6.19895
0
LINE
8
BLACK
6
CONTINUOUS
10
7.21444
20
-6.19895
11
7.20565
21
-6.21132
0
LINE
8
BLACK
6
CONTINUOUS
10
7.20565
20
-6.21132
11
7.19943
21
-6.22516
0
LINE
8
BLACK
6
CONTINUOUS
10
7.19943
20
-6.22516
11
7.19602
21
-6.23994
0
LINE
8
BLACK
6
CONTINUOUS
10
7.19602
20
-6.23994
11
7.19554
21
-6.25511
0
LINE
8
BLACK
6
CONTINUOUS
10
7.19554
20
-6.25511
11
7.19803
21
-6.27017
0
LINE
8
BLACK
6
CONTINUOUS
10
7.19803
20
-6.27017
11
7.19803
21
-6.27017
0
LINE
8
BLACK
6
CONTINUOUS
10
7.19803
20
-6.27017
11
7.20054
21
-6.28534
0
LINE
8
BLACK
6
CONTINUOUS
10
7.20054
20
-6.28534
11
7.20055
21
-6.28535
0
LINE
8
BLACK
6
CONTINUOUS
10
7.20055
20
-6.28535
11
7.20055
21
-6.28544
0
LINE
8
BLACK
6
CONTINUOUS
10
7.20055
20
-6.28544
11
7.20056
21
-6.28553
0
LINE
8
BLACK
6
CONTINUOUS
10
7.20056
20
-6.28553
11
7.20007
21
-6.30089
0
LINE
8
BLACK
6
CONTINUOUS
10
7.20007
20
-6.30089
11
7.20007
21
-6.3009
0
LINE
8
BLACK
6
CONTINUOUS
10
7.20007
20
-6.3009
11
7.20006
21
-6.30099
0
LINE
8
BLACK
6
CONTINUOUS
10
7.20006
20
-6.30099
11
7.20005
21
-6.30108
0
LINE
8
BLACK
6
CONTINUOUS
10
7.20005
20
-6.30108
11
7.19659
21
-6.31605
0
LINE
8
BLACK
6
CONTINUOUS
10
7.19659
20
-6.31605
11
7.19659
21
-6.31606
0
LINE
8
BLACK
6
CONTINUOUS
10
7.19659
20
-6.31606
11
7.19656
21
-6.31615
0
LINE
8
BLACK
6
CONTINUOUS
10
7.19656
20
-6.31615
11
7.19653
21
-6.31623
0
LINE
8
BLACK
6
CONTINUOUS
10
7.19653
20
-6.31623
11
7.19023
21
-6.33025
0
LINE
8
BLACK
6
CONTINUOUS
10
7.19023
20
-6.33025
11
7.19023
21
-6.33026
0
LINE
8
BLACK
6
CONTINUOUS
10
7.19023
20
-6.33026
11
7.19018
21
-6.33034
0
LINE
8
BLACK
6
CONTINUOUS
10
7.19018
20
-6.33034
11
7.19014
21
-6.33042
0
LINE
8
BLACK
6
CONTINUOUS
10
7.19014
20
-6.33042
11
7.18123
21
-6.34294
0
LINE
8
BLACK
6
CONTINUOUS
10
7.18123
20
-6.34294
11
7.18123
21
-6.34294
0
LINE
8
BLACK
6
CONTINUOUS
10
7.18123
20
-6.34294
11
7.18123
21
-6.34294
0
LINE
8
BLACK
6
CONTINUOUS
10
7.18123
20
-6.34294
11
7.18123
21
-6.34295
0
LINE
8
BLACK
6
CONTINUOUS
10
7.18123
20
-6.34295
11
7.18117
21
-6.34302
0
LINE
8
BLACK
6
CONTINUOUS
10
7.18117
20
-6.34302
11
7.18111
21
-6.34309
0
LINE
8
BLACK
6
CONTINUOUS
10
7.18111
20
-6.34309
11
7.16994
21
-6.35365
0
LINE
8
BLACK
6
CONTINUOUS
10
7.16994
20
-6.35365
11
7.16994
21
-6.35365
0
LINE
8
BLACK
6
CONTINUOUS
10
7.16994
20
-6.35365
11
7.16994
21
-6.35365
0
LINE
8
BLACK
6
CONTINUOUS
10
7.16994
20
-6.35365
11
7.16993
21
-6.35366
0
LINE
8
BLACK
6
CONTINUOUS
10
7.16993
20
-6.35366
11
7.16986
21
-6.35371
0
LINE
8
BLACK
6
CONTINUOUS
10
7.16986
20
-6.35371
11
7.16979
21
-6.35376
0
LINE
8
BLACK
6
CONTINUOUS
10
7.16979
20
-6.35376
11
7.15679
21
-6.36195
0
LINE
8
BLACK
6
CONTINUOUS
10
7.15679
20
-6.36195
11
7.15677
21
-6.36196
0
LINE
8
BLACK
6
CONTINUOUS
10
7.15677
20
-6.36196
11
7.15669
21
-6.362
0
LINE
8
BLACK
6
CONTINUOUS
10
7.15669
20
-6.362
11
7.15661
21
-6.36204
0
LINE
8
BLACK
6
CONTINUOUS
10
7.15661
20
-6.36204
11
7.14227
21
-6.36755
0
LINE
8
BLACK
6
CONTINUOUS
10
7.14227
20
-6.36755
11
7.14225
21
-6.36755
0
LINE
8
BLACK
6
CONTINUOUS
10
7.14225
20
-6.36755
11
7.14221
21
-6.36756
0
LINE
8
BLACK
6
CONTINUOUS
10
7.14221
20
-6.36756
11
7.14217
21
-6.36758
0
LINE
8
BLACK
6
CONTINUOUS
10
7.14217
20
-6.36758
11
7.14169
21
-6.36771
0
LINE
8
BLACK
6
CONTINUOUS
10
7.14169
20
-6.36771
11
7.14169
21
-6.36771
0
LINE
8
BLACK
6
CONTINUOUS
10
7.14169
20
-6.36771
11
6.60919
21
-6.51039
0
LINE
8
BLACK
6
CONTINUOUS
10
6.60919
20
-6.51039
11
6.60915
21
-6.5104
0
LINE
8
BLACK
6
CONTINUOUS
10
6.60915
20
-6.5104
11
6.60915
21
-6.5104
0
LINE
8
BLACK
6
CONTINUOUS
10
6.60915
20
-6.5104
11
6.45794
21
-6.53561
0
LINE
8
BLACK
6
CONTINUOUS
10
6.45794
20
-6.53561
11
6.45793
21
-6.53561
0
LINE
8
BLACK
6
CONTINUOUS
10
6.45793
20
-6.53561
11
6.45792
21
-6.53561
0
LINE
8
BLACK
6
CONTINUOUS
10
6.45792
20
-6.53561
11
6.4579
21
-6.53561
0
LINE
8
BLACK
6
CONTINUOUS
10
6.4579
20
-6.53561
11
6.30581
21
-6.55473
0
LINE
8
BLACK
6
CONTINUOUS
10
6.30581
20
-6.55473
11
6.3058
21
-6.55473
0
LINE
8
BLACK
6
CONTINUOUS
10
6.3058
20
-6.55473
11
6.30579
21
-6.55473
0
LINE
8
BLACK
6
CONTINUOUS
10
6.30579
20
-6.55473
11
6.30577
21
-6.55474
0
LINE
8
BLACK
6
CONTINUOUS
10
6.30577
20
-6.55474
11
6.15304
21
-6.56774
0
LINE
8
BLACK
6
CONTINUOUS
10
6.15304
20
-6.56774
11
6.15303
21
-6.56774
0
LINE
8
BLACK
6
CONTINUOUS
10
6.15303
20
-6.56774
11
6.15301
21
-6.56774
0
LINE
8
BLACK
6
CONTINUOUS
10
6.15301
20
-6.56774
11
6.153
21
-6.56774
0
LINE
8
BLACK
6
CONTINUOUS
10
6.153
20
-6.56774
11
5.99986
21
-6.5746
0
LINE
8
BLACK
6
CONTINUOUS
10
5.99986
20
-6.5746
11
5.99985
21
-6.5746
0
LINE
8
BLACK
6
CONTINUOUS
10
5.99985
20
-6.5746
11
5.99984
21
-6.5746
0
LINE
8
BLACK
6
CONTINUOUS
10
5.99984
20
-6.5746
11
5.99982
21
-6.5746
0
LINE
8
BLACK
6
CONTINUOUS
10
5.99982
20
-6.5746
11
5.84653
21
-6.57531
0
LINE
8
BLACK
6
CONTINUOUS
10
5.84653
20
-6.57531
11
5.84652
21
-6.57531
0
LINE
8
BLACK
6
CONTINUOUS
10
5.84652
20
-6.57531
11
5.84651
21
-6.57531
0
LINE
8
BLACK
6
CONTINUOUS
10
5.84651
20
-6.57531
11
5.84649
21
-6.57531
0
LINE
8
BLACK
6
CONTINUOUS
10
5.84649
20
-6.57531
11
5.6933
21
-6.56987
0
LINE
8
BLACK
6
CONTINUOUS
10
5.6933
20
-6.56987
11
5.69329
21
-6.56986
0
LINE
8
BLACK
6
CONTINUOUS
10
5.69329
20
-6.56986
11
5.69328
21
-6.56986
0
LINE
8
BLACK
6
CONTINUOUS
10
5.69328
20
-6.56986
11
5.69326
21
-6.56986
0
LINE
8
BLACK
6
CONTINUOUS
10
5.69326
20
-6.56986
11
5.54041
21
-6.55828
0
LINE
8
BLACK
6
CONTINUOUS
10
5.54041
20
-6.55828
11
5.54041
21
-6.55828
0
LINE
8
BLACK
6
CONTINUOUS
10
5.54041
20
-6.55828
11
5.54041
21
-6.55828
0
LINE
8
BLACK
6
CONTINUOUS
10
5.54041
20
-6.55828
11
5.5404
21
-6.55828
0
LINE
8
BLACK
6
CONTINUOUS
10
5.5404
20
-6.55828
11
5.54039
21
-6.55827
0
LINE
8
BLACK
6
CONTINUOUS
10
5.54039
20
-6.55827
11
5.54037
21
-6.55827
0
LINE
8
BLACK
6
CONTINUOUS
10
5.54037
20
-6.55827
11
5.38811
21
-6.54056
0
LINE
8
BLACK
6
CONTINUOUS
10
5.38811
20
-6.54056
11
5.3881
21
-6.54056
0
LINE
8
BLACK
6
CONTINUOUS
10
5.3881
20
-6.54056
11
5.38809
21
-6.54056
0
LINE
8
BLACK
6
CONTINUOUS
10
5.38809
20
-6.54056
11
5.38807
21
-6.54056
0
LINE
8
BLACK
6
CONTINUOUS
10
5.38807
20
-6.54056
11
5.23664
21
-6.51675
0
LINE
8
BLACK
6
CONTINUOUS
10
5.23664
20
-6.51675
11
5.23663
21
-6.51675
0
LINE
8
BLACK
6
CONTINUOUS
10
5.23663
20
-6.51675
11
5.23662
21
-6.51674
0
LINE
8
BLACK
6
CONTINUOUS
10
5.23662
20
-6.51674
11
5.23662
21
-6.51674
0
LINE
8
BLACK
6
CONTINUOUS
10
5.23662
20
-6.51674
11
5.20187
21
-6.5104
0
LINE
8
BLACK
6
CONTINUOUS
10
5.20187
20
-6.5104
11
5.20183
21
-6.51039
0
LINE
8
BLACK
6
CONTINUOUS
10
5.20183
20
-6.51039
11
4.66934
21
-6.36771
0
LINE
8
BLACK
6
CONTINUOUS
10
4.66934
20
-6.36771
11
4.66929
21
-6.36769
0
LINE
8
BLACK
6
CONTINUOUS
10
4.66929
20
-6.36769
11
4.66929
21
-6.36769
0
LINE
8
BLACK
6
CONTINUOUS
10
4.66929
20
-6.36769
11
4.65491
21
-6.36229
0
LINE
8
BLACK
6
CONTINUOUS
10
4.65491
20
-6.36229
11
4.65491
21
-6.36229
0
LINE
8
BLACK
6
CONTINUOUS
10
4.65491
20
-6.36229
11
4.65491
21
-6.36229
0
LINE
8
BLACK
6
CONTINUOUS
10
4.65491
20
-6.36229
11
4.6549
21
-6.36228
0
LINE
8
BLACK
6
CONTINUOUS
10
4.6549
20
-6.36228
11
4.65481
21
-6.36224
0
LINE
8
BLACK
6
CONTINUOUS
10
4.65481
20
-6.36224
11
4.65474
21
-6.3622
0
LINE
8
BLACK
6
CONTINUOUS
10
4.65474
20
-6.3622
11
4.64168
21
-6.3541
0
LINE
8
BLACK
6
CONTINUOUS
10
4.64168
20
-6.3541
11
4.64168
21
-6.3541
0
LINE
8
BLACK
6
CONTINUOUS
10
4.64168
20
-6.3541
11
4.64168
21
-6.3541
0
LINE
8
BLACK
6
CONTINUOUS
10
4.64168
20
-6.3541
11
4.64166
21
-6.3541
0
LINE
8
BLACK
6
CONTINUOUS
10
4.64166
20
-6.3541
11
4.64159
21
-6.35404
0
LINE
8
BLACK
6
CONTINUOUS
10
4.64159
20
-6.35404
11
4.64152
21
-6.35399
0
LINE
8
BLACK
6
CONTINUOUS
10
4.64152
20
-6.35399
11
4.63028
21
-6.34351
0
LINE
8
BLACK
6
CONTINUOUS
10
4.63028
20
-6.34351
11
4.63027
21
-6.3435
0
LINE
8
BLACK
6
CONTINUOUS
10
4.63027
20
-6.3435
11
4.63022
21
-6.34343
0
LINE
8
BLACK
6
CONTINUOUS
10
4.63022
20
-6.34343
11
4.63016
21
-6.34336
0
LINE
8
BLACK
6
CONTINUOUS
10
4.63016
20
-6.34336
11
4.62117
21
-6.3309
0
LINE
8
BLACK
6
CONTINUOUS
10
4.62117
20
-6.3309
11
4.62116
21
-6.33089
0
LINE
8
BLACK
6
CONTINUOUS
10
4.62116
20
-6.33089
11
4.62112
21
-6.33081
0
LINE
8
BLACK
6
CONTINUOUS
10
4.62112
20
-6.33081
11
4.62107
21
-6.33073
0
LINE
8
BLACK
6
CONTINUOUS
10
4.62107
20
-6.33073
11
4.61467
21
-6.31676
0
LINE
8
BLACK
6
CONTINUOUS
10
4.61467
20
-6.31676
11
4.61467
21
-6.31675
0
LINE
8
BLACK
6
CONTINUOUS
10
4.61467
20
-6.31675
11
4.61464
21
-6.31666
0
LINE
8
BLACK
6
CONTINUOUS
10
4.61464
20
-6.31666
11
4.61461
21
-6.31658
0
LINE
8
BLACK
6
CONTINUOUS
10
4.61461
20
-6.31658
11
4.61105
21
-6.30163
0
LINE
8
BLACK
6
CONTINUOUS
10
4.61105
20
-6.30163
11
4.61105
21
-6.30163
0
LINE
8
BLACK
6
CONTINUOUS
10
4.61105
20
-6.30163
11
4.61105
21
-6.30163
0
LINE
8
BLACK
6
CONTINUOUS
10
4.61105
20
-6.30163
11
4.61105
21
-6.30162
0
LINE
8
BLACK
6
CONTINUOUS
10
4.61105
20
-6.30162
11
4.61104
21
-6.30153
0
LINE
8
BLACK
6
CONTINUOUS
10
4.61104
20
-6.30153
11
4.61102
21
-6.30144
0
LINE
8
BLACK
6
CONTINUOUS
10
4.61102
20
-6.30144
11
4.61043
21
-6.28608
0
LINE
8
BLACK
6
CONTINUOUS
10
4.61043
20
-6.28608
11
4.61043
21
-6.28607
0
LINE
8
BLACK
6
CONTINUOUS
10
4.61043
20
-6.28607
11
4.61044
21
-6.28598
0
LINE
8
BLACK
6
CONTINUOUS
10
4.61044
20
-6.28598
11
4.61045
21
-6.28589
0
LINE
8
BLACK
6
CONTINUOUS
10
4.61045
20
-6.28589
11
4.61285
21
-6.27071
0
LINE
8
BLACK
6
CONTINUOUS
10
4.61285
20
-6.27071
11
4.61285
21
-6.2707
0
LINE
8
BLACK
6
CONTINUOUS
10
4.61285
20
-6.2707
11
4.61286
21
-6.27066
0
LINE
8
BLACK
6
CONTINUOUS
10
4.61286
20
-6.27066
11
4.61287
21
-6.27062
0
LINE
8
BLACK
6
CONTINUOUS
10
4.61287
20
-6.27062
11
4.61301
21
-6.27009
0
LINE
8
BLACK
6
CONTINUOUS
10
4.61301
20
-6.27009
11
4.61301
21
-6.27008
0
LINE
8
BLACK
6
CONTINUOUS
10
4.61301
20
-6.27008
11
4.61314
21
-6.2696
0
LINE
8
BLACK
6
CONTINUOUS
10
4.61314
20
-6.2696
11
4.61552
21
-6.25457
0
LINE
8
BLACK
6
CONTINUOUS
10
4.61552
20
-6.25457
11
4.61494
21
-6.2394
0
LINE
8
BLACK
6
CONTINUOUS
10
4.61494
20
-6.2394
11
4.61142
21
-6.22464
0
LINE
8
BLACK
6
CONTINUOUS
10
4.61142
20
-6.22464
11
4.6051
21
-6.21085
0
LINE
8
BLACK
6
CONTINUOUS
10
4.6051
20
-6.21085
11
4.59623
21
-6.19854
0
LINE
8
BLACK
6
CONTINUOUS
10
4.59623
20
-6.19854
11
4.58513
21
-6.18819
0
LINE
8
BLACK
6
CONTINUOUS
10
4.58513
20
-6.18819
11
4.57223
21
-6.18019
0
LINE
8
BLACK
6
CONTINUOUS
10
4.57223
20
-6.18019
11
4.55798
21
-6.17484
0
LINE
8
BLACK
6
CONTINUOUS
10
4.55798
20
-6.17484
11
4.02558
21
-6.03218
0
LINE
8
BLACK
6
CONTINUOUS
10
4.02558
20
-6.03218
11
4.02554
21
-6.03216
0
LINE
8
BLACK
6
CONTINUOUS
10
4.02554
20
-6.03216
11
4.02554
21
-6.03216
0
LINE
8
BLACK
6
CONTINUOUS
10
4.02554
20
-6.03216
11
4.01115
21
-6.02676
0
LINE
8
BLACK
6
CONTINUOUS
10
4.01115
20
-6.02676
11
4.01115
21
-6.02676
0
LINE
8
BLACK
6
CONTINUOUS
10
4.01115
20
-6.02676
11
4.01115
21
-6.02676
0
LINE
8
BLACK
6
CONTINUOUS
10
4.01115
20
-6.02676
11
4.01114
21
-6.02675
0
LINE
8
BLACK
6
CONTINUOUS
10
4.01114
20
-6.02675
11
4.01106
21
-6.02671
0
LINE
8
BLACK
6
CONTINUOUS
10
4.01106
20
-6.02671
11
4.01098
21
-6.02667
0
LINE
8
BLACK
6
CONTINUOUS
10
4.01098
20
-6.02667
11
3.99792
21
-6.01857
0
LINE
8
BLACK
6
CONTINUOUS
10
3.99792
20
-6.01857
11
3.99792
21
-6.01857
0
LINE
8
BLACK
6
CONTINUOUS
10
3.99792
20
-6.01857
11
3.99792
21
-6.01857
0
LINE
8
BLACK
6
CONTINUOUS
10
3.99792
20
-6.01857
11
3.99791
21
-6.01857
0
LINE
8
BLACK
6
CONTINUOUS
10
3.99791
20
-6.01857
11
3.99784
21
-6.01851
0
LINE
8
BLACK
6
CONTINUOUS
10
3.99784
20
-6.01851
11
3.99777
21
-6.01846
0
LINE
8
BLACK
6
CONTINUOUS
10
3.99777
20
-6.01846
11
3.98653
21
-6.00798
0
LINE
8
BLACK
6
CONTINUOUS
10
3.98653
20
-6.00798
11
3.98652
21
-6.00797
0
LINE
8
BLACK
6
CONTINUOUS
10
3.98652
20
-6.00797
11
3.98646
21
-6.0079
0
LINE
8
BLACK
6
CONTINUOUS
10
3.98646
20
-6.0079
11
3.9864
21
-6.00783
0
LINE
8
BLACK
6
CONTINUOUS
10
3.9864
20
-6.00783
11
3.97741
21
-5.99537
0
LINE
8
BLACK
6
CONTINUOUS
10
3.97741
20
-5.99537
11
3.9774
21
-5.99536
0
LINE
8
BLACK
6
CONTINUOUS
10
3.9774
20
-5.99536
11
3.97736
21
-5.99528
0
LINE
8
BLACK
6
CONTINUOUS
10
3.97736
20
-5.99528
11
3.97732
21
-5.9952
0
LINE
8
BLACK
6
CONTINUOUS
10
3.97732
20
-5.9952
11
3.97092
21
-5.98123
0
LINE
8
BLACK
6
CONTINUOUS
10
3.97092
20
-5.98123
11
3.97091
21
-5.98122
0
LINE
8
BLACK
6
CONTINUOUS
10
3.97091
20
-5.98122
11
3.97088
21
-5.98113
0
LINE
8
BLACK
6
CONTINUOUS
10
3.97088
20
-5.98113
11
3.97086
21
-5.98105
0
LINE
8
BLACK
6
CONTINUOUS
10
3.97086
20
-5.98105
11
3.96729
21
-5.9661
0
LINE
8
BLACK
6
CONTINUOUS
10
3.96729
20
-5.9661
11
3.96729
21
-5.9661
0
LINE
8
BLACK
6
CONTINUOUS
10
3.96729
20
-5.9661
11
3.96729
21
-5.9661
0
LINE
8
BLACK
6
CONTINUOUS
10
3.96729
20
-5.9661
11
3.96729
21
-5.96609
0
LINE
8
BLACK
6
CONTINUOUS
10
3.96729
20
-5.96609
11
3.96728
21
-5.966
0
LINE
8
BLACK
6
CONTINUOUS
10
3.96728
20
-5.966
11
3.96727
21
-5.96591
0
LINE
8
BLACK
6
CONTINUOUS
10
3.96727
20
-5.96591
11
3.96668
21
-5.95055
0
LINE
8
BLACK
6
CONTINUOUS
10
3.96668
20
-5.95055
11
3.96668
21
-5.95054
0
LINE
8
BLACK
6
CONTINUOUS
10
3.96668
20
-5.95054
11
3.96668
21
-5.95045
0
LINE
8
BLACK
6
CONTINUOUS
10
3.96668
20
-5.95045
11
3.96669
21
-5.95036
0
LINE
8
BLACK
6
CONTINUOUS
10
3.96669
20
-5.95036
11
3.96909
21
-5.93518
0
LINE
8
BLACK
6
CONTINUOUS
10
3.96909
20
-5.93518
11
3.9691
21
-5.93517
0
LINE
8
BLACK
6
CONTINUOUS
10
3.9691
20
-5.93517
11
3.96911
21
-5.93513
0
LINE
8
BLACK
6
CONTINUOUS
10
3.96911
20
-5.93513
11
3.96911
21
-5.93509
0
LINE
8
BLACK
6
CONTINUOUS
10
3.96911
20
-5.93509
11
3.96925
21
-5.93456
0
LINE
8
BLACK
6
CONTINUOUS
10
3.96925
20
-5.93456
11
3.96925
21
-5.93455
0
LINE
8
BLACK
6
CONTINUOUS
10
3.96925
20
-5.93455
11
3.96938
21
-5.93407
0
LINE
8
BLACK
6
CONTINUOUS
10
3.96938
20
-5.93407
11
3.97176
21
-5.91904
0
LINE
8
BLACK
6
CONTINUOUS
10
3.97176
20
-5.91904
11
3.97118
21
-5.90387
0
LINE
8
BLACK
6
CONTINUOUS
10
3.97118
20
-5.90387
11
3.96766
21
-5.88911
0
LINE
8
BLACK
6
CONTINUOUS
10
3.96766
20
-5.88911
11
3.96135
21
-5.87532
0
LINE
8
BLACK
6
CONTINUOUS
10
3.96135
20
-5.87532
11
3.95247
21
-5.86301
0
LINE
8
BLACK
6
CONTINUOUS
10
3.95247
20
-5.86301
11
3.94137
21
-5.85266
0
LINE
8
BLACK
6
CONTINUOUS
10
3.94137
20
-5.85266
11
3.92848
21
-5.84466
0
LINE
8
BLACK
6
CONTINUOUS
10
3.92848
20
-5.84466
11
3.91422
21
-5.83931
0
LINE
8
BLACK
6
CONTINUOUS
10
3.91422
20
-5.83931
11
3.38183
21
-5.69665
0
LINE
8
BLACK
6
CONTINUOUS
10
3.38183
20
-5.69665
11
3.38178
21
-5.69663
0
LINE
8
BLACK
6
CONTINUOUS
10
3.38178
20
-5.69663
11
3.38178
21
-5.69663
0
LINE
8
BLACK
6
CONTINUOUS
10
3.38178
20
-5.69663
11
3.3674
21
-5.69123
0
LINE
8
BLACK
6
CONTINUOUS
10
3.3674
20
-5.69123
11
3.3674
21
-5.69123
0
LINE
8
BLACK
6
CONTINUOUS
10
3.3674
20
-5.69123
11
3.3674
21
-5.69123
0
LINE
8
BLACK
6
CONTINUOUS
10
3.3674
20
-5.69123
11
3.36738
21
-5.69122
0
LINE
8
BLACK
6
CONTINUOUS
10
3.36738
20
-5.69122
11
3.3673
21
-5.69118
0
LINE
8
BLACK
6
CONTINUOUS
10
3.3673
20
-5.69118
11
3.36722
21
-5.69114
0
LINE
8
BLACK
6
CONTINUOUS
10
3.36722
20
-5.69114
11
3.35416
21
-5.68304
0
LINE
8
BLACK
6
CONTINUOUS
10
3.35416
20
-5.68304
11
3.35416
21
-5.68304
0
LINE
8
BLACK
6
CONTINUOUS
10
3.35416
20
-5.68304
11
3.35416
21
-5.68304
0
LINE
8
BLACK
6
CONTINUOUS
10
3.35416
20
-5.68304
11
3.35415
21
-5.68304
0
LINE
8
BLACK
6
CONTINUOUS
10
3.35415
20
-5.68304
11
3.35408
21
-5.68298
0
LINE
8
BLACK
6
CONTINUOUS
10
3.35408
20
-5.68298
11
3.35401
21
-5.68293
0
LINE
8
BLACK
6
CONTINUOUS
10
3.35401
20
-5.68293
11
3.34277
21
-5.67245
0
LINE
8
BLACK
6
CONTINUOUS
10
3.34277
20
-5.67245
11
3.34276
21
-5.67244
0
LINE
8
BLACK
6
CONTINUOUS
10
3.34276
20
-5.67244
11
3.3427
21
-5.67237
0
LINE
8
BLACK
6
CONTINUOUS
10
3.3427
20
-5.67237
11
3.34265
21
-5.6723
0
LINE
8
BLACK
6
CONTINUOUS
10
3.34265
20
-5.6723
11
3.33366
21
-5.65984
0
LINE
8
BLACK
6
CONTINUOUS
10
3.33366
20
-5.65984
11
3.33365
21
-5.65983
0
LINE
8
BLACK
6
CONTINUOUS
10
3.33365
20
-5.65983
11
3.3336
21
-5.65975
0
LINE
8
BLACK
6
CONTINUOUS
10
3.3336
20
-5.65975
11
3.33356
21
-5.65967
0
LINE
8
BLACK
6
CONTINUOUS
10
3.33356
20
-5.65967
11
3.32716
21
-5.6457
0
LINE
8
BLACK
6
CONTINUOUS
10
3.32716
20
-5.6457
11
3.32716
21
-5.64569
0
LINE
8
BLACK
6
CONTINUOUS
10
3.32716
20
-5.64569
11
3.32713
21
-5.6456
0
LINE
8
BLACK
6
CONTINUOUS
10
3.32713
20
-5.6456
11
3.3271
21
-5.64552
0
LINE
8
BLACK
6
CONTINUOUS
10
3.3271
20
-5.64552
11
3.32354
21
-5.63057
0
LINE
8
BLACK
6
CONTINUOUS
10
3.32354
20
-5.63057
11
3.32354
21
-5.63057
0
LINE
8
BLACK
6
CONTINUOUS
10
3.32354
20
-5.63057
11
3.32354
21
-5.63057
0
LINE
8
BLACK
6
CONTINUOUS
10
3.32354
20
-5.63057
11
3.32354
21
-5.63056
0
LINE
8
BLACK
6
CONTINUOUS
10
3.32354
20
-5.63056
11
3.32352
21
-5.63047
0
LINE
8
BLACK
6
CONTINUOUS
10
3.32352
20
-5.63047
11
3.32351
21
-5.63038
0
LINE
8
BLACK
6
CONTINUOUS
10
3.32351
20
-5.63038
11
3.32292
21
-5.61502
0
LINE
8
BLACK
6
CONTINUOUS
10
3.32292
20
-5.61502
11
3.32292
21
-5.61501
0
LINE
8
BLACK
6
CONTINUOUS
10
3.32292
20
-5.61501
11
3.32293
21
-5.61492
0
LINE
8
BLACK
6
CONTINUOUS
10
3.32293
20
-5.61492
11
3.32293
21
-5.61483
0
LINE
8
BLACK
6
CONTINUOUS
10
3.32293
20
-5.61483
11
3.32534
21
-5.59965
0
LINE
8
BLACK
6
CONTINUOUS
10
3.32534
20
-5.59965
11
3.32534
21
-5.59964
0
LINE
8
BLACK
6
CONTINUOUS
10
3.32534
20
-5.59964
11
3.32535
21
-5.5996
0
LINE
8
BLACK
6
CONTINUOUS
10
3.32535
20
-5.5996
11
3.32536
21
-5.59956
0
LINE
8
BLACK
6
CONTINUOUS
10
3.32536
20
-5.59956
11
3.3255
21
-5.59903
0
LINE
8
BLACK
6
CONTINUOUS
10
3.3255
20
-5.59903
11
3.3255
21
-5.59902
0
LINE
8
BLACK
6
CONTINUOUS
10
3.3255
20
-5.59902
11
3.32563
21
-5.59854
0
LINE
8
BLACK
6
CONTINUOUS
10
3.32563
20
-5.59854
11
3.32801
21
-5.58351
0
LINE
8
BLACK
6
CONTINUOUS
10
3.32801
20
-5.58351
11
3.32743
21
-5.56834
0
LINE
8
BLACK
6
CONTINUOUS
10
3.32743
20
-5.56834
11
3.32391
21
-5.55358
0
LINE
8
BLACK
6
CONTINUOUS
10
3.32391
20
-5.55358
11
3.31759
21
-5.53979
0
LINE
8
BLACK
6
CONTINUOUS
10
3.31759
20
-5.53979
11
3.30872
21
-5.52748
0
LINE
8
BLACK
6
CONTINUOUS
10
3.30872
20
-5.52748
11
3.29762
21
-5.51713
0
LINE
8
BLACK
6
CONTINUOUS
10
3.29762
20
-5.51713
11
3.28472
21
-5.50913
0
LINE
8
BLACK
6
CONTINUOUS
10
3.28472
20
-5.50913
11
3.27047
21
-5.50378
0
LINE
8
BLACK
6
CONTINUOUS
10
3.27047
20
-5.50378
11
2.89024
21
-5.40189
0
LINE
8
BLACK
6
CONTINUOUS
10
2.89024
20
-5.40189
11
2.89024
21
-5.40189
0
LINE
8
BLACK
6
CONTINUOUS
10
2.89024
20
-5.40189
11
2.88975
21
-5.40177
0
LINE
8
BLACK
6
CONTINUOUS
10
2.88975
20
-5.40177
11
2.87472
21
-5.39939
0
LINE
8
BLACK
6
CONTINUOUS
10
2.87472
20
-5.39939
11
2.85956
21
-5.39997
0
LINE
8
BLACK
6
CONTINUOUS
10
2.85956
20
-5.39997
11
2.84479
21
-5.40348
0
LINE
8
BLACK
6
CONTINUOUS
10
2.84479
20
-5.40348
11
2.831
21
-5.4098
0
LINE
8
BLACK
6
CONTINUOUS
10
2.831
20
-5.4098
11
2.81869
21
-5.41868
0
LINE
8
BLACK
6
CONTINUOUS
10
2.81869
20
-5.41868
11
2.80834
21
-5.42978
0
LINE
8
BLACK
6
CONTINUOUS
10
2.80834
20
-5.42978
11
2.80034
21
-5.44267
0
LINE
8
BLACK
6
CONTINUOUS
10
2.80034
20
-5.44267
11
2.79497
21
-5.45697
0
LINE
8
BLACK
6
CONTINUOUS
10
2.79497
20
-5.45697
11
2.78956
21
-5.47135
0
LINE
8
BLACK
6
CONTINUOUS
10
2.78956
20
-5.47135
11
2.78956
21
-5.47135
0
LINE
8
BLACK
6
CONTINUOUS
10
2.78956
20
-5.47135
11
2.78956
21
-5.47135
0
LINE
8
BLACK
6
CONTINUOUS
10
2.78956
20
-5.47135
11
2.78956
21
-5.47136
0
LINE
8
BLACK
6
CONTINUOUS
10
2.78956
20
-5.47136
11
2.78952
21
-5.47145
0
LINE
8
BLACK
6
CONTINUOUS
10
2.78952
20
-5.47145
11
2.78948
21
-5.47152
0
LINE
8
BLACK
6
CONTINUOUS
10
2.78948
20
-5.47152
11
2.78138
21
-5.48458
0
LINE
8
BLACK
6
CONTINUOUS
10
2.78138
20
-5.48458
11
2.78138
21
-5.48458
0
LINE
8
BLACK
6
CONTINUOUS
10
2.78138
20
-5.48458
11
2.78138
21
-5.48458
0
LINE
8
BLACK
6
CONTINUOUS
10
2.78138
20
-5.48458
11
2.78137
21
-5.4846
0
LINE
8
BLACK
6
CONTINUOUS
10
2.78137
20
-5.4846
11
2.78132
21
-5.48467
0
LINE
8
BLACK
6
CONTINUOUS
10
2.78132
20
-5.48467
11
2.78127
21
-5.48474
0
LINE
8
BLACK
6
CONTINUOUS
10
2.78127
20
-5.48474
11
2.77078
21
-5.49598
0
LINE
8
BLACK
6
CONTINUOUS
10
2.77078
20
-5.49598
11
2.77078
21
-5.49599
0
LINE
8
BLACK
6
CONTINUOUS
10
2.77078
20
-5.49599
11
2.77071
21
-5.49604
0
LINE
8
BLACK
6
CONTINUOUS
10
2.77071
20
-5.49604
11
2.77064
21
-5.4961
0
LINE
8
BLACK
6
CONTINUOUS
10
2.77064
20
-5.4961
11
2.75818
21
-5.50509
0
LINE
8
BLACK
6
CONTINUOUS
10
2.75818
20
-5.50509
11
2.75817
21
-5.5051
0
LINE
8
BLACK
6
CONTINUOUS
10
2.75817
20
-5.5051
11
2.75809
21
-5.50514
0
LINE
8
BLACK
6
CONTINUOUS
10
2.75809
20
-5.50514
11
2.75801
21
-5.50519
0
LINE
8
BLACK
6
CONTINUOUS
10
2.75801
20
-5.50519
11
2.74404
21
-5.51159
0
LINE
8
BLACK
6
CONTINUOUS
10
2.74404
20
-5.51159
11
2.74403
21
-5.51159
0
LINE
8
BLACK
6
CONTINUOUS
10
2.74403
20
-5.51159
11
2.74394
21
-5.51162
0
LINE
8
BLACK
6
CONTINUOUS
10
2.74394
20
-5.51162
11
2.74386
21
-5.51165
0
LINE
8
BLACK
6
CONTINUOUS
10
2.74386
20
-5.51165
11
2.72891
21
-5.51521
0
LINE
8
BLACK
6
CONTINUOUS
10
2.72891
20
-5.51521
11
2.72891
21
-5.51521
0
LINE
8
BLACK
6
CONTINUOUS
10
2.72891
20
-5.51521
11
2.72891
21
-5.51521
0
LINE
8
BLACK
6
CONTINUOUS
10
2.72891
20
-5.51521
11
2.72889
21
-5.51521
0
LINE
8
BLACK
6
CONTINUOUS
10
2.72889
20
-5.51521
11
2.72881
21
-5.51522
0
LINE
8
BLACK
6
CONTINUOUS
10
2.72881
20
-5.51522
11
2.72872
21
-5.51524
0
LINE
8
BLACK
6
CONTINUOUS
10
2.72872
20
-5.51524
11
2.71336
21
-5.51583
0
LINE
8
BLACK
6
CONTINUOUS
10
2.71336
20
-5.51583
11
2.71335
21
-5.51583
0
LINE
8
BLACK
6
CONTINUOUS
10
2.71335
20
-5.51583
11
2.71326
21
-5.51582
0
LINE
8
BLACK
6
CONTINUOUS
10
2.71326
20
-5.51582
11
2.71317
21
-5.51581
0
LINE
8
BLACK
6
CONTINUOUS
10
2.71317
20
-5.51581
11
2.69799
21
-5.51341
0
LINE
8
BLACK
6
CONTINUOUS
10
2.69799
20
-5.51341
11
2.69798
21
-5.51341
0
LINE
8
BLACK
6
CONTINUOUS
10
2.69798
20
-5.51341
11
2.69794
21
-5.5134
0
LINE
8
BLACK
6
CONTINUOUS
10
2.69794
20
-5.5134
11
2.69789
21
-5.51339
0
LINE
8
BLACK
6
CONTINUOUS
10
2.69789
20
-5.51339
11
2.69741
21
-5.51326
0
LINE
8
BLACK
6
CONTINUOUS
10
2.69741
20
-5.51326
11
2.69741
21
-5.51326
0
LINE
8
BLACK
6
CONTINUOUS
10
2.69741
20
-5.51326
11
2.16496
21
-5.37059
0
LINE
8
BLACK
6
CONTINUOUS
10
2.16496
20
-5.37059
11
2.16496
21
-5.37059
0
LINE
8
BLACK
6
CONTINUOUS
10
2.16496
20
-5.37059
11
2.16448
21
-5.37047
0
LINE
8
BLACK
6
CONTINUOUS
10
2.16448
20
-5.37047
11
2.14945
21
-5.36808
0
LINE
8
BLACK
6
CONTINUOUS
10
2.14945
20
-5.36808
11
2.13428
21
-5.36867
0
LINE
8
BLACK
6
CONTINUOUS
10
2.13428
20
-5.36867
11
2.11952
21
-5.37218
0
LINE
8
BLACK
6
CONTINUOUS
10
2.11952
20
-5.37218
11
2.10572
21
-5.3785
0
LINE
8
BLACK
6
CONTINUOUS
10
2.10572
20
-5.3785
11
2.09342
21
-5.38738
0
LINE
8
BLACK
6
CONTINUOUS
10
2.09342
20
-5.38738
11
2.08307
21
-5.39847
0
LINE
8
BLACK
6
CONTINUOUS
10
2.08307
20
-5.39847
11
2.07507
21
-5.41137
0
LINE
8
BLACK
6
CONTINUOUS
10
2.07507
20
-5.41137
11
2.0697
21
-5.42567
0
LINE
8
BLACK
6
CONTINUOUS
10
2.0697
20
-5.42567
11
2.06429
21
-5.44005
0
LINE
8
BLACK
6
CONTINUOUS
10
2.06429
20
-5.44005
11
2.06429
21
-5.44005
0
LINE
8
BLACK
6
CONTINUOUS
10
2.06429
20
-5.44005
11
2.06429
21
-5.44005
0
LINE
8
BLACK
6
CONTINUOUS
10
2.06429
20
-5.44005
11
2.06429
21
-5.44006
0
LINE
8
BLACK
6
CONTINUOUS
10
2.06429
20
-5.44006
11
2.06425
21
-5.44014
0
LINE
8
BLACK
6
CONTINUOUS
10
2.06425
20
-5.44014
11
2.06421
21
-5.44022
0
LINE
8
BLACK
6
CONTINUOUS
10
2.06421
20
-5.44022
11
2.05611
21
-5.45328
0
LINE
8
BLACK
6
CONTINUOUS
10
2.05611
20
-5.45328
11
2.05611
21
-5.45328
0
LINE
8
BLACK
6
CONTINUOUS
10
2.05611
20
-5.45328
11
2.05611
21
-5.45328
0
LINE
8
BLACK
6
CONTINUOUS
10
2.05611
20
-5.45328
11
2.0561
21
-5.45329
0
LINE
8
BLACK
6
CONTINUOUS
10
2.0561
20
-5.45329
11
2.05605
21
-5.45336
0
LINE
8
BLACK
6
CONTINUOUS
10
2.05605
20
-5.45336
11
2.05599
21
-5.45344
0
LINE
8
BLACK
6
CONTINUOUS
10
2.05599
20
-5.45344
11
2.04551
21
-5.46467
0
LINE
8
BLACK
6
CONTINUOUS
10
2.04551
20
-5.46467
11
2.0455
21
-5.46468
0
LINE
8
BLACK
6
CONTINUOUS
10
2.0455
20
-5.46468
11
2.04543
21
-5.46474
0
LINE
8
BLACK
6
CONTINUOUS
10
2.04543
20
-5.46474
11
2.04537
21
-5.4648
0
LINE
8
BLACK
6
CONTINUOUS
10
2.04537
20
-5.4648
11
2.0329
21
-5.47379
0
LINE
8
BLACK
6
CONTINUOUS
10
2.0329
20
-5.47379
11
2.03289
21
-5.4738
0
LINE
8
BLACK
6
CONTINUOUS
10
2.03289
20
-5.4738
11
2.03281
21
-5.47384
0
LINE
8
BLACK
6
CONTINUOUS
10
2.03281
20
-5.47384
11
2.03274
21
-5.47389
0
LINE
8
BLACK
6
CONTINUOUS
10
2.03274
20
-5.47389
11
2.01877
21
-5.48028
0
LINE
8
BLACK
6
CONTINUOUS
10
2.01877
20
-5.48028
11
2.01875
21
-5.48029
0
LINE
8
BLACK
6
CONTINUOUS
10
2.01875
20
-5.48029
11
2.01867
21
-5.48032
0
LINE
8
BLACK
6
CONTINUOUS
10
2.01867
20
-5.48032
11
2.01858
21
-5.48035
0
LINE
8
BLACK
6
CONTINUOUS
10
2.01858
20
-5.48035
11
2.00363
21
-5.48391
0
LINE
8
BLACK
6
CONTINUOUS
10
2.00363
20
-5.48391
11
2.00363
21
-5.48391
0
LINE
8
BLACK
6
CONTINUOUS
10
2.00363
20
-5.48391
11
2.00363
21
-5.48391
0
LINE
8
BLACK
6
CONTINUOUS
10
2.00363
20
-5.48391
11
2.00362
21
-5.48391
0
LINE
8
BLACK
6
CONTINUOUS
10
2.00362
20
-5.48391
11
2.00353
21
-5.48392
0
LINE
8
BLACK
6
CONTINUOUS
10
2.00353
20
-5.48392
11
2.00344
21
-5.48393
0
LINE
8
BLACK
6
CONTINUOUS
10
2.00344
20
-5.48393
11
1.98809
21
-5.48452
0
LINE
8
BLACK
6
CONTINUOUS
10
1.98809
20
-5.48452
11
1.98807
21
-5.48453
0
LINE
8
BLACK
6
CONTINUOUS
10
1.98807
20
-5.48453
11
1.98798
21
-5.48452
0
LINE
8
BLACK
6
CONTINUOUS
10
1.98798
20
-5.48452
11
1.9879
21
-5.48451
0
LINE
8
BLACK
6
CONTINUOUS
10
1.9879
20
-5.48451
11
1.97272
21
-5.48211
0
LINE
8
BLACK
6
CONTINUOUS
10
1.97272
20
-5.48211
11
1.9727
21
-5.48211
0
LINE
8
BLACK
6
CONTINUOUS
10
1.9727
20
-5.48211
11
1.97266
21
-5.4821
0
LINE
8
BLACK
6
CONTINUOUS
10
1.97266
20
-5.4821
11
1.97262
21
-5.48209
0
LINE
8
BLACK
6
CONTINUOUS
10
1.97262
20
-5.48209
11
1.97214
21
-5.48196
0
LINE
8
BLACK
6
CONTINUOUS
10
1.97214
20
-5.48196
11
1.97213
21
-5.48196
0
LINE
8
BLACK
6
CONTINUOUS
10
1.97213
20
-5.48196
11
1.28753
21
-5.29852
0
LINE
8
BLACK
6
CONTINUOUS
10
1.28753
20
-5.29852
11
1.28748
21
-5.2985
0
LINE
8
BLACK
6
CONTINUOUS
10
1.28748
20
-5.2985
11
1.28748
21
-5.2985
0
LINE
8
BLACK
6
CONTINUOUS
10
1.28748
20
-5.2985
11
1.2731
21
-5.2931
0
LINE
8
BLACK
6
CONTINUOUS
10
1.2731
20
-5.2931
11
1.2731
21
-5.2931
0
LINE
8
BLACK
6
CONTINUOUS
10
1.2731
20
-5.2931
11
1.27309
21
-5.2931
0
LINE
8
BLACK
6
CONTINUOUS
10
1.27309
20
-5.2931
11
1.27308
21
-5.29309
0
LINE
8
BLACK
6
CONTINUOUS
10
1.27308
20
-5.29309
11
1.273
21
-5.29305
0
LINE
8
BLACK
6
CONTINUOUS
10
1.273
20
-5.29305
11
1.27292
21
-5.29301
0
LINE
8
BLACK
6
CONTINUOUS
10
1.27292
20
-5.29301
11
1.25986
21
-5.28491
0
LINE
8
BLACK
6
CONTINUOUS
10
1.25986
20
-5.28491
11
1.25986
21
-5.28491
0
LINE
8
BLACK
6
CONTINUOUS
10
1.25986
20
-5.28491
11
1.25986
21
-5.28491
0
LINE
8
BLACK
6
CONTINUOUS
10
1.25986
20
-5.28491
11
1.25985
21
-5.28491
0
LINE
8
BLACK
6
CONTINUOUS
10
1.25985
20
-5.28491
11
1.25978
21
-5.28485
0
LINE
8
BLACK
6
CONTINUOUS
10
1.25978
20
-5.28485
11
1.25971
21
-5.2848
0
LINE
8
BLACK
6
CONTINUOUS
10
1.25971
20
-5.2848
11
1.24847
21
-5.27432
0
LINE
8
BLACK
6
CONTINUOUS
10
1.24847
20
-5.27432
11
1.24846
21
-5.27431
0
LINE
8
BLACK
6
CONTINUOUS
10
1.24846
20
-5.27431
11
1.2484
21
-5.27424
0
LINE
8
BLACK
6
CONTINUOUS
10
1.2484
20
-5.27424
11
1.24834
21
-5.27417
0
LINE
8
BLACK
6
CONTINUOUS
10
1.24834
20
-5.27417
11
1.23935
21
-5.26171
0
LINE
8
BLACK
6
CONTINUOUS
10
1.23935
20
-5.26171
11
1.23935
21
-5.2617
0
LINE
8
BLACK
6
CONTINUOUS
10
1.23935
20
-5.2617
11
1.2393
21
-5.26162
0
LINE
8
BLACK
6
CONTINUOUS
10
1.2393
20
-5.26162
11
1.23926
21
-5.26154
0
LINE
8
BLACK
6
CONTINUOUS
10
1.23926
20
-5.26154
11
1.23286
21
-5.24757
0
LINE
8
BLACK
6
CONTINUOUS
10
1.23286
20
-5.24757
11
1.23286
21
-5.24756
0
LINE
8
BLACK
6
CONTINUOUS
10
1.23286
20
-5.24756
11
1.23283
21
-5.24747
0
LINE
8
BLACK
6
CONTINUOUS
10
1.23283
20
-5.24747
11
1.2328
21
-5.24739
0
LINE
8
BLACK
6
CONTINUOUS
10
1.2328
20
-5.24739
11
1.22924
21
-5.23244
0
LINE
8
BLACK
6
CONTINUOUS
10
1.22924
20
-5.23244
11
1.22924
21
-5.23244
0
LINE
8
BLACK
6
CONTINUOUS
10
1.22924
20
-5.23244
11
1.22924
21
-5.23244
0
LINE
8
BLACK
6
CONTINUOUS
10
1.22924
20
-5.23244
11
1.22923
21
-5.23243
0
LINE
8
BLACK
6
CONTINUOUS
10
1.22923
20
-5.23243
11
1.22922
21
-5.23234
0
LINE
8
BLACK
6
CONTINUOUS
10
1.22922
20
-5.23234
11
1.22921
21
-5.23225
0
LINE
8
BLACK
6
CONTINUOUS
10
1.22921
20
-5.23225
11
1.22862
21
-5.21689
0
LINE
8
BLACK
6
CONTINUOUS
10
1.22862
20
-5.21689
11
1.22862
21
-5.21688
0
LINE
8
BLACK
6
CONTINUOUS
10
1.22862
20
-5.21688
11
1.22863
21
-5.21679
0
LINE
8
BLACK
6
CONTINUOUS
10
1.22863
20
-5.21679
11
1.22863
21
-5.2167
0
LINE
8
BLACK
6
CONTINUOUS
10
1.22863
20
-5.2167
11
1.23104
21
-5.20152
0
LINE
8
BLACK
6
CONTINUOUS
10
1.23104
20
-5.20152
11
1.23104
21
-5.20151
0
LINE
8
BLACK
6
CONTINUOUS
10
1.23104
20
-5.20151
11
1.23105
21
-5.20147
0
LINE
8
BLACK
6
CONTINUOUS
10
1.23105
20
-5.20147
11
1.23106
21
-5.20143
0
LINE
8
BLACK
6
CONTINUOUS
10
1.23106
20
-5.20143
11
1.23118
21
-5.20094
0
LINE
8
BLACK
6
CONTINUOUS
10
1.23118
20
-5.20094
11
1.23119
21
-5.20094
0
LINE
8
BLACK
6
CONTINUOUS
10
1.23119
20
-5.20094
11
1.98525
21
-2.38673
0
LINE
8
BLACK
6
CONTINUOUS
10
1.98525
20
-2.38673
11
1.98527
21
-2.38668
0
LINE
8
BLACK
6
CONTINUOUS
10
1.98527
20
-2.38668
11
1.98527
21
-2.38668
0
LINE
8
BLACK
6
CONTINUOUS
10
1.98527
20
-2.38668
11
1.99067
21
-2.3723
0
LINE
8
BLACK
6
CONTINUOUS
10
1.99067
20
-2.3723
11
1.99068
21
-2.37229
0
LINE
8
BLACK
6
CONTINUOUS
10
1.99068
20
-2.37229
11
1.99072
21
-2.37221
0
LINE
8
BLACK
6
CONTINUOUS
10
1.99072
20
-2.37221
11
1.99076
21
-2.37213
0
LINE
8
BLACK
6
CONTINUOUS
10
1.99076
20
-2.37213
11
1.99886
21
-2.35907
0
LINE
8
BLACK
6
CONTINUOUS
10
1.99886
20
-2.35907
11
1.99886
21
-2.35906
0
LINE
8
BLACK
6
CONTINUOUS
10
1.99886
20
-2.35906
11
1.99892
21
-2.35898
0
LINE
8
BLACK
6
CONTINUOUS
10
1.99892
20
-2.35898
11
1.99897
21
-2.35891
0
LINE
8
BLACK
6
CONTINUOUS
10
1.99897
20
-2.35891
11
2.00945
21
-2.34768
0
LINE
8
BLACK
6
CONTINUOUS
10
2.00945
20
-2.34768
11
2.00946
21
-2.34767
0
LINE
8
BLACK
6
CONTINUOUS
10
2.00946
20
-2.34767
11
2.00953
21
-2.34761
0
LINE
8
BLACK
6
CONTINUOUS
10
2.00953
20
-2.34761
11
2.0096
21
-2.34755
0
LINE
8
BLACK
6
CONTINUOUS
10
2.0096
20
-2.34755
11
2.02206
21
-2.33856
0
LINE
8
BLACK
6
CONTINUOUS
10
2.02206
20
-2.33856
11
2.02206
21
-2.33856
0
LINE
8
BLACK
6
CONTINUOUS
10
2.02206
20
-2.33856
11
2.02206
21
-2.33856
0
LINE
8
BLACK
6
CONTINUOUS
10
2.02206
20
-2.33856
11
2.02207
21
-2.33855
0
LINE
8
BLACK
6
CONTINUOUS
10
2.02207
20
-2.33855
11
2.02215
21
-2.33851
0
LINE
8
BLACK
6
CONTINUOUS
10
2.02215
20
-2.33851
11
2.02223
21
-2.33846
0
LINE
8
BLACK
6
CONTINUOUS
10
2.02223
20
-2.33846
11
2.0362
21
-2.33207
0
LINE
8
BLACK
6
CONTINUOUS
10
2.0362
20
-2.33207
11
2.03621
21
-2.33206
0
LINE
8
BLACK
6
CONTINUOUS
10
2.03621
20
-2.33206
11
2.0363
21
-2.33203
0
LINE
8
BLACK
6
CONTINUOUS
10
2.0363
20
-2.33203
11
2.03638
21
-2.332
0
LINE
8
BLACK
6
CONTINUOUS
10
2.03638
20
-2.332
11
2.05133
21
-2.32844
0
LINE
8
BLACK
6
CONTINUOUS
10
2.05133
20
-2.32844
11
2.05133
21
-2.32844
0
LINE
8
BLACK
6
CONTINUOUS
10
2.05133
20
-2.32844
11
2.05133
21
-2.32844
0
LINE
8
BLACK
6
CONTINUOUS
10
2.05133
20
-2.32844
11
2.05134
21
-2.32844
0
LINE
8
BLACK
6
CONTINUOUS
10
2.05134
20
-2.32844
11
2.05143
21
-2.32843
0
LINE
8
BLACK
6
CONTINUOUS
10
2.05143
20
-2.32843
11
2.05152
21
-2.32842
0
LINE
8
BLACK
6
CONTINUOUS
10
2.05152
20
-2.32842
11
2.06688
21
-2.32783
0
LINE
8
BLACK
6
CONTINUOUS
10
2.06688
20
-2.32783
11
2.06688
21
-2.32783
0
LINE
8
BLACK
6
CONTINUOUS
10
2.06688
20
-2.32783
11
2.06689
21
-2.32782
0
LINE
8
BLACK
6
CONTINUOUS
10
2.06689
20
-2.32782
11
2.06698
21
-2.32783
0
LINE
8
BLACK
6
CONTINUOUS
10
2.06698
20
-2.32783
11
2.06707
21
-2.32784
0
LINE
8
BLACK
6
CONTINUOUS
10
2.06707
20
-2.32784
11
2.08225
21
-2.33024
0
LINE
8
BLACK
6
CONTINUOUS
10
2.08225
20
-2.33024
11
2.08226
21
-2.33024
0
LINE
8
BLACK
6
CONTINUOUS
10
2.08226
20
-2.33024
11
2.0823
21
-2.33025
0
LINE
8
BLACK
6
CONTINUOUS
10
2.0823
20
-2.33025
11
2.08234
21
-2.33026
0
LINE
8
BLACK
6
CONTINUOUS
10
2.08234
20
-2.33026
11
2.08283
21
-2.33039
0
LINE
8
BLACK
6
CONTINUOUS
10
2.08283
20
-2.33039
11
2.08283
21
-2.33039
0
LINE
8
BLACK
6
CONTINUOUS
10
2.08283
20
-2.33039
11
2.08287
21
-2.3304
0
LINE
8
BLACK
6
CONTINUOUS
10
2.08287
20
-2.3304
11
2.08288
21
-2.3304
0
LINE
8
BLACK
6
CONTINUOUS
10
2.08288
20
-2.3304
11
2.08288
21
-2.3304
0
LINE
8
BLACK
6
CONTINUOUS
10
2.08288
20
-2.3304
11
2.61528
21
-2.47306
0
LINE
8
BLACK
6
CONTINUOUS
10
2.61528
20
-2.47306
11
2.61576
21
-2.47319
0
LINE
8
BLACK
6
CONTINUOUS
10
2.61576
20
-2.47319
11
2.63079
21
-2.47557
0
LINE
8
BLACK
6
CONTINUOUS
10
2.63079
20
-2.47557
11
2.64596
21
-2.47498
0
LINE
8
BLACK
6
CONTINUOUS
10
2.64596
20
-2.47498
11
2.66072
21
-2.47147
0
LINE
8
BLACK
6
CONTINUOUS
10
2.66072
20
-2.47147
11
2.67451
21
-2.46515
0
LINE
8
BLACK
6
CONTINUOUS
10
2.67451
20
-2.46515
11
2.68682
21
-2.45627
0
LINE
8
BLACK
6
CONTINUOUS
10
2.68682
20
-2.45627
11
2.69717
21
-2.44518
0
LINE
8
BLACK
6
CONTINUOUS
10
2.69717
20
-2.44518
11
2.70517
21
-2.43228
0
LINE
8
BLACK
6
CONTINUOUS
10
2.70517
20
-2.43228
11
2.71054
21
-2.41799
0
LINE
8
BLACK
6
CONTINUOUS
10
2.71054
20
-2.41799
11
2.71054
21
-2.41798
0
LINE
8
BLACK
6
CONTINUOUS
10
2.71054
20
-2.41798
11
2.71595
21
-2.4036
0
LINE
8
BLACK
6
CONTINUOUS
10
2.71595
20
-2.4036
11
2.71595
21
-2.40359
0
LINE
8
BLACK
6
CONTINUOUS
10
2.71595
20
-2.40359
11
2.71599
21
-2.40351
0
LINE
8
BLACK
6
CONTINUOUS
10
2.71599
20
-2.40351
11
2.71603
21
-2.40343
0
LINE
8
BLACK
6
CONTINUOUS
10
2.71603
20
-2.40343
11
2.72413
21
-2.39037
0
LINE
8
BLACK
6
CONTINUOUS
10
2.72413
20
-2.39037
11
2.72414
21
-2.39036
0
LINE
8
BLACK
6
CONTINUOUS
10
2.72414
20
-2.39036
11
2.72419
21
-2.39028
0
LINE
8
BLACK
6
CONTINUOUS
10
2.72419
20
-2.39028
11
2.72425
21
-2.39021
0
LINE
8
BLACK
6
CONTINUOUS
10
2.72425
20
-2.39021
11
2.73473
21
-2.37898
0
LINE
8
BLACK
6
CONTINUOUS
10
2.73473
20
-2.37898
11
2.73474
21
-2.37897
0
LINE
8
BLACK
6
CONTINUOUS
10
2.73474
20
-2.37897
11
2.7348
21
-2.37891
0
LINE
8
BLACK
6
CONTINUOUS
10
2.7348
20
-2.37891
11
2.73487
21
-2.37885
0
LINE
8
BLACK
6
CONTINUOUS
10
2.73487
20
-2.37885
11
2.74733
21
-2.36986
0
LINE
8
BLACK
6
CONTINUOUS
10
2.74733
20
-2.36986
11
2.74734
21
-2.36986
0
LINE
8
BLACK
6
CONTINUOUS
10
2.74734
20
-2.36986
11
2.74734
21
-2.36986
0
LINE
8
BLACK
6
CONTINUOUS
10
2.74734
20
-2.36986
11
2.74735
21
-2.36985
0
LINE
8
BLACK
6
CONTINUOUS
10
2.74735
20
-2.36985
11
2.74742
21
-2.36981
0
LINE
8
BLACK
6
CONTINUOUS
10
2.74742
20
-2.36981
11
2.7475
21
-2.36976
0
LINE
8
BLACK
6
CONTINUOUS
10
2.7475
20
-2.36976
11
2.76147
21
-2.36337
0
LINE
8
BLACK
6
CONTINUOUS
10
2.76147
20
-2.36337
11
2.76149
21
-2.36336
0
LINE
8
BLACK
6
CONTINUOUS
10
2.76149
20
-2.36336
11
2.76157
21
-2.36333
0
LINE
8
BLACK
6
CONTINUOUS
10
2.76157
20
-2.36333
11
2.76166
21
-2.3633
0
LINE
8
BLACK
6
CONTINUOUS
10
2.76166
20
-2.3633
11
2.7766
21
-2.35974
0
LINE
8
BLACK
6
CONTINUOUS
10
2.7766
20
-2.35974
11
2.7766
21
-2.35974
0
LINE
8
BLACK
6
CONTINUOUS
10
2.7766
20
-2.35974
11
2.7766
21
-2.35974
0
LINE
8
BLACK
6
CONTINUOUS
10
2.7766
20
-2.35974
11
2.77662
21
-2.35974
0
LINE
8
BLACK
6
CONTINUOUS
10
2.77662
20
-2.35974
11
2.77671
21
-2.35973
0
LINE
8
BLACK
6
CONTINUOUS
10
2.77671
20
-2.35973
11
2.77679
21
-2.35972
0
LINE
8
BLACK
6
CONTINUOUS
10
2.77679
20
-2.35972
11
2.79215
21
-2.35913
0
LINE
8
BLACK
6
CONTINUOUS
10
2.79215
20
-2.35913
11
2.79215
21
-2.35913
0
LINE
8
BLACK
6
CONTINUOUS
10
2.79215
20
-2.35913
11
2.79216
21
-2.35913
0
LINE
8
BLACK
6
CONTINUOUS
10
2.14948
20
-5.36611
11
2.14957
21
-5.36612
0
LINE
8
BLACK
6
CONTINUOUS
10
2.14957
20
-5.36612
11
2.14966
21
-5.36613
0
LINE
8
BLACK
6
CONTINUOUS
10
2.14966
20
-5.36613
11
2.16484
21
-5.36853
0
LINE
8
BLACK
6
CONTINUOUS
10
2.16484
20
-5.36853
11
2.16485
21
-5.36853
0
LINE
8
BLACK
6
CONTINUOUS
10
2.16485
20
-5.36853
11
2.16489
21
-5.36854
0
LINE
8
BLACK
6
CONTINUOUS
10
2.16489
20
-5.36854
11
2.16493
21
-5.36855
0
LINE
8
BLACK
6
CONTINUOUS
10
2.16493
20
-5.36855
11
2.16542
21
-5.36868
0
LINE
8
BLACK
6
CONTINUOUS
10
2.16542
20
-5.36868
11
2.16542
21
-5.36868
0
LINE
8
BLACK
6
CONTINUOUS
10
2.16542
20
-5.36868
11
2.16546
21
-5.36869
0
LINE
8
BLACK
6
CONTINUOUS
10
2.16546
20
-5.36869
11
2.16547
21
-5.36869
0
LINE
8
BLACK
6
CONTINUOUS
10
2.16547
20
-5.36869
11
2.16547
21
-5.36869
0
LINE
8
BLACK
6
CONTINUOUS
10
2.16547
20
-5.36869
11
2.69787
21
-5.51135
0
LINE
8
BLACK
6
CONTINUOUS
10
2.69787
20
-5.51135
11
2.69835
21
-5.51147
0
LINE
8
BLACK
6
CONTINUOUS
10
2.69835
20
-5.51147
11
2.71338
21
-5.51385
0
LINE
8
BLACK
6
CONTINUOUS
10
2.71338
20
-5.51385
11
2.72855
21
-5.51327
0
LINE
8
BLACK
6
CONTINUOUS
10
2.72855
20
-5.51327
11
2.74331
21
-5.50976
0
LINE
8
BLACK
6
CONTINUOUS
10
2.74331
20
-5.50976
11
2.7571
21
-5.50344
0
LINE
8
BLACK
6
CONTINUOUS
10
2.7571
20
-5.50344
11
2.76941
21
-5.49456
0
LINE
8
BLACK
6
CONTINUOUS
10
2.76941
20
-5.49456
11
2.77976
21
-5.48346
0
LINE
8
BLACK
6
CONTINUOUS
10
2.77976
20
-5.48346
11
2.78776
21
-5.47057
0
LINE
8
BLACK
6
CONTINUOUS
10
2.78776
20
-5.47057
11
2.79313
21
-5.45627
0
LINE
8
BLACK
6
CONTINUOUS
10
2.79313
20
-5.45627
11
2.79313
21
-5.45627
0
LINE
8
BLACK
6
CONTINUOUS
10
2.79313
20
-5.45627
11
2.79854
21
-5.44189
0
LINE
8
BLACK
6
CONTINUOUS
10
2.79854
20
-5.44189
11
2.79854
21
-5.44188
0
LINE
8
BLACK
6
CONTINUOUS
10
2.79854
20
-5.44188
11
2.79858
21
-5.44179
0
LINE
8
BLACK
6
CONTINUOUS
10
2.79858
20
-5.44179
11
2.79862
21
-5.44172
0
LINE
8
BLACK
6
CONTINUOUS
10
2.79862
20
-5.44172
11
2.80672
21
-5.42866
0
LINE
8
BLACK
6
CONTINUOUS
10
2.80672
20
-5.42866
11
2.80673
21
-5.42864
0
LINE
8
BLACK
6
CONTINUOUS
10
2.80673
20
-5.42864
11
2.80678
21
-5.42857
0
LINE
8
BLACK
6
CONTINUOUS
10
2.80678
20
-5.42857
11
2.80684
21
-5.4285
0
LINE
8
BLACK
6
CONTINUOUS
10
2.80684
20
-5.4285
11
2.81732
21
-5.41726
0
LINE
8
BLACK
6
CONTINUOUS
10
2.81732
20
-5.41726
11
2.81733
21
-5.41725
0
LINE
8
BLACK
6
CONTINUOUS
10
2.81733
20
-5.41725
11
2.81739
21
-5.4172
0
LINE
8
BLACK
6
CONTINUOUS
10
2.81739
20
-5.4172
11
2.81746
21
-5.41714
0
LINE
8
BLACK
6
CONTINUOUS
10
2.81746
20
-5.41714
11
2.82992
21
-5.40815
0
LINE
8
BLACK
6
CONTINUOUS
10
2.82992
20
-5.40815
11
2.82992
21
-5.40815
0
LINE
8
BLACK
6
CONTINUOUS
10
2.82992
20
-5.40815
11
2.82992
21
-5.40815
0
LINE
8
BLACK
6
CONTINUOUS
10
2.82992
20
-5.40815
11
2.82994
21
-5.40814
0
LINE
8
BLACK
6
CONTINUOUS
10
2.82994
20
-5.40814
11
2.83001
21
-5.4081
0
LINE
8
BLACK
6
CONTINUOUS
10
2.83001
20
-5.4081
11
2.83009
21
-5.40805
0
LINE
8
BLACK
6
CONTINUOUS
10
2.83009
20
-5.40805
11
2.84406
21
-5.40165
0
LINE
8
BLACK
6
CONTINUOUS
10
2.84406
20
-5.40165
11
2.84408
21
-5.40165
0
LINE
8
BLACK
6
CONTINUOUS
10
2.84408
20
-5.40165
11
2.84416
21
-5.40162
0
LINE
8
BLACK
6
CONTINUOUS
10
2.84416
20
-5.40162
11
2.84424
21
-5.40159
0
LINE
8
BLACK
6
CONTINUOUS
10
2.84424
20
-5.40159
11
2.85919
21
-5.39803
0
LINE
8
BLACK
6
CONTINUOUS
10
2.85919
20
-5.39803
11
2.85919
21
-5.39803
0
LINE
8
BLACK
6
CONTINUOUS
10
2.85919
20
-5.39803
11
2.85919
21
-5.39803
0
LINE
8
BLACK
6
CONTINUOUS
10
2.85919
20
-5.39803
11
2.85921
21
-5.39803
0
LINE
8
BLACK
6
CONTINUOUS
10
2.85921
20
-5.39803
11
2.85929
21
-5.39802
0
LINE
8
BLACK
6
CONTINUOUS
10
2.85929
20
-5.39802
11
2.85938
21
-5.398
0
LINE
8
BLACK
6
CONTINUOUS
10
2.85938
20
-5.398
11
2.87474
21
-5.39741
0
LINE
8
BLACK
6
CONTINUOUS
10
2.87474
20
-5.39741
11
2.87474
21
-5.39741
0
LINE
8
BLACK
6
CONTINUOUS
10
2.87474
20
-5.39741
11
2.87475
21
-5.39741
0
LINE
8
BLACK
6
CONTINUOUS
10
2.87475
20
-5.39741
11
2.87484
21
-5.39742
0
LINE
8
BLACK
6
CONTINUOUS
10
2.87484
20
-5.39742
11
2.87493
21
-5.39743
0
LINE
8
BLACK
6
CONTINUOUS
10
2.87493
20
-5.39743
11
2.89011
21
-5.39983
0
LINE
8
BLACK
6
CONTINUOUS
10
2.89011
20
-5.39983
11
2.89012
21
-5.39983
0
LINE
8
BLACK
6
CONTINUOUS
10
2.89012
20
-5.39983
11
2.89016
21
-5.39984
0
LINE
8
BLACK
6
CONTINUOUS
10
2.89016
20
-5.39984
11
2.89021
21
-5.39985
0
LINE
8
BLACK
6
CONTINUOUS
10
2.89021
20
-5.39985
11
2.89069
21
-5.39998
0
LINE
8
BLACK
6
CONTINUOUS
10
2.89069
20
-5.39998
11
2.8907
21
-5.39998
0
LINE
8
BLACK
6
CONTINUOUS
10
2.8907
20
-5.39998
11
2.89074
21
-5.39999
0
LINE
8
BLACK
6
CONTINUOUS
10
2.89074
20
-5.39999
11
2.89074
21
-5.39999
0
LINE
8
BLACK
6
CONTINUOUS
10
2.89074
20
-5.39999
11
2.89074
21
-5.39999
0
LINE
8
BLACK
6
CONTINUOUS
10
2.89074
20
-5.39999
11
3.27107
21
-5.5019
0
LINE
8
BLACK
6
CONTINUOUS
10
3.27107
20
-5.5019
11
3.27112
21
-5.50192
0
LINE
8
BLACK
6
CONTINUOUS
10
3.27112
20
-5.50192
11
3.27112
21
-5.50192
0
LINE
8
BLACK
6
CONTINUOUS
10
3.27112
20
-5.50192
11
3.2855
21
-5.50733
0
LINE
8
BLACK
6
CONTINUOUS
10
3.2855
20
-5.50733
11
3.28552
21
-5.50733
0
LINE
8
BLACK
6
CONTINUOUS
10
3.28552
20
-5.50733
11
3.2856
21
-5.50737
0
LINE
8
BLACK
6
CONTINUOUS
10
3.2856
20
-5.50737
11
3.28568
21
-5.50741
0
LINE
8
BLACK
6
CONTINUOUS
10
3.28568
20
-5.50741
11
3.29874
21
-5.51551
0
LINE
8
BLACK
6
CONTINUOUS
10
3.29874
20
-5.51551
11
3.29875
21
-5.51552
0
LINE
8
BLACK
6
CONTINUOUS
10
3.29875
20
-5.51552
11
3.29882
21
-5.51557
0
LINE
8
BLACK
6
CONTINUOUS
10
3.29882
20
-5.51557
11
3.29889
21
-5.51562
0
LINE
8
BLACK
6
CONTINUOUS
10
3.29889
20
-5.51562
11
3.31013
21
-5.52611
0
LINE
8
BLACK
6
CONTINUOUS
10
3.31013
20
-5.52611
11
3.31014
21
-5.52611
0
LINE
8
BLACK
6
CONTINUOUS
10
3.31014
20
-5.52611
11
3.3102
21
-5.52618
0
LINE
8
BLACK
6
CONTINUOUS
10
3.3102
20
-5.52618
11
3.31026
21
-5.52625
0
LINE
8
BLACK
6
CONTINUOUS
10
3.31026
20
-5.52625
11
3.31924
21
-5.53871
0
LINE
8
BLACK
6
CONTINUOUS
10
3.31924
20
-5.53871
11
3.31924
21
-5.53871
0
LINE
8
BLACK
6
CONTINUOUS
10
3.31924
20
-5.53871
11
3.31924
21
-5.53871
0
LINE
8
BLACK
6
CONTINUOUS
10
3.31924
20
-5.53871
11
3.31925
21
-5.53872
0
LINE
8
BLACK
6
CONTINUOUS
10
3.31925
20
-5.53872
11
3.3193
21
-5.5388
0
LINE
8
BLACK
6
CONTINUOUS
10
3.3193
20
-5.5388
11
3.31934
21
-5.53888
0
LINE
8
BLACK
6
CONTINUOUS
10
3.31934
20
-5.53888
11
3.32574
21
-5.55285
0
LINE
8
BLACK
6
CONTINUOUS
10
3.32574
20
-5.55285
11
3.32574
21
-5.55286
0
LINE
8
BLACK
6
CONTINUOUS
10
3.32574
20
-5.55286
11
3.32577
21
-5.55295
0
LINE
8
BLACK
6
CONTINUOUS
10
3.32577
20
-5.55295
11
3.3258
21
-5.55303
0
LINE
8
BLACK
6
CONTINUOUS
10
3.3258
20
-5.55303
11
3.32936
21
-5.56798
0
LINE
8
BLACK
6
CONTINUOUS
10
3.32936
20
-5.56798
11
3.32936
21
-5.56798
0
LINE
8
BLACK
6
CONTINUOUS
10
3.32936
20
-5.56798
11
3.32936
21
-5.56798
0
LINE
8
BLACK
6
CONTINUOUS
10
3.32936
20
-5.56798
11
3.32937
21
-5.568
0
LINE
8
BLACK
6
CONTINUOUS
10
3.32937
20
-5.568
11
3.32938
21
-5.56808
0
LINE
8
BLACK
6
CONTINUOUS
10
3.32938
20
-5.56808
11
3.32939
21
-5.56817
0
LINE
8
BLACK
6
CONTINUOUS
10
3.32939
20
-5.56817
11
3.32998
21
-5.58353
0
LINE
8
BLACK
6
CONTINUOUS
10
3.32998
20
-5.58353
11
3.32998
21
-5.58354
0
LINE
8
BLACK
6
CONTINUOUS
10
3.32998
20
-5.58354
11
3.32997
21
-5.58363
0
LINE
8
BLACK
6
CONTINUOUS
10
3.32997
20
-5.58363
11
3.32997
21
-5.58372
0
LINE
8
BLACK
6
CONTINUOUS
10
3.32997
20
-5.58372
11
3.32756
21
-5.5989
0
LINE
8
BLACK
6
CONTINUOUS
10
3.32756
20
-5.5989
11
3.32756
21
-5.59891
0
LINE
8
BLACK
6
CONTINUOUS
10
3.32756
20
-5.59891
11
3.32755
21
-5.59895
0
LINE
8
BLACK
6
CONTINUOUS
10
3.32755
20
-5.59895
11
3.32754
21
-5.599
0
LINE
8
BLACK
6
CONTINUOUS
10
3.32754
20
-5.599
11
3.3274
21
-5.59952
0
LINE
8
BLACK
6
CONTINUOUS
10
3.3274
20
-5.59952
11
3.3274
21
-5.59953
0
LINE
8
BLACK
6
CONTINUOUS
10
3.3274
20
-5.59953
11
3.32727
21
-5.60001
0
LINE
8
BLACK
6
CONTINUOUS
10
3.32727
20
-5.60001
11
3.32489
21
-5.61504
0
LINE
8
BLACK
6
CONTINUOUS
10
3.32489
20
-5.61504
11
3.32548
21
-5.63021
0
LINE
8
BLACK
6
CONTINUOUS
10
3.32548
20
-5.63021
11
3.32899
21
-5.64497
0
LINE
8
BLACK
6
CONTINUOUS
10
3.32899
20
-5.64497
11
3.33531
21
-5.65877
0
LINE
8
BLACK
6
CONTINUOUS
10
3.33531
20
-5.65877
11
3.34419
21
-5.67107
0
LINE
8
BLACK
6
CONTINUOUS
10
3.34419
20
-5.67107
11
3.35528
21
-5.68142
0
LINE
8
BLACK
6
CONTINUOUS
10
3.35528
20
-5.68142
11
3.36818
21
-5.68942
0
LINE
8
BLACK
6
CONTINUOUS
10
3.36818
20
-5.68942
11
3.38243
21
-5.69477
0
LINE
8
BLACK
6
CONTINUOUS
10
3.38243
20
-5.69477
11
3.91483
21
-5.83743
0
LINE
8
BLACK
6
CONTINUOUS
10
3.91483
20
-5.83743
11
3.91497
21
-5.83748
0
LINE
8
BLACK
6
CONTINUOUS
10
3.91497
20
-5.83748
11
3.91497
21
-5.83748
0
LINE
8
BLACK
6
CONTINUOUS
10
3.91497
20
-5.83748
11
3.92926
21
-5.84285
0
LINE
8
BLACK
6
CONTINUOUS
10
3.92926
20
-5.84285
11
3.92927
21
-5.84286
0
LINE
8
BLACK
6
CONTINUOUS
10
3.92927
20
-5.84286
11
3.92935
21
-5.8429
0
LINE
8
BLACK
6
CONTINUOUS
10
3.92935
20
-5.8429
11
3.92943
21
-5.84294
0
LINE
8
BLACK
6
CONTINUOUS
10
3.92943
20
-5.84294
11
3.94249
21
-5.85104
0
LINE
8
BLACK
6
CONTINUOUS
10
3.94249
20
-5.85104
11
3.9425
21
-5.85104
0
LINE
8
BLACK
6
CONTINUOUS
10
3.9425
20
-5.85104
11
3.94258
21
-5.8511
0
LINE
8
BLACK
6
CONTINUOUS
10
3.94258
20
-5.8511
11
3.94264
21
-5.85115
0
LINE
8
BLACK
6
CONTINUOUS
10
3.94264
20
-5.85115
11
3.95388
21
-5.86163
0
LINE
8
BLACK
6
CONTINUOUS
10
3.95388
20
-5.86163
11
3.95389
21
-5.86164
0
LINE
8
BLACK
6
CONTINUOUS
10
3.95389
20
-5.86164
11
3.95395
21
-5.86171
0
LINE
8
BLACK
6
CONTINUOUS
10
3.95395
20
-5.86171
11
3.95401
21
-5.86178
0
LINE
8
BLACK
6
CONTINUOUS
10
3.95401
20
-5.86178
11
3.963
21
-5.87424
0
LINE
8
BLACK
6
CONTINUOUS
10
3.963
20
-5.87424
11
3.963
21
-5.87424
0
LINE
8
BLACK
6
CONTINUOUS
10
3.963
20
-5.87424
11
3.963
21
-5.87424
0
LINE
8
BLACK
6
CONTINUOUS
10
3.963
20
-5.87424
11
3.96301
21
-5.87425
0
LINE
8
BLACK
6
CONTINUOUS
10
3.96301
20
-5.87425
11
3.96305
21
-5.87433
0
LINE
8
BLACK
6
CONTINUOUS
10
3.96305
20
-5.87433
11
3.9631
21
-5.87441
0
LINE
8
BLACK
6
CONTINUOUS
10
3.9631
20
-5.87441
11
3.96949
21
-5.88838
0
LINE
8
BLACK
6
CONTINUOUS
10
3.96949
20
-5.88838
11
3.9695
21
-5.88839
0
LINE
8
BLACK
6
CONTINUOUS
10
3.9695
20
-5.88839
11
3.96953
21
-5.88848
0
LINE
8
BLACK
6
CONTINUOUS
10
3.96953
20
-5.88848
11
3.96956
21
-5.88856
0
LINE
8
BLACK
6
CONTINUOUS
10
3.96956
20
-5.88856
11
3.97312
21
-5.90351
0
LINE
8
BLACK
6
CONTINUOUS
10
3.97312
20
-5.90351
11
3.97312
21
-5.90351
0
LINE
8
BLACK
6
CONTINUOUS
10
3.97312
20
-5.90351
11
3.97312
21
-5.90351
0
LINE
8
BLACK
6
CONTINUOUS
10
3.97312
20
-5.90351
11
3.97312
21
-5.90353
0
LINE
8
BLACK
6
CONTINUOUS
10
3.97312
20
-5.90353
11
3.97313
21
-5.90361
0
LINE
8
BLACK
6
CONTINUOUS
10
3.97313
20
-5.90361
11
3.97314
21
-5.9037
0
LINE
8
BLACK
6
CONTINUOUS
10
3.97314
20
-5.9037
11
3.97373
21
-5.91906
0
LINE
8
BLACK
6
CONTINUOUS
10
3.97373
20
-5.91906
11
3.97373
21
-5.91907
0
LINE
8
BLACK
6
CONTINUOUS
10
3.97373
20
-5.91907
11
3.97373
21
-5.91916
0
LINE
8
BLACK
6
CONTINUOUS
10
3.97373
20
-5.91916
11
3.97372
21
-5.91925
0
LINE
8
BLACK
6
CONTINUOUS
10
3.97372
20
-5.91925
11
3.97132
21
-5.93443
0
LINE
8
BLACK
6
CONTINUOUS
10
3.97132
20
-5.93443
11
3.97132
21
-5.93444
0
LINE
8
BLACK
6
CONTINUOUS
10
3.97132
20
-5.93444
11
3.9713
21
-5.93448
0
LINE
8
BLACK
6
CONTINUOUS
10
3.9713
20
-5.93448
11
3.9713
21
-5.93453
0
LINE
8
BLACK
6
CONTINUOUS
10
3.9713
20
-5.93453
11
3.97116
21
-5.93505
0
LINE
8
BLACK
6
CONTINUOUS
10
3.97116
20
-5.93505
11
3.97116
21
-5.93506
0
LINE
8
BLACK
6
CONTINUOUS
10
3.97116
20
-5.93506
11
3.97103
21
-5.93554
0
LINE
8
BLACK
6
CONTINUOUS
10
3.97103
20
-5.93554
11
3.96865
21
-5.95057
0
LINE
8
BLACK
6
CONTINUOUS
10
3.96865
20
-5.95057
11
3.96923
21
-5.96574
0
LINE
8
BLACK
6
CONTINUOUS
10
3.96923
20
-5.96574
11
3.97275
21
-5.9805
0
LINE
8
BLACK
6
CONTINUOUS
10
3.97275
20
-5.9805
11
3.97906
21
-5.9943
0
LINE
8
BLACK
6
CONTINUOUS
10
3.97906
20
-5.9943
11
3.98794
21
-6.0066
0
LINE
8
BLACK
6
CONTINUOUS
10
3.98794
20
-6.0066
11
3.99904
21
-6.01695
0
LINE
8
BLACK
6
CONTINUOUS
10
3.99904
20
-6.01695
11
4.01194
21
-6.02495
0
LINE
8
BLACK
6
CONTINUOUS
10
4.01194
20
-6.02495
11
4.02619
21
-6.0303
0
LINE
8
BLACK
6
CONTINUOUS
10
4.02619
20
-6.0303
11
4.55858
21
-6.17296
0
LINE
8
BLACK
6
CONTINUOUS
10
4.55858
20
-6.17296
11
4.55863
21
-6.17298
0
LINE
8
BLACK
6
CONTINUOUS
10
4.55863
20
-6.17298
11
4.55863
21
-6.17298
0
LINE
8
BLACK
6
CONTINUOUS
10
4.55863
20
-6.17298
11
4.57301
21
-6.17838
0
LINE
8
BLACK
6
CONTINUOUS
10
4.57301
20
-6.17838
11
4.57303
21
-6.17839
0
LINE
8
BLACK
6
CONTINUOUS
10
4.57303
20
-6.17839
11
4.57311
21
-6.17843
0
LINE
8
BLACK
6
CONTINUOUS
10
4.57311
20
-6.17843
11
4.57319
21
-6.17847
0
LINE
8
BLACK
6
CONTINUOUS
10
4.57319
20
-6.17847
11
4.58625
21
-6.18657
0
LINE
8
BLACK
6
CONTINUOUS
10
4.58625
20
-6.18657
11
4.58626
21
-6.18657
0
LINE
8
BLACK
6
CONTINUOUS
10
4.58626
20
-6.18657
11
4.58633
21
-6.18663
0
LINE
8
BLACK
6
CONTINUOUS
10
4.58633
20
-6.18663
11
4.5864
21
-6.18668
0
LINE
8
BLACK
6
CONTINUOUS
10
4.5864
20
-6.18668
11
4.59764
21
-6.19716
0
LINE
8
BLACK
6
CONTINUOUS
10
4.59764
20
-6.19716
11
4.59765
21
-6.19717
0
LINE
8
BLACK
6
CONTINUOUS
10
4.59765
20
-6.19717
11
4.59771
21
-6.19724
0
LINE
8
BLACK
6
CONTINUOUS
10
4.59771
20
-6.19724
11
4.59777
21
-6.19731
0
LINE
8
BLACK
6
CONTINUOUS
10
4.59777
20
-6.19731
11
4.60676
21
-6.20977
0
LINE
8
BLACK
6
CONTINUOUS
10
4.60676
20
-6.20977
11
4.60676
21
-6.20977
0
LINE
8
BLACK
6
CONTINUOUS
10
4.60676
20
-6.20977
11
4.60676
21
-6.20977
0
LINE
8
BLACK
6
CONTINUOUS
10
4.60676
20
-6.20977
11
4.60676
21
-6.20978
0
LINE
8
BLACK
6
CONTINUOUS
10
4.60676
20
-6.20978
11
4.60681
21
-6.20986
0
LINE
8
BLACK
6
CONTINUOUS
10
4.60681
20
-6.20986
11
4.60685
21
-6.20994
0
LINE
8
BLACK
6
CONTINUOUS
10
4.60685
20
-6.20994
11
4.61325
21
-6.22391
0
LINE
8
BLACK
6
CONTINUOUS
10
4.61325
20
-6.22391
11
4.61326
21
-6.22392
0
LINE
8
BLACK
6
CONTINUOUS
10
4.61326
20
-6.22392
11
4.61328
21
-6.22401
0
LINE
8
BLACK
6
CONTINUOUS
10
4.61328
20
-6.22401
11
4.61331
21
-6.22409
0
LINE
8
BLACK
6
CONTINUOUS
10
4.61331
20
-6.22409
11
4.61687
21
-6.23904
0
LINE
8
BLACK
6
CONTINUOUS
10
4.61687
20
-6.23904
11
4.61687
21
-6.23904
0
LINE
8
BLACK
6
CONTINUOUS
10
4.61687
20
-6.23904
11
4.61687
21
-6.23904
0
LINE
8
BLACK
6
CONTINUOUS
10
4.61687
20
-6.23904
11
4.61688
21
-6.23905
0
LINE
8
BLACK
6
CONTINUOUS
10
4.61688
20
-6.23905
11
4.61689
21
-6.23914
0
LINE
8
BLACK
6
CONTINUOUS
10
4.61689
20
-6.23914
11
4.6169
21
-6.23923
0
LINE
8
BLACK
6
CONTINUOUS
10
4.6169
20
-6.23923
11
4.61749
21
-6.25459
0
LINE
8
BLACK
6
CONTINUOUS
10
4.61749
20
-6.25459
11
4.61749
21
-6.2546
0
LINE
8
BLACK
6
CONTINUOUS
10
4.61749
20
-6.2546
11
4.61748
21
-6.25469
0
LINE
8
BLACK
6
CONTINUOUS
10
4.61748
20
-6.25469
11
4.61748
21
-6.25478
0
LINE
8
BLACK
6
CONTINUOUS
10
4.61748
20
-6.25478
11
4.61507
21
-6.26996
0
LINE
8
BLACK
6
CONTINUOUS
10
4.61507
20
-6.26996
11
4.61507
21
-6.26997
0
LINE
8
BLACK
6
CONTINUOUS
10
4.61507
20
-6.26997
11
4.61506
21
-6.27001
0
LINE
8
BLACK
6
CONTINUOUS
10
4.61506
20
-6.27001
11
4.61505
21
-6.27006
0
LINE
8
BLACK
6
CONTINUOUS
10
4.61505
20
-6.27006
11
4.61491
21
-6.27058
0
LINE
8
BLACK
6
CONTINUOUS
10
4.61491
20
-6.27058
11
4.61491
21
-6.27059
0
LINE
8
BLACK
6
CONTINUOUS
10
4.61491
20
-6.27059
11
4.61479
21
-6.27107
0
LINE
8
BLACK
6
CONTINUOUS
10
4.61479
20
-6.27107
11
4.6124
21
-6.2861
0
LINE
8
BLACK
6
CONTINUOUS
10
4.6124
20
-6.2861
11
4.61299
21
-6.30127
0
LINE
8
BLACK
6
CONTINUOUS
10
4.61299
20
-6.30127
11
4.6165
21
-6.31603
0
LINE
8
BLACK
6
CONTINUOUS
10
4.6165
20
-6.31603
11
4.62282
21
-6.32982
0
LINE
8
BLACK
6
CONTINUOUS
10
4.62282
20
-6.32982
11
4.6317
21
-6.34213
0
LINE
8
BLACK
6
CONTINUOUS
10
4.6317
20
-6.34213
11
4.64279
21
-6.35248
0
LINE
8
BLACK
6
CONTINUOUS
10
4.64279
20
-6.35248
11
4.65569
21
-6.36048
0
LINE
8
BLACK
6
CONTINUOUS
10
4.65569
20
-6.36048
11
4.66994
21
-6.36583
0
LINE
8
BLACK
6
CONTINUOUS
10
4.66994
20
-6.36583
11
5.20226
21
-6.50847
0
LINE
8
BLACK
6
CONTINUOUS
10
5.20226
20
-6.50847
11
5.23696
21
-6.5148
0
LINE
8
BLACK
6
CONTINUOUS
10
5.23696
20
-6.5148
11
5.38836
21
-6.53861
0
LINE
8
BLACK
6
CONTINUOUS
10
5.38836
20
-6.53861
11
5.54058
21
-6.55631
0
LINE
8
BLACK
6
CONTINUOUS
10
5.54058
20
-6.55631
11
5.69339
21
-6.5679
0
LINE
8
BLACK
6
CONTINUOUS
10
5.69339
20
-6.5679
11
5.84654
21
-6.57334
0
LINE
8
BLACK
6
CONTINUOUS
10
5.84654
20
-6.57334
11
5.99979
21
-6.57263
0
LINE
8
BLACK
6
CONTINUOUS
10
5.99979
20
-6.57263
11
6.15289
21
-6.56577
0
LINE
8
BLACK
6
CONTINUOUS
10
6.15289
20
-6.56577
11
6.30559
21
-6.55278
0
LINE
8
BLACK
6
CONTINUOUS
10
6.30559
20
-6.55278
11
6.45764
21
-6.53366
0
LINE
8
BLACK
6
CONTINUOUS
10
6.45764
20
-6.53366
11
6.60878
21
-6.50846
0
LINE
8
BLACK
6
CONTINUOUS
10
6.60878
20
-6.50846
11
7.14113
21
-6.36582
0
LINE
8
BLACK
6
CONTINUOUS
10
7.14113
20
-6.36582
11
7.14161
21
-6.36569
0
LINE
8
BLACK
6
CONTINUOUS
10
7.14161
20
-6.36569
11
7.15582
21
-6.36024
0
LINE
8
BLACK
6
CONTINUOUS
10
7.15582
20
-6.36024
11
7.16866
21
-6.35215
0
LINE
8
BLACK
6
CONTINUOUS
10
7.16866
20
-6.35215
11
7.17968
21
-6.34172
0
LINE
8
BLACK
6
CONTINUOUS
10
7.17968
20
-6.34172
11
7.18847
21
-6.32935
0
LINE
8
BLACK
6
CONTINUOUS
10
7.18847
20
-6.32935
11
7.1947
21
-6.31551
0
LINE
8
BLACK
6
CONTINUOUS
10
7.1947
20
-6.31551
11
7.19811
21
-6.30073
0
LINE
8
BLACK
6
CONTINUOUS
10
7.19811
20
-6.30073
11
7.19859
21
-6.28556
0
LINE
8
BLACK
6
CONTINUOUS
10
7.19859
20
-6.28556
11
7.19609
21
-6.2705
0
LINE
8
BLACK
6
CONTINUOUS
10
7.19609
20
-6.2705
11
7.19358
21
-6.25533
0
LINE
8
BLACK
6
CONTINUOUS
10
7.19358
20
-6.25533
11
7.19358
21
-6.25532
0
LINE
8
BLACK
6
CONTINUOUS
10
7.19358
20
-6.25532
11
7.19357
21
-6.25523
0
LINE
8
BLACK
6
CONTINUOUS
10
7.19357
20
-6.25523
11
7.19357
21
-6.25514
0
LINE
8
BLACK
6
CONTINUOUS
10
7.19357
20
-6.25514
11
7.19405
21
-6.23978
0
LINE
8
BLACK
6
CONTINUOUS
10
7.19405
20
-6.23978
11
7.19405
21
-6.23977
0
LINE
8
BLACK
6
CONTINUOUS
10
7.19405
20
-6.23977
11
7.19406
21
-6.23968
0
LINE
8
BLACK
6
CONTINUOUS
10
7.19406
20
-6.23968
11
7.19408
21
-6.23959
0
LINE
8
BLACK
6
CONTINUOUS
10
7.19408
20
-6.23959
11
7.19753
21
-6.22462
0
LINE
8
BLACK
6
CONTINUOUS
10
7.19753
20
-6.22462
11
7.19754
21
-6.22461
0
LINE
8
BLACK
6
CONTINUOUS
10
7.19754
20
-6.22461
11
7.19757
21
-6.22452
0
LINE
8
BLACK
6
CONTINUOUS
10
7.19757
20
-6.22452
11
7.19759
21
-6.22444
0
LINE
8
BLACK
6
CONTINUOUS
10
7.19759
20
-6.22444
11
7.20389
21
-6.21042
0
LINE
8
BLACK
6
CONTINUOUS
10
7.20389
20
-6.21042
11
7.2039
21
-6.21041
0
LINE
8
BLACK
6
CONTINUOUS
10
7.2039
20
-6.21041
11
7.20394
21
-6.21033
0
LINE
8
BLACK
6
CONTINUOUS
10
7.20394
20
-6.21033
11
7.20399
21
-6.21025
0
LINE
8
BLACK
6
CONTINUOUS
10
7.20399
20
-6.21025
11
7.21289
21
-6.19773
0
LINE
8
BLACK
6
CONTINUOUS
10
7.21289
20
-6.19773
11
7.2129
21
-6.19772
0
LINE
8
BLACK
6
CONTINUOUS
10
7.2129
20
-6.19772
11
7.21296
21
-6.19765
0
LINE
8
BLACK
6
CONTINUOUS
10
7.21296
20
-6.19765
11
7.21302
21
-6.19758
0
LINE
8
BLACK
6
CONTINUOUS
10
7.21302
20
-6.19758
11
7.22418
21
-6.18702
0
LINE
8
BLACK
6
CONTINUOUS
10
7.22418
20
-6.18702
11
7.22419
21
-6.18701
0
LINE
8
BLACK
6
CONTINUOUS
10
7.22419
20
-6.18701
11
7.22426
21
-6.18696
0
LINE
8
BLACK
6
CONTINUOUS
10
7.22426
20
-6.18696
11
7.22433
21
-6.18691
0
LINE
8
BLACK
6
CONTINUOUS
10
7.22433
20
-6.18691
11
7.23734
21
-6.17872
0
LINE
8
BLACK
6
CONTINUOUS
10
7.23734
20
-6.17872
11
7.23735
21
-6.17871
0
LINE
8
BLACK
6
CONTINUOUS
10
7.23735
20
-6.17871
11
7.23743
21
-6.17867
0
LINE
8
BLACK
6
CONTINUOUS
10
7.23743
20
-6.17867
11
7.23751
21
-6.17863
0
LINE
8
BLACK
6
CONTINUOUS
10
7.23751
20
-6.17863
11
7.25186
21
-6.17312
0
LINE
8
BLACK
6
CONTINUOUS
10
7.25186
20
-6.17312
11
7.25187
21
-6.17312
0
LINE
8
BLACK
6
CONTINUOUS
10
7.25187
20
-6.17312
11
7.25191
21
-6.17311
0
LINE
8
BLACK
6
CONTINUOUS
10
7.25191
20
-6.17311
11
7.25195
21
-6.17309
0
LINE
8
BLACK
6
CONTINUOUS
10
7.25195
20
-6.17309
11
7.25244
21
-6.17296
0
LINE
8
BLACK
6
CONTINUOUS
10
7.25244
20
-6.17296
11
7.25244
21
-6.17296
0
LINE
8
BLACK
6
CONTINUOUS
10
7.25244
20
-6.17296
11
7.25247
21
-6.17295
0
LINE
8
BLACK
6
CONTINUOUS
10
7.25247
20
-6.17295
11
7.25248
21
-6.17295
0
LINE
8
BLACK
6
CONTINUOUS
10
7.25248
20
-6.17295
11
7.25249
21
-6.17295
0
LINE
8
BLACK
6
CONTINUOUS
10
7.25249
20
-6.17295
11
7.2525
21
-6.17295
0
LINE
8
BLACK
6
CONTINUOUS
10
7.2525
20
-6.17295
11
7.7849
21
-6.03029
0
LINE
8
BLACK
6
CONTINUOUS
10
7.7849
20
-6.03029
11
7.78536
21
-6.03016
0
LINE
8
BLACK
6
CONTINUOUS
10
7.78536
20
-6.03016
11
7.79957
21
-6.02471
0
LINE
8
BLACK
6
CONTINUOUS
10
7.79957
20
-6.02471
11
7.81241
21
-6.01662
0
LINE
8
BLACK
6
CONTINUOUS
10
7.81241
20
-6.01662
11
7.82344
21
-6.00619
0
LINE
8
BLACK
6
CONTINUOUS
10
7.82344
20
-6.00619
11
7.83223
21
-5.99383
0
LINE
8
BLACK
6
CONTINUOUS
10
7.83223
20
-5.99383
11
7.83845
21
-5.97998
0
LINE
8
BLACK
6
CONTINUOUS
10
7.83845
20
-5.97998
11
7.84186
21
-5.9652
0
LINE
8
BLACK
6
CONTINUOUS
10
7.84186
20
-5.9652
11
7.84234
21
-5.95003
0
LINE
8
BLACK
6
CONTINUOUS
10
7.84234
20
-5.95003
11
7.83985
21
-5.93497
0
LINE
8
BLACK
6
CONTINUOUS
10
7.83985
20
-5.93497
11
7.83734
21
-5.91981
0
LINE
8
BLACK
6
CONTINUOUS
10
7.83734
20
-5.91981
11
7.83733
21
-5.91979
0
LINE
8
BLACK
6
CONTINUOUS
10
7.83733
20
-5.91979
11
7.83733
21
-5.9197
0
LINE
8
BLACK
6
CONTINUOUS
10
7.83733
20
-5.9197
11
7.83732
21
-5.91961
0
LINE
8
BLACK
6
CONTINUOUS
10
7.83732
20
-5.91961
11
7.83781
21
-5.90425
0
LINE
8
BLACK
6
CONTINUOUS
10
7.83781
20
-5.90425
11
7.83781
21
-5.90424
0
LINE
8
BLACK
6
CONTINUOUS
10
7.83781
20
-5.90424
11
7.83782
21
-5.90415
0
LINE
8
BLACK
6
CONTINUOUS
10
7.83782
20
-5.90415
11
7.83783
21
-5.90406
0
LINE
8
BLACK
6
CONTINUOUS
10
7.83783
20
-5.90406
11
7.84129
21
-5.88909
0
LINE
8
BLACK
6
CONTINUOUS
10
7.84129
20
-5.88909
11
7.84129
21
-5.88908
0
LINE
8
BLACK
6
CONTINUOUS
10
7.84129
20
-5.88908
11
7.84132
21
-5.88899
0
LINE
8
BLACK
6
CONTINUOUS
10
7.84132
20
-5.88899
11
7.84135
21
-5.88891
0
LINE
8
BLACK
6
CONTINUOUS
10
7.84135
20
-5.88891
11
7.84765
21
-5.87489
0
LINE
8
BLACK
6
CONTINUOUS
10
7.84765
20
-5.87489
11
7.84765
21
-5.87488
0
LINE
8
BLACK
6
CONTINUOUS
10
7.84765
20
-5.87488
11
7.8477
21
-5.8748
0
LINE
8
BLACK
6
CONTINUOUS
10
7.8477
20
-5.8748
11
7.84774
21
-5.87472
0
LINE
8
BLACK
6
CONTINUOUS
10
7.84774
20
-5.87472
11
7.85665
21
-5.8622
0
LINE
8
BLACK
6
CONTINUOUS
10
7.85665
20
-5.8622
11
7.85665
21
-5.86219
0
LINE
8
BLACK
6
CONTINUOUS
10
7.85665
20
-5.86219
11
7.85671
21
-5.86212
0
LINE
8
BLACK
6
CONTINUOUS
10
7.85671
20
-5.86212
11
7.85677
21
-5.86205
0
LINE
8
BLACK
6
CONTINUOUS
10
7.85677
20
-5.86205
11
7.86794
21
-5.85149
0
LINE
8
BLACK
6
CONTINUOUS
10
7.86794
20
-5.85149
11
7.86795
21
-5.85148
0
LINE
8
BLACK
6
CONTINUOUS
10
7.86795
20
-5.85148
11
7.86802
21
-5.85143
0
LINE
8
BLACK
6
CONTINUOUS
10
7.86802
20
-5.85143
11
7.86809
21
-5.85138
0
LINE
8
BLACK
6
CONTINUOUS
10
7.86809
20
-5.85138
11
7.88109
21
-5.84319
0
LINE
8
BLACK
6
CONTINUOUS
10
7.88109
20
-5.84319
11
7.88111
21
-5.84318
0
LINE
8
BLACK
6
CONTINUOUS
10
7.88111
20
-5.84318
11
7.88119
21
-5.84314
0
LINE
8
BLACK
6
CONTINUOUS
10
7.88119
20
-5.84314
11
7.88127
21
-5.8431
0
LINE
8
BLACK
6
CONTINUOUS
10
7.88127
20
-5.8431
11
7.89561
21
-5.83759
0
LINE
8
BLACK
6
CONTINUOUS
10
7.89561
20
-5.83759
11
7.89562
21
-5.83759
0
LINE
8
BLACK
6
CONTINUOUS
10
7.89562
20
-5.83759
11
7.89567
21
-5.83758
0
LINE
8
BLACK
6
CONTINUOUS
10
7.89567
20
-5.83758
11
7.89571
21
-5.83756
0
LINE
8
BLACK
6
CONTINUOUS
10
7.89571
20
-5.83756
11
7.89619
21
-5.83743
0
LINE
8
BLACK
6
CONTINUOUS
10
7.89619
20
-5.83743
11
7.89619
21
-5.83743
0
LINE
8
BLACK
6
CONTINUOUS
10
7.89619
20
-5.83743
11
7.89623
21
-5.83742
0
LINE
8
BLACK
6
CONTINUOUS
10
7.89623
20
-5.83742
11
7.89624
21
-5.83742
0
LINE
8
BLACK
6
CONTINUOUS
10
7.89624
20
-5.83742
11
7.89625
21
-5.83742
0
LINE
8
BLACK
6
CONTINUOUS
10
7.89625
20
-5.83742
11
7.89625
21
-5.83742
0
LINE
8
BLACK
6
CONTINUOUS
10
7.89625
20
-5.83742
11
8.42865
21
-5.69476
0
LINE
8
BLACK
6
CONTINUOUS
10
8.42865
20
-5.69476
11
8.42912
21
-5.69463
0
LINE
8
BLACK
6
CONTINUOUS
10
8.42912
20
-5.69463
11
8.44333
21
-5.68918
0
LINE
8
BLACK
6
CONTINUOUS
10
8.44333
20
-5.68918
11
8.45617
21
-5.68109
0
LINE
8
BLACK
6
CONTINUOUS
10
8.45617
20
-5.68109
11
8.4672
21
-5.67067
0
LINE
8
BLACK
6
CONTINUOUS
10
8.4672
20
-5.67067
11
8.47599
21
-5.6583
0
LINE
8
BLACK
6
CONTINUOUS
10
8.47599
20
-5.6583
11
8.48221
21
-5.64446
0
LINE
8
BLACK
6
CONTINUOUS
10
8.48221
20
-5.64446
11
8.48562
21
-5.62967
0
LINE
8
BLACK
6
CONTINUOUS
10
8.48562
20
-5.62967
11
8.4861
21
-5.6145
0
LINE
8
BLACK
6
CONTINUOUS
10
8.4861
20
-5.6145
11
8.4836
21
-5.59944
0
LINE
8
BLACK
6
CONTINUOUS
10
8.4836
20
-5.59944
11
8.48109
21
-5.58428
0
LINE
8
BLACK
6
CONTINUOUS
10
8.48109
20
-5.58428
11
8.48109
21
-5.58426
0
LINE
8
BLACK
6
CONTINUOUS
10
8.48109
20
-5.58426
11
8.48109
21
-5.58417
0
LINE
8
BLACK
6
CONTINUOUS
10
8.48109
20
-5.58417
11
8.48108
21
-5.58408
0
LINE
8
BLACK
6
CONTINUOUS
10
8.48108
20
-5.58408
11
8.48156
21
-5.56872
0
LINE
8
BLACK
6
CONTINUOUS
10
8.48156
20
-5.56872
11
8.48156
21
-5.56871
0
LINE
8
BLACK
6
CONTINUOUS
10
8.48156
20
-5.56871
11
8.48158
21
-5.56862
0
LINE
8
BLACK
6
CONTINUOUS
10
8.48158
20
-5.56862
11
8.48159
21
-5.56853
0
LINE
8
BLACK
6
CONTINUOUS
10
8.48159
20
-5.56853
11
8.48504
21
-5.55356
0
LINE
8
BLACK
6
CONTINUOUS
10
8.48504
20
-5.55356
11
8.48505
21
-5.55355
0
LINE
8
BLACK
6
CONTINUOUS
10
8.48505
20
-5.55355
11
8.48508
21
-5.55346
0
LINE
8
BLACK
6
CONTINUOUS
10
8.48508
20
-5.55346
11
8.48511
21
-5.55338
0
LINE
8
BLACK
6
CONTINUOUS
10
8.48511
20
-5.55338
11
8.4914
21
-5.53936
0
LINE
8
BLACK
6
CONTINUOUS
10
8.4914
20
-5.53936
11
8.49141
21
-5.53935
0
LINE
8
BLACK
6
CONTINUOUS
10
8.49141
20
-5.53935
11
8.49146
21
-5.53927
0
LINE
8
BLACK
6
CONTINUOUS
10
8.49146
20
-5.53927
11
8.4915
21
-5.5392
0
LINE
8
BLACK
6
CONTINUOUS
10
8.4915
20
-5.5392
11
8.5004
21
-5.52667
0
LINE
8
BLACK
6
CONTINUOUS
10
8.5004
20
-5.52667
11
8.50041
21
-5.52666
0
LINE
8
BLACK
6
CONTINUOUS
10
8.50041
20
-5.52666
11
8.50047
21
-5.52659
0
LINE
8
BLACK
6
CONTINUOUS
10
8.50047
20
-5.52659
11
8.50053
21
-5.52652
0
LINE
8
BLACK
6
CONTINUOUS
10
8.50053
20
-5.52652
11
8.51169
21
-5.51596
0
LINE
8
BLACK
6
CONTINUOUS
10
8.51169
20
-5.51596
11
8.5117
21
-5.51596
0
LINE
8
BLACK
6
CONTINUOUS
10
8.5117
20
-5.51596
11
8.51178
21
-5.5159
0
LINE
8
BLACK
6
CONTINUOUS
10
8.51178
20
-5.5159
11
8.51185
21
-5.51585
0
LINE
8
BLACK
6
CONTINUOUS
10
8.51185
20
-5.51585
11
8.52485
21
-5.50766
0
LINE
8
BLACK
6
CONTINUOUS
10
8.52485
20
-5.50766
11
8.52486
21
-5.50765
0
LINE
8
BLACK
6
CONTINUOUS
10
8.52486
20
-5.50765
11
8.52494
21
-5.50761
0
LINE
8
BLACK
6
CONTINUOUS
10
8.52494
20
-5.50761
11
8.52502
21
-5.50757
0
LINE
8
BLACK
6
CONTINUOUS
10
8.52502
20
-5.50757
11
8.53937
21
-5.50206
0
LINE
8
BLACK
6
CONTINUOUS
10
8.53937
20
-5.50206
11
8.53938
21
-5.50206
0
LINE
8
BLACK
6
CONTINUOUS
10
8.53938
20
-5.50206
11
8.53942
21
-5.50205
0
LINE
8
BLACK
6
CONTINUOUS
10
8.53942
20
-5.50205
11
8.53946
21
-5.50203
0
LINE
8
BLACK
6
CONTINUOUS
10
8.53946
20
-5.50203
11
8.53995
21
-5.5019
0
LINE
8
BLACK
6
CONTINUOUS
10
8.53995
20
-5.5019
11
8.53995
21
-5.5019
0
LINE
8
BLACK
6
CONTINUOUS
10
8.53995
20
-5.5019
11
8.53999
21
-5.50189
0
LINE
8
BLACK
6
CONTINUOUS
10
8.53999
20
-5.50189
11
8.53999
21
-5.50189
0
LINE
8
BLACK
6
CONTINUOUS
10
8.53999
20
-5.50189
11
8.54001
21
-5.50189
0
LINE
8
BLACK
6
CONTINUOUS
10
8.54001
20
-5.50189
11
8.54001
21
-5.50189
0
LINE
8
BLACK
6
CONTINUOUS
10
8.54001
20
-5.50189
11
8.92033
21
-5.39998
0
LINE
8
BLACK
6
CONTINUOUS
10
8.92033
20
-5.39998
11
8.92038
21
-5.39997
0
LINE
8
BLACK
6
CONTINUOUS
10
8.92038
20
-5.39997
11
8.92038
21
-5.39997
0
LINE
8
BLACK
6
CONTINUOUS
10
8.92038
20
-5.39997
11
8.93554
21
-5.39746
0
LINE
8
BLACK
6
CONTINUOUS
10
8.93554
20
-5.39746
11
8.93555
21
-5.39746
0
LINE
8
BLACK
6
CONTINUOUS
10
8.93555
20
-5.39746
11
8.93564
21
-5.39745
0
LINE
8
BLACK
6
CONTINUOUS
10
8.93564
20
-5.39745
11
8.93573
21
-5.39745
0
LINE
8
BLACK
6
CONTINUOUS
10
8.93573
20
-5.39745
11
8.95109
21
-5.39793
0
LINE
8
BLACK
6
CONTINUOUS
10
8.95109
20
-5.39793
11
8.9511
21
-5.39793
0
LINE
8
BLACK
6
CONTINUOUS
10
8.9511
20
-5.39793
11
8.95119
21
-5.39794
0
LINE
8
BLACK
6
CONTINUOUS
10
8.95119
20
-5.39794
11
8.95128
21
-5.39796
0
LINE
8
BLACK
6
CONTINUOUS
10
8.95128
20
-5.39796
11
8.96625
21
-5.40141
0
LINE
8
BLACK
6
CONTINUOUS
10
8.96625
20
-5.40141
11
8.96627
21
-5.40142
0
LINE
8
BLACK
6
CONTINUOUS
10
8.96627
20
-5.40142
11
8.96635
21
-5.40145
0
LINE
8
BLACK
6
CONTINUOUS
10
8.96635
20
-5.40145
11
8.96643
21
-5.40147
0
LINE
8
BLACK
6
CONTINUOUS
10
8.96643
20
-5.40147
11
8.98045
21
-5.40777
0
LINE
8
BLACK
6
CONTINUOUS
10
8.98045
20
-5.40777
11
8.98046
21
-5.40778
0
LINE
8
BLACK
6
CONTINUOUS
10
8.98046
20
-5.40778
11
8.98054
21
-5.40783
0
LINE
8
BLACK
6
CONTINUOUS
10
8.98054
20
-5.40783
11
8.98062
21
-5.40787
0
LINE
8
BLACK
6
CONTINUOUS
10
8.98062
20
-5.40787
11
8.99314
21
-5.41677
0
LINE
8
BLACK
6
CONTINUOUS
10
8.99314
20
-5.41677
11
8.99316
21
-5.41678
0
LINE
8
BLACK
6
CONTINUOUS
10
8.99316
20
-5.41678
11
8.99322
21
-5.41684
0
LINE
8
BLACK
6
CONTINUOUS
10
8.99322
20
-5.41684
11
8.99329
21
-5.4169
0
LINE
8
BLACK
6
CONTINUOUS
10
8.99329
20
-5.4169
11
9.00385
21
-5.42806
0
LINE
8
BLACK
6
CONTINUOUS
10
9.00385
20
-5.42806
11
9.00386
21
-5.42807
0
LINE
8
BLACK
6
CONTINUOUS
10
9.00386
20
-5.42807
11
9.00391
21
-5.42815
0
LINE
8
BLACK
6
CONTINUOUS
10
9.00391
20
-5.42815
11
9.00397
21
-5.42821
0
LINE
8
BLACK
6
CONTINUOUS
10
9.00397
20
-5.42821
11
9.01215
21
-5.44122
0
LINE
8
BLACK
6
CONTINUOUS
10
9.01215
20
-5.44122
11
9.01216
21
-5.44123
0
LINE
8
BLACK
6
CONTINUOUS
10
9.01216
20
-5.44123
11
9.0122
21
-5.44131
0
LINE
8
BLACK
6
CONTINUOUS
10
9.0122
20
-5.44131
11
9.01224
21
-5.44139
0
LINE
8
BLACK
6
CONTINUOUS
10
9.01224
20
-5.44139
11
9.01775
21
-5.45574
0
LINE
8
BLACK
6
CONTINUOUS
10
9.01775
20
-5.45574
11
9.01775
21
-5.45575
0
LINE
8
BLACK
6
CONTINUOUS
10
9.01775
20
-5.45575
11
9.01776
21
-5.45579
0
LINE
8
BLACK
6
CONTINUOUS
10
9.01776
20
-5.45579
11
9.01778
21
-5.45583
0
LINE
8
BLACK
6
CONTINUOUS
10
9.01778
20
-5.45583
11
9.01792
21
-5.45636
0
LINE
8
BLACK
6
CONTINUOUS
10
9.01792
20
-5.45636
11
9.01793
21
-5.45637
0
LINE
8
BLACK
6
CONTINUOUS
10
9.01793
20
-5.45637
11
9.01805
21
-5.45685
0
LINE
8
BLACK
6
CONTINUOUS
10
9.01805
20
-5.45685
11
9.02351
21
-5.47105
0
LINE
8
BLACK
6
CONTINUOUS
10
9.02351
20
-5.47105
11
9.03159
21
-5.4839
0
LINE
8
BLACK
6
CONTINUOUS
10
9.03159
20
-5.4839
11
9.04202
21
-5.49492
0
LINE
8
BLACK
6
CONTINUOUS
10
9.04202
20
-5.49492
11
9.05439
21
-5.50371
0
LINE
8
BLACK
6
CONTINUOUS
10
9.05439
20
-5.50371
11
9.06823
21
-5.50993
0
LINE
8
BLACK
6
CONTINUOUS
10
9.06823
20
-5.50993
11
9.08302
21
-5.51334
0
LINE
8
BLACK
6
CONTINUOUS
10
9.08302
20
-5.51334
11
9.09818
21
-5.51382
0
LINE
8
BLACK
6
CONTINUOUS
10
9.09818
20
-5.51382
11
9.1132
21
-5.51134
0
LINE
8
BLACK
6
CONTINUOUS
10
9.1132
20
-5.51134
11
9.6456
21
-5.36868
0
LINE
8
BLACK
6
CONTINUOUS
10
9.6456
20
-5.36868
11
9.64565
21
-5.36867
0
LINE
8
BLACK
6
CONTINUOUS
10
9.64565
20
-5.36867
11
9.64565
21
-5.36867
0
LINE
8
BLACK
6
CONTINUOUS
10
9.64565
20
-5.36867
11
9.66081
21
-5.36616
0
LINE
8
BLACK
6
CONTINUOUS
10
9.66081
20
-5.36616
11
9.66082
21
-5.36616
0
LINE
8
BLACK
6
CONTINUOUS
10
9.66082
20
-5.36616
11
9.66091
21
-5.36615
0
LINE
8
BLACK
6
CONTINUOUS
10
9.66091
20
-5.36615
11
9.661
21
-5.36615
0
LINE
8
BLACK
6
CONTINUOUS
10
9.661
20
-5.36615
11
9.67636
21
-5.36663
0
LINE
8
BLACK
6
CONTINUOUS
10
9.67636
20
-5.36663
11
9.67638
21
-5.36663
0
LINE
8
BLACK
6
CONTINUOUS
10
9.67638
20
-5.36663
11
9.67647
21
-5.36664
0
LINE
8
BLACK
6
CONTINUOUS
10
9.67647
20
-5.36664
11
9.67655
21
-5.36666
0
LINE
8
BLACK
6
CONTINUOUS
10
9.67655
20
-5.36666
11
9.69153
21
-5.37011
0
LINE
8
BLACK
6
CONTINUOUS
10
9.69153
20
-5.37011
11
9.69154
21
-5.37012
0
LINE
8
BLACK
6
CONTINUOUS
10
9.69154
20
-5.37012
11
9.69162
21
-5.37015
0
LINE
8
BLACK
6
CONTINUOUS
10
9.69162
20
-5.37015
11
9.69171
21
-5.37017
0
LINE
8
BLACK
6
CONTINUOUS
10
9.69171
20
-5.37017
11
9.70572
21
-5.37647
0
LINE
8
BLACK
6
CONTINUOUS
10
9.70572
20
-5.37647
11
9.70574
21
-5.37648
0
LINE
8
BLACK
6
CONTINUOUS
10
9.70574
20
-5.37648
11
9.70581
21
-5.37652
0
LINE
8
BLACK
6
CONTINUOUS
10
9.70581
20
-5.37652
11
9.70589
21
-5.37657
0
LINE
8
BLACK
6
CONTINUOUS
10
9.70589
20
-5.37657
11
9.71842
21
-5.38547
0
LINE
8
BLACK
6
CONTINUOUS
10
9.71842
20
-5.38547
11
9.71843
21
-5.38548
0
LINE
8
BLACK
6
CONTINUOUS
10
9.71843
20
-5.38548
11
9.7185
21
-5.38554
0
LINE
8
BLACK
6
CONTINUOUS
10
9.7185
20
-5.38554
11
9.71856
21
-5.3856
0
LINE
8
BLACK
6
CONTINUOUS
10
9.71856
20
-5.3856
11
9.72912
21
-5.39676
0
LINE
8
BLACK
6
CONTINUOUS
10
9.72912
20
-5.39676
11
9.72913
21
-5.39677
0
LINE
8
BLACK
6
CONTINUOUS
10
9.72913
20
-5.39677
11
9.72919
21
-5.39684
0
LINE
8
BLACK
6
CONTINUOUS
10
9.72919
20
-5.39684
11
9.72924
21
-5.39691
0
LINE
8
BLACK
6
CONTINUOUS
10
9.72924
20
-5.39691
11
9.73743
21
-5.40992
0
LINE
8
BLACK
6
CONTINUOUS
10
9.73743
20
-5.40992
11
9.73744
21
-5.40993
0
LINE
8
BLACK
6
CONTINUOUS
10
9.73744
20
-5.40993
11
9.73747
21
-5.41001
0
LINE
8
BLACK
6
CONTINUOUS
10
9.73747
20
-5.41001
11
9.73751
21
-5.41009
0
LINE
8
BLACK
6
CONTINUOUS
10
9.73751
20
-5.41009
11
9.74302
21
-5.42444
0
LINE
8
BLACK
6
CONTINUOUS
10
9.74302
20
-5.42444
11
9.74303
21
-5.42445
0
LINE
8
BLACK
6
CONTINUOUS
10
9.74303
20
-5.42445
11
9.74304
21
-5.42449
0
LINE
8
BLACK
6
CONTINUOUS
10
9.74304
20
-5.42449
11
9.74305
21
-5.42453
0
LINE
8
BLACK
6
CONTINUOUS
10
9.74305
20
-5.42453
11
9.7432
21
-5.42506
0
LINE
8
BLACK
6
CONTINUOUS
10
9.7432
20
-5.42506
11
9.7432
21
-5.42507
0
LINE
8
BLACK
6
CONTINUOUS
10
9.7432
20
-5.42507
11
9.74333
21
-5.42554
0
LINE
8
BLACK
6
CONTINUOUS
10
9.74333
20
-5.42554
11
9.74878
21
-5.43975
0
LINE
8
BLACK
6
CONTINUOUS
10
9.74878
20
-5.43975
11
9.75687
21
-5.45259
0
LINE
8
BLACK
6
CONTINUOUS
10
9.75687
20
-5.45259
11
9.76729
21
-5.46362
0
LINE
8
BLACK
6
CONTINUOUS
10
9.76729
20
-5.46362
11
9.77966
21
-5.47241
0
LINE
8
BLACK
6
CONTINUOUS
10
9.77966
20
-5.47241
11
9.7935
21
-5.47863
0
LINE
8
BLACK
6
CONTINUOUS
10
9.7935
20
-5.47863
11
9.80829
21
-5.48204
0
LINE
8
BLACK
6
CONTINUOUS
10
9.80829
20
-5.48204
11
9.82346
21
-5.48252
0
LINE
8
BLACK
6
CONTINUOUS
10
9.82346
20
-5.48252
11
9.83848
21
-5.48003
0
LINE
8
BLACK
6
CONTINUOUS
10
9.83848
20
-5.48003
11
10.523
21
-5.29663
0
LINE
8
BLACK
6
CONTINUOUS
10
10.523
20
-5.29663
11
10.5234
21
-5.2965
0
LINE
8
BLACK
6
CONTINUOUS
10
10.5234
20
-5.2965
11
10.5376
21
-5.29105
0
LINE
8
BLACK
6
CONTINUOUS
10
10.5376
20
-5.29105
11
10.5505
21
-5.28296
0
LINE
8
BLACK
6
CONTINUOUS
10
10.5505
20
-5.28296
11
10.5615
21
-5.27253
0
LINE
8
BLACK
6
CONTINUOUS
10
10.5615
20
-5.27253
11
10.5703
21
-5.26017
0
LINE
8
BLACK
6
CONTINUOUS
10
10.5703
20
-5.26017
11
10.5765
21
-5.24632
0
LINE
8
BLACK
6
CONTINUOUS
10
10.5765
20
-5.24632
11
10.5799
21
-5.23154
0
LINE
8
BLACK
6
CONTINUOUS
10
10.5799
20
-5.23154
11
10.5804
21
-5.21637
0
LINE
8
BLACK
6
CONTINUOUS
10
10.5804
20
-5.21637
11
10.5779
21
-5.20135
0
LINE
8
BLACK
6
CONTINUOUS
10
10.5779
20
-5.20135
11
9.82389
21
-2.38729
0
LINE
8
BLACK
6
CONTINUOUS
10
9.82389
20
-2.38729
11
9.82375
21
-2.38681
0
LINE
8
BLACK
6
CONTINUOUS
10
9.82375
20
-2.38681
11
9.8183
21
-2.3726
0
LINE
8
BLACK
6
CONTINUOUS
10
9.8183
20
-2.3726
11
9.81021
21
-2.35976
0
LINE
8
BLACK
6
CONTINUOUS
10
9.81021
20
-2.35976
11
9.79979
21
-2.34873
0
LINE
8
BLACK
6
CONTINUOUS
10
9.79979
20
-2.34873
11
9.78742
21
-2.33994
0
LINE
8
BLACK
6
CONTINUOUS
10
9.78742
20
-2.33994
11
9.77358
21
-2.33372
0
LINE
8
BLACK
6
CONTINUOUS
10
9.77358
20
-2.33372
11
9.75879
21
-2.33031
0
LINE
8
BLACK
6
CONTINUOUS
10
9.75879
20
-2.33031
11
9.74363
21
-2.32983
0
LINE
8
BLACK
6
CONTINUOUS
10
9.74363
20
-2.32983
11
9.72861
21
-2.33232
0
LINE
8
BLACK
6
CONTINUOUS
10
9.72861
20
-2.33232
11
9.19621
21
-2.47497
0
LINE
8
BLACK
6
CONTINUOUS
10
9.19621
20
-2.47497
11
9.19616
21
-2.47498
0
LINE
8
BLACK
6
CONTINUOUS
10
9.19616
20
-2.47498
11
9.19616
21
-2.47498
0
LINE
8
BLACK
6
CONTINUOUS
10
9.19616
20
-2.47498
11
9.181
21
-2.47749
0
LINE
8
BLACK
6
CONTINUOUS
10
9.181
20
-2.47749
11
9.181
21
-2.47749
0
LINE
8
BLACK
6
CONTINUOUS
10
9.181
20
-2.47749
11
9.18098
21
-2.47749
0
LINE
8
BLACK
6
CONTINUOUS
10
9.18098
20
-2.47749
11
9.18089
21
-2.4775
0
LINE
8
BLACK
6
CONTINUOUS
10
9.18089
20
-2.4775
11
9.18081
21
-2.4775
0
LINE
8
BLACK
6
CONTINUOUS
10
9.18081
20
-2.4775
11
9.16545
21
-2.47702
0
LINE
8
BLACK
6
CONTINUOUS
10
9.16545
20
-2.47702
11
9.16543
21
-2.47702
0
LINE
8
BLACK
6
CONTINUOUS
10
9.16543
20
-2.47702
11
9.16534
21
-2.47701
0
LINE
8
BLACK
6
CONTINUOUS
10
9.16534
20
-2.47701
11
9.16526
21
-2.477
0
LINE
8
BLACK
6
CONTINUOUS
10
9.16526
20
-2.477
11
9.15028
21
-2.47354
0
LINE
8
BLACK
6
CONTINUOUS
10
9.15028
20
-2.47354
11
9.15027
21
-2.47354
0
LINE
8
BLACK
6
CONTINUOUS
10
9.15027
20
-2.47354
11
9.15018
21
-2.47351
0
LINE
8
BLACK
6
CONTINUOUS
10
9.15018
20
-2.47351
11
9.1501
21
-2.47348
0
LINE
8
BLACK
6
CONTINUOUS
10
9.1501
20
-2.47348
11
9.13608
21
-2.46718
0
LINE
8
BLACK
6
CONTINUOUS
10
9.13608
20
-2.46718
11
9.13607
21
-2.46717
0
LINE
8
BLACK
6
CONTINUOUS
10
9.13607
20
-2.46717
11
9.13599
21
-2.46713
0
LINE
8
BLACK
6
CONTINUOUS
10
9.13599
20
-2.46713
11
9.13592
21
-2.46708
0
LINE
8
BLACK
6
CONTINUOUS
10
9.13592
20
-2.46708
11
9.12339
21
-2.45818
0
LINE
8
BLACK
6
CONTINUOUS
10
9.12339
20
-2.45818
11
9.12339
21
-2.45818
0
LINE
8
BLACK
6
CONTINUOUS
10
9.12339
20
-2.45818
11
9.12339
21
-2.45818
0
LINE
8
BLACK
6
CONTINUOUS
10
9.12339
20
-2.45818
11
9.12338
21
-2.45817
0
LINE
8
BLACK
6
CONTINUOUS
10
9.12338
20
-2.45817
11
9.12331
21
-2.45811
0
LINE
8
BLACK
6
CONTINUOUS
10
9.12331
20
-2.45811
11
9.12325
21
-2.45805
0
LINE
8
BLACK
6
CONTINUOUS
10
9.12325
20
-2.45805
11
9.11269
21
-2.44689
0
LINE
8
BLACK
6
CONTINUOUS
10
9.11269
20
-2.44689
11
9.11269
21
-2.44689
0
LINE
8
BLACK
6
CONTINUOUS
10
9.11269
20
-2.44689
11
9.11269
21
-2.44689
0
LINE
8
BLACK
6
CONTINUOUS
10
9.11269
20
-2.44689
11
9.11268
21
-2.44688
0
LINE
8
BLACK
6
CONTINUOUS
10
9.11268
20
-2.44688
11
9.11262
21
-2.44681
0
LINE
8
BLACK
6
CONTINUOUS
10
9.11262
20
-2.44681
11
9.11257
21
-2.44674
0
LINE
8
BLACK
6
CONTINUOUS
10
9.11257
20
-2.44674
11
9.10438
21
-2.43373
0
LINE
8
BLACK
6
CONTINUOUS
10
9.10438
20
-2.43373
11
9.10437
21
-2.43372
0
LINE
8
BLACK
6
CONTINUOUS
10
9.10437
20
-2.43372
11
9.10433
21
-2.43364
0
LINE
8
BLACK
6
CONTINUOUS
10
9.10433
20
-2.43364
11
9.10429
21
-2.43356
0
LINE
8
BLACK
6
CONTINUOUS
10
9.10429
20
-2.43356
11
9.09879
21
-2.41921
0
LINE
8
BLACK
6
CONTINUOUS
10
9.09879
20
-2.41921
11
9.09878
21
-2.4192
0
LINE
8
BLACK
6
CONTINUOUS
10
9.09878
20
-2.4192
11
9.09877
21
-2.41916
0
LINE
8
BLACK
6
CONTINUOUS
10
9.09877
20
-2.41916
11
9.09876
21
-2.41912
0
LINE
8
BLACK
6
CONTINUOUS
10
9.09876
20
-2.41912
11
9.09861
21
-2.41859
0
LINE
8
BLACK
6
CONTINUOUS
10
9.09861
20
-2.41859
11
9.09848
21
-2.41811
0
LINE
8
BLACK
6
CONTINUOUS
10
9.09848
20
-2.41811
11
9.09303
21
-2.4039
0
LINE
8
BLACK
6
CONTINUOUS
10
9.09303
20
-2.4039
11
9.08494
21
-2.39106
0
LINE
8
BLACK
6
CONTINUOUS
10
9.08494
20
-2.39106
11
9.07451
21
-2.38003
0
LINE
8
BLACK
6
CONTINUOUS
10
9.07451
20
-2.38003
11
9.06215
21
-2.37124
0
LINE
8
BLACK
6
CONTINUOUS
10
9.06215
20
-2.37124
11
9.0483
21
-2.36502
0
LINE
8
BLACK
6
CONTINUOUS
10
9.0483
20
-2.36502
11
9.03352
21
-2.36161
0
LINE
8
BLACK
6
CONTINUOUS
10
9.03352
20
-2.36161
11
9.01835
21
-2.36113
0
LINE
8
BLACK
6
CONTINUOUS
10
9.01835
20
-2.36113
11
9.00333
21
-2.36362
0
LINE
8
BLACK
6
CONTINUOUS
10
9.00333
20
-2.36362
11
8.47093
21
-2.50627
0
LINE
8
BLACK
6
CONTINUOUS
10
8.47093
20
-2.50627
11
8.47089
21
-2.50628
0
LINE
8
BLACK
6
CONTINUOUS
10
8.47089
20
-2.50628
11
8.47089
21
-2.50628
0
LINE
8
BLACK
6
CONTINUOUS
10
8.47089
20
-2.50628
11
8.45573
21
-2.50879
0
LINE
8
BLACK
6
CONTINUOUS
10
8.45573
20
-2.50879
11
8.45573
21
-2.50879
0
LINE
8
BLACK
6
CONTINUOUS
10
8.45573
20
-2.50879
11
8.45571
21
-2.50879
0
LINE
8
BLACK
6
CONTINUOUS
10
8.45571
20
-2.50879
11
8.45562
21
-2.5088
0
LINE
8
BLACK
6
CONTINUOUS
10
8.45562
20
-2.5088
11
8.45553
21
-2.5088
0
LINE
8
BLACK
6
CONTINUOUS
10
8.45553
20
-2.5088
11
8.44017
21
-2.50832
0
LINE
8
BLACK
6
CONTINUOUS
10
8.44017
20
-2.50832
11
8.44016
21
-2.50832
0
LINE
8
BLACK
6
CONTINUOUS
10
8.44016
20
-2.50832
11
8.44007
21
-2.50831
0
LINE
8
BLACK
6
CONTINUOUS
10
8.44007
20
-2.50831
11
8.43998
21
-2.5083
0
LINE
8
BLACK
6
CONTINUOUS
10
8.43998
20
-2.5083
11
8.42501
21
-2.50484
0
LINE
8
BLACK
6
CONTINUOUS
10
8.42501
20
-2.50484
11
8.425
21
-2.50484
0
LINE
8
BLACK
6
CONTINUOUS
10
8.425
20
-2.50484
11
8.42491
21
-2.50481
0
LINE
8
BLACK
6
CONTINUOUS
10
8.42491
20
-2.50481
11
8.42483
21
-2.50478
0
LINE
8
BLACK
6
CONTINUOUS
10
8.42483
20
-2.50478
11
8.41081
21
-2.49848
0
LINE
8
BLACK
6
CONTINUOUS
10
8.41081
20
-2.49848
11
8.4108
21
-2.49847
0
LINE
8
BLACK
6
CONTINUOUS
10
8.4108
20
-2.49847
11
8.41072
21
-2.49843
0
LINE
8
BLACK
6
CONTINUOUS
10
8.41072
20
-2.49843
11
8.41064
21
-2.49838
0
LINE
8
BLACK
6
CONTINUOUS
10
8.41064
20
-2.49838
11
8.39812
21
-2.48948
0
LINE
8
BLACK
6
CONTINUOUS
10
8.39812
20
-2.48948
11
8.39812
21
-2.48948
0
LINE
8
BLACK
6
CONTINUOUS
10
8.39812
20
-2.48948
11
8.39812
21
-2.48948
0
LINE
8
BLACK
6
CONTINUOUS
10
8.39812
20
-2.48948
11
8.39811
21
-2.48947
0
LINE
8
BLACK
6
CONTINUOUS
10
8.39811
20
-2.48947
11
8.39804
21
-2.48941
0
LINE
8
BLACK
6
CONTINUOUS
10
8.39804
20
-2.48941
11
8.39797
21
-2.48935
0
LINE
8
BLACK
6
CONTINUOUS
10
8.39797
20
-2.48935
11
8.38741
21
-2.47819
0
LINE
8
BLACK
6
CONTINUOUS
10
8.38741
20
-2.47819
11
8.38741
21
-2.47819
0
LINE
8
BLACK
6
CONTINUOUS
10
8.38741
20
-2.47819
11
8.38741
21
-2.47819
0
LINE
8
BLACK
6
CONTINUOUS
10
8.38741
20
-2.47819
11
8.3874
21
-2.47818
0
LINE
8
BLACK
6
CONTINUOUS
10
8.3874
20
-2.47818
11
8.38735
21
-2.47811
0
LINE
8
BLACK
6
CONTINUOUS
10
8.38735
20
-2.47811
11
8.3873
21
-2.47804
0
LINE
8
BLACK
6
CONTINUOUS
10
8.3873
20
-2.47804
11
8.37911
21
-2.46503
0
LINE
8
BLACK
6
CONTINUOUS
10
8.37911
20
-2.46503
11
8.3791
21
-2.46502
0
LINE
8
BLACK
6
CONTINUOUS
10
8.3791
20
-2.46502
11
8.37906
21
-2.46494
0
LINE
8
BLACK
6
CONTINUOUS
10
8.37906
20
-2.46494
11
8.37902
21
-2.46486
0
LINE
8
BLACK
6
CONTINUOUS
10
8.37902
20
-2.46486
11
8.37351
21
-2.45052
0
LINE
8
BLACK
6
CONTINUOUS
10
8.37351
20
-2.45052
11
8.37351
21
-2.4505
0
LINE
8
BLACK
6
CONTINUOUS
10
8.37351
20
-2.4505
11
8.3735
21
-2.45046
0
LINE
8
BLACK
6
CONTINUOUS
10
8.3735
20
-2.45046
11
8.37348
21
-2.45042
0
LINE
8
BLACK
6
CONTINUOUS
10
8.37348
20
-2.45042
11
8.37334
21
-2.44989
0
LINE
8
BLACK
6
CONTINUOUS
10
8.37334
20
-2.44989
11
8.37321
21
-2.44941
0
LINE
8
BLACK
6
CONTINUOUS
10
8.37321
20
-2.44941
11
8.36775
21
-2.4352
0
LINE
8
BLACK
6
CONTINUOUS
10
8.36775
20
-2.4352
11
8.35967
21
-2.42236
0
LINE
8
BLACK
6
CONTINUOUS
10
8.35967
20
-2.42236
11
8.34924
21
-2.41133
0
LINE
8
BLACK
6
CONTINUOUS
10
8.34924
20
-2.41133
11
8.33687
21
-2.40254
0
LINE
8
BLACK
6
CONTINUOUS
10
8.33687
20
-2.40254
11
8.32303
21
-2.39632
0
LINE
8
BLACK
6
CONTINUOUS
10
8.32303
20
-2.39632
11
8.30825
21
-2.39291
0
LINE
8
BLACK
6
CONTINUOUS
10
8.30825
20
-2.39291
11
8.29308
21
-2.39243
0
LINE
8
BLACK
6
CONTINUOUS
10
8.29308
20
-2.39243
11
8.27806
21
-2.39492
0
LINE
8
BLACK
6
CONTINUOUS
10
8.27806
20
-2.39492
11
7.5936
21
-2.57832
0
LINE
8
BLACK
6
CONTINUOUS
10
7.5936
20
-2.57832
11
7.5936
21
-2.57832
0
LINE
8
BLACK
6
CONTINUOUS
10
7.5936
20
-2.57832
11
7.59311
21
-2.57845
0
LINE
8
BLACK
6
CONTINUOUS
10
7.59311
20
-2.57845
11
7.5789
21
-2.58391
0
LINE
8
BLACK
6
CONTINUOUS
10
7.5789
20
-2.58391
11
7.56606
21
-2.59199
0
LINE
8
BLACK
6
CONTINUOUS
10
7.56606
20
-2.59199
11
7.55504
21
-2.60242
0
LINE
8
BLACK
6
CONTINUOUS
10
7.55504
20
-2.60242
11
7.54625
21
-2.61479
0
LINE
8
BLACK
6
CONTINUOUS
10
7.54625
20
-2.61479
11
7.54003
21
-2.62863
0
LINE
8
BLACK
6
CONTINUOUS
10
7.54003
20
-2.62863
11
7.53661
21
-2.64341
0
LINE
8
BLACK
6
CONTINUOUS
10
7.53661
20
-2.64341
11
7.53614
21
-2.65858
0
LINE
8
BLACK
6
CONTINUOUS
10
7.53614
20
-2.65858
11
7.53863
21
-2.67365
0
LINE
8
BLACK
6
CONTINUOUS
10
7.53863
20
-2.67365
11
7.53863
21
-2.67365
0
LINE
8
BLACK
6
CONTINUOUS
10
7.53863
20
-2.67365
11
7.54114
21
-2.68881
0
LINE
8
BLACK
6
CONTINUOUS
10
7.54114
20
-2.68881
11
7.54114
21
-2.68882
0
LINE
8
BLACK
6
CONTINUOUS
10
7.54114
20
-2.68882
11
7.54115
21
-2.68891
0
LINE
8
BLACK
6
CONTINUOUS
10
7.54115
20
-2.68891
11
7.54115
21
-2.689
0
LINE
8
BLACK
6
CONTINUOUS
10
7.54115
20
-2.689
11
7.54067
21
-2.70436
0
LINE
8
BLACK
6
CONTINUOUS
10
7.54067
20
-2.70436
11
7.54067
21
-2.70437
0
LINE
8
BLACK
6
CONTINUOUS
10
7.54067
20
-2.70437
11
7.54066
21
-2.70446
0
LINE
8
BLACK
6
CONTINUOUS
10
7.54066
20
-2.70446
11
7.54065
21
-2.70455
0
LINE
8
BLACK
6
CONTINUOUS
10
7.54065
20
-2.70455
11
7.53719
21
-2.71952
0
LINE
8
BLACK
6
CONTINUOUS
10
7.53719
20
-2.71952
11
7.53719
21
-2.71954
0
LINE
8
BLACK
6
CONTINUOUS
10
7.53719
20
-2.71954
11
7.53716
21
-2.71962
0
LINE
8
BLACK
6
CONTINUOUS
10
7.53716
20
-2.71962
11
7.53713
21
-2.7197
0
LINE
8
BLACK
6
CONTINUOUS
10
7.53713
20
-2.7197
11
7.53083
21
-2.73372
0
LINE
8
BLACK
6
CONTINUOUS
10
7.53083
20
-2.73372
11
7.53082
21
-2.73373
0
LINE
8
BLACK
6
CONTINUOUS
10
7.53082
20
-2.73373
11
7.53078
21
-2.73381
0
LINE
8
BLACK
6
CONTINUOUS
10
7.53078
20
-2.73381
11
7.53073
21
-2.73389
0
LINE
8
BLACK
6
CONTINUOUS
10
7.53073
20
-2.73389
11
7.52183
21
-2.74641
0
LINE
8
BLACK
6
CONTINUOUS
10
7.52183
20
-2.74641
11
7.52183
21
-2.74641
0
LINE
8
BLACK
6
CONTINUOUS
10
7.52183
20
-2.74641
11
7.52183
21
-2.74641
0
LINE
8
BLACK
6
CONTINUOUS
10
7.52183
20
-2.74641
11
7.52182
21
-2.74643
0
LINE
8
BLACK
6
CONTINUOUS
10
7.52182
20
-2.74643
11
7.52176
21
-2.74649
0
LINE
8
BLACK
6
CONTINUOUS
10
7.52176
20
-2.74649
11
7.52171
21
-2.74656
0
LINE
8
BLACK
6
CONTINUOUS
10
7.52171
20
-2.74656
11
7.51054
21
-2.75712
0
LINE
8
BLACK
6
CONTINUOUS
10
7.51054
20
-2.75712
11
7.51054
21
-2.75712
0
LINE
8
BLACK
6
CONTINUOUS
10
7.51054
20
-2.75712
11
7.51054
21
-2.75712
0
LINE
8
BLACK
6
CONTINUOUS
10
7.51054
20
-2.75712
11
7.51053
21
-2.75713
0
LINE
8
BLACK
6
CONTINUOUS
10
7.51053
20
-2.75713
11
7.51046
21
-2.75718
0
LINE
8
BLACK
6
CONTINUOUS
10
7.51046
20
-2.75718
11
7.51039
21
-2.75724
0
LINE
8
BLACK
6
CONTINUOUS
10
7.51039
20
-2.75724
11
7.49738
21
-2.76542
0
LINE
8
BLACK
6
CONTINUOUS
10
7.49738
20
-2.76542
11
7.49737
21
-2.76543
0
LINE
8
BLACK
6
CONTINUOUS
10
7.49737
20
-2.76543
11
7.49729
21
-2.76547
0
LINE
8
BLACK
6
CONTINUOUS
10
7.49729
20
-2.76547
11
7.49721
21
-2.76551
0
LINE
8
BLACK
6
CONTINUOUS
10
7.49721
20
-2.76551
11
7.48287
21
-2.77102
0
LINE
8
BLACK
6
CONTINUOUS
10
7.48287
20
-2.77102
11
7.48285
21
-2.77102
0
LINE
8
BLACK
6
CONTINUOUS
10
7.48285
20
-2.77102
11
7.48281
21
-2.77103
0
LINE
8
BLACK
6
CONTINUOUS
10
7.48281
20
-2.77103
11
7.48277
21
-2.77105
0
LINE
8
BLACK
6
CONTINUOUS
10
7.48277
20
-2.77105
11
7.48228
21
-2.77118
0
LINE
8
BLACK
6
CONTINUOUS
10
7.48228
20
-2.77118
11
7.48228
21
-2.77118
0
LINE
8
BLACK
6
CONTINUOUS
10
7.48228
20
-2.77118
11
7.48227
21
-2.77119
0
LINE
8
BLACK
6
CONTINUOUS
10
7.48227
20
-2.77119
11
7.48224
21
-2.77119
0
LINE
8
BLACK
6
CONTINUOUS
10
7.48224
20
-2.77119
11
7.48223
21
-2.7712
0
LINE
8
BLACK
6
CONTINUOUS
10
7.48223
20
-2.7712
11
7.48223
21
-2.7712
0
LINE
8
BLACK
6
CONTINUOUS
10
7.48223
20
-2.7712
11
6.94984
21
-2.91385
0
LINE
8
BLACK
6
CONTINUOUS
10
6.94984
20
-2.91385
11
6.94984
21
-2.91385
0
LINE
8
BLACK
6
CONTINUOUS
10
6.94984
20
-2.91385
11
6.94936
21
-2.91398
0
LINE
8
BLACK
6
CONTINUOUS
10
6.94936
20
-2.91398
11
6.93515
21
-2.91943
0
LINE
8
BLACK
6
CONTINUOUS
10
6.93515
20
-2.91943
11
6.92231
21
-2.92752
0
LINE
8
BLACK
6
CONTINUOUS
10
6.92231
20
-2.92752
11
6.91128
21
-2.93795
0
LINE
8
BLACK
6
CONTINUOUS
10
6.91128
20
-2.93795
11
6.90249
21
-2.95032
0
LINE
8
BLACK
6
CONTINUOUS
10
6.90249
20
-2.95032
11
6.89627
21
-2.96416
0
LINE
8
BLACK
6
CONTINUOUS
10
6.89627
20
-2.96416
11
6.89286
21
-2.97894
0
LINE
8
BLACK
6
CONTINUOUS
10
6.89286
20
-2.97894
11
6.89238
21
-2.99411
0
LINE
8
BLACK
6
CONTINUOUS
10
6.89238
20
-2.99411
11
6.89488
21
-3.00918
0
LINE
8
BLACK
6
CONTINUOUS
10
6.89488
20
-3.00918
11
6.89488
21
-3.00918
0
LINE
8
BLACK
6
CONTINUOUS
10
6.89488
20
-3.00918
11
6.89739
21
-3.02434
0
LINE
8
BLACK
6
CONTINUOUS
10
6.89739
20
-3.02434
11
6.89739
21
-3.02435
0
LINE
8
BLACK
6
CONTINUOUS
10
6.89739
20
-3.02435
11
6.89739
21
-3.02444
0
LINE
8
BLACK
6
CONTINUOUS
10
6.89739
20
-3.02444
11
6.8974
21
-3.02453
0
LINE
8
BLACK
6
CONTINUOUS
10
6.8974
20
-3.02453
11
6.89692
21
-3.03989
0
LINE
8
BLACK
6
CONTINUOUS
10
6.89692
20
-3.03989
11
6.89692
21
-3.0399
0
LINE
8
BLACK
6
CONTINUOUS
10
6.89692
20
-3.0399
11
6.8969
21
-3.03999
0
LINE
8
BLACK
6
CONTINUOUS
10
6.8969
20
-3.03999
11
6.89689
21
-3.04008
0
LINE
8
BLACK
6
CONTINUOUS
10
6.89689
20
-3.04008
11
6.89343
21
-3.05505
0
LINE
8
BLACK
6
CONTINUOUS
10
6.89343
20
-3.05505
11
6.89343
21
-3.05506
0
LINE
8
BLACK
6
CONTINUOUS
10
6.89343
20
-3.05506
11
6.8934
21
-3.05515
0
LINE
8
BLACK
6
CONTINUOUS
10
6.8934
20
-3.05515
11
6.89337
21
-3.05523
0
LINE
8
BLACK
6
CONTINUOUS
10
6.89337
20
-3.05523
11
6.88707
21
-3.06925
0
LINE
8
BLACK
6
CONTINUOUS
10
6.88707
20
-3.06925
11
6.88707
21
-3.06926
0
LINE
8
BLACK
6
CONTINUOUS
10
6.88707
20
-3.06926
11
6.88702
21
-3.06934
0
LINE
8
BLACK
6
CONTINUOUS
10
6.88702
20
-3.06934
11
6.88698
21
-3.06942
0
LINE
8
BLACK
6
CONTINUOUS
10
6.88698
20
-3.06942
11
6.87808
21
-3.08194
0
LINE
8
BLACK
6
CONTINUOUS
10
6.87808
20
-3.08194
11
6.87808
21
-3.08194
0
LINE
8
BLACK
6
CONTINUOUS
10
6.87808
20
-3.08194
11
6.87808
21
-3.08194
0
LINE
8
BLACK
6
CONTINUOUS
10
6.87808
20
-3.08194
11
6.87807
21
-3.08195
0
LINE
8
BLACK
6
CONTINUOUS
10
6.87807
20
-3.08195
11
6.87801
21
-3.08202
0
LINE
8
BLACK
6
CONTINUOUS
10
6.87801
20
-3.08202
11
6.87795
21
-3.08209
0
LINE
8
BLACK
6
CONTINUOUS
10
6.87795
20
-3.08209
11
6.86678
21
-3.09265
0
LINE
8
BLACK
6
CONTINUOUS
10
6.86678
20
-3.09265
11
6.86678
21
-3.09265
0
LINE
8
BLACK
6
CONTINUOUS
10
6.86678
20
-3.09265
11
6.86678
21
-3.09265
0
LINE
8
BLACK
6
CONTINUOUS
10
6.86678
20
-3.09265
11
6.86677
21
-3.09266
0
LINE
8
BLACK
6
CONTINUOUS
10
6.86677
20
-3.09266
11
6.8667
21
-3.09271
0
LINE
8
BLACK
6
CONTINUOUS
10
6.8667
20
-3.09271
11
6.86663
21
-3.09277
0
LINE
8
BLACK
6
CONTINUOUS
10
6.86663
20
-3.09277
11
6.85363
21
-3.10095
0
LINE
8
BLACK
6
CONTINUOUS
10
6.85363
20
-3.10095
11
6.85362
21
-3.10096
0
LINE
8
BLACK
6
CONTINUOUS
10
6.85362
20
-3.10096
11
6.85354
21
-3.101
0
LINE
8
BLACK
6
CONTINUOUS
10
6.85354
20
-3.101
11
6.85346
21
-3.10104
0
LINE
8
BLACK
6
CONTINUOUS
10
6.85346
20
-3.10104
11
6.83911
21
-3.10655
0
LINE
8
BLACK
6
CONTINUOUS
10
6.83911
20
-3.10655
11
6.8391
21
-3.10655
0
LINE
8
BLACK
6
CONTINUOUS
10
6.8391
20
-3.10655
11
6.83906
21
-3.10656
0
LINE
8
BLACK
6
CONTINUOUS
10
6.83906
20
-3.10656
11
6.83902
21
-3.10658
0
LINE
8
BLACK
6
CONTINUOUS
10
6.83902
20
-3.10658
11
6.8385
21
-3.10672
0
LINE
8
BLACK
6
CONTINUOUS
10
6.8385
20
-3.10672
11
6.8153
21
-3.11395
0
LINE
8
BLACK
6
CONTINUOUS
10
6.8153
20
-3.11395
11
6.81528
21
-3.11396
0
LINE
8
BLACK
6
CONTINUOUS
10
6.81528
20
-3.11396
11
6.67866
21
-3.15066
0
LINE
8
BLACK
6
CONTINUOUS
10
6.67866
20
-3.15066
11
6.67862
21
-3.15067
0
LINE
8
BLACK
6
CONTINUOUS
10
6.67862
20
-3.15067
11
6.54049
21
-3.18138
0
LINE
8
BLACK
6
CONTINUOUS
10
6.54049
20
-3.18138
11
6.54045
21
-3.18139
0
LINE
8
BLACK
6
CONTINUOUS
10
6.54045
20
-3.18139
11
6.54045
21
-3.18139
0
LINE
8
BLACK
6
CONTINUOUS
10
6.54045
20
-3.18139
11
6.40112
21
-3.20605
0
LINE
8
BLACK
6
CONTINUOUS
10
6.40112
20
-3.20605
11
6.40108
21
-3.20606
0
LINE
8
BLACK
6
CONTINUOUS
10
6.40108
20
-3.20606
11
6.40107
21
-3.20606
0
LINE
8
BLACK
6
CONTINUOUS
10
6.40107
20
-3.20606
11
6.2608
21
-3.22462
0
LINE
8
BLACK
6
CONTINUOUS
10
6.2608
20
-3.22462
11
6.26076
21
-3.22463
0
LINE
8
BLACK
6
CONTINUOUS
10
6.26076
20
-3.22463
11
6.11981
21
-3.23705
0
LINE
8
BLACK
6
CONTINUOUS
10
6.11981
20
-3.23705
11
6.11976
21
-3.23705
0
LINE
8
BLACK
6
CONTINUOUS
10
6.11976
20
-3.23705
11
5.9784
21
-3.24332
0
LINE
8
BLACK
6
CONTINUOUS
10
5.9784
20
-3.24332
11
5.97836
21
-3.24332
0
LINE
8
BLACK
6
CONTINUOUS
10
5.97836
20
-3.24332
11
5.97836
21
-3.24332
0
LINE
8
BLACK
6
CONTINUOUS
10
5.97836
20
-3.24332
11
5.83686
21
-3.24341
0
LINE
8
BLACK
6
CONTINUOUS
10
5.83686
20
-3.24341
11
5.83682
21
-3.24341
0
LINE
8
BLACK
6
CONTINUOUS
10
5.83682
20
-3.24341
11
5.69545
21
-3.23733
0
LINE
8
BLACK
6
CONTINUOUS
10
5.69545
20
-3.23733
11
5.69545
21
-3.23733
0
LINE
8
BLACK
6
CONTINUOUS
10
5.69545
20
-3.23733
11
5.69541
21
-3.23732
0
LINE
8
BLACK
6
CONTINUOUS
10
5.69541
20
-3.23732
11
5.55444
21
-3.22508
0
LINE
8
BLACK
6
CONTINUOUS
10
5.55444
20
-3.22508
11
5.5544
21
-3.22508
0
LINE
8
BLACK
6
CONTINUOUS
10
5.5544
20
-3.22508
11
5.4141
21
-3.2067
0
LINE
8
BLACK
6
CONTINUOUS
10
5.4141
20
-3.2067
11
5.4141
21
-3.2067
0
LINE
8
BLACK
6
CONTINUOUS
10
5.4141
20
-3.2067
11
5.41406
21
-3.20669
0
LINE
8
BLACK
6
CONTINUOUS
10
5.41406
20
-3.20669
11
5.27469
21
-3.18221
0
LINE
8
BLACK
6
CONTINUOUS
10
5.27469
20
-3.18221
11
5.27469
21
-3.18221
0
LINE
8
BLACK
6
CONTINUOUS
10
5.27469
20
-3.18221
11
5.27465
21
-3.1822
0
LINE
8
BLACK
6
CONTINUOUS
10
5.27465
20
-3.1822
11
5.13649
21
-3.15167
0
LINE
8
BLACK
6
CONTINUOUS
10
5.13649
20
-3.15167
11
5.13649
21
-3.15167
0
LINE
8
BLACK
6
CONTINUOUS
10
5.13649
20
-3.15167
11
5.13645
21
-3.15166
0
LINE
8
BLACK
6
CONTINUOUS
10
5.13645
20
-3.15166
11
4.99978
21
-3.11513
0
LINE
8
BLACK
6
CONTINUOUS
10
4.99978
20
-3.11513
11
4.99976
21
-3.11513
0
LINE
8
BLACK
6
CONTINUOUS
10
4.99976
20
-3.11513
11
4.97246
21
-3.1067
0
LINE
8
BLACK
6
CONTINUOUS
10
4.97246
20
-3.1067
11
4.97243
21
-3.10669
0
LINE
8
BLACK
6
CONTINUOUS
10
4.97243
20
-3.10669
11
4.95807
21
-3.10129
0
LINE
8
BLACK
6
CONTINUOUS
10
4.95807
20
-3.10129
11
4.95807
21
-3.10129
0
LINE
8
BLACK
6
CONTINUOUS
10
4.95807
20
-3.10129
11
4.95807
21
-3.10129
0
LINE
8
BLACK
6
CONTINUOUS
10
4.95807
20
-3.10129
11
4.95805
21
-3.10128
0
LINE
8
BLACK
6
CONTINUOUS
10
4.95805
20
-3.10128
11
4.95797
21
-3.10124
0
LINE
8
BLACK
6
CONTINUOUS
10
4.95797
20
-3.10124
11
4.95789
21
-3.1012
0
LINE
8
BLACK
6
CONTINUOUS
10
4.95789
20
-3.1012
11
4.94483
21
-3.0931
0
LINE
8
BLACK
6
CONTINUOUS
10
4.94483
20
-3.0931
11
4.94483
21
-3.0931
0
LINE
8
BLACK
6
CONTINUOUS
10
4.94483
20
-3.0931
11
4.94483
21
-3.0931
0
LINE
8
BLACK
6
CONTINUOUS
10
4.94483
20
-3.0931
11
4.94482
21
-3.0931
0
LINE
8
BLACK
6
CONTINUOUS
10
4.94482
20
-3.0931
11
4.94475
21
-3.09304
0
LINE
8
BLACK
6
CONTINUOUS
10
4.94475
20
-3.09304
11
4.94468
21
-3.09299
0
LINE
8
BLACK
6
CONTINUOUS
10
4.94468
20
-3.09299
11
4.93344
21
-3.08251
0
LINE
8
BLACK
6
CONTINUOUS
10
4.93344
20
-3.08251
11
4.93343
21
-3.0825
0
LINE
8
BLACK
6
CONTINUOUS
10
4.93343
20
-3.0825
11
4.93337
21
-3.08243
0
LINE
8
BLACK
6
CONTINUOUS
10
4.93337
20
-3.08243
11
4.93331
21
-3.08236
0
LINE
8
BLACK
6
CONTINUOUS
10
4.93331
20
-3.08236
11
4.92432
21
-3.0699
0
LINE
8
BLACK
6
CONTINUOUS
10
4.92432
20
-3.0699
11
4.92432
21
-3.06989
0
LINE
8
BLACK
6
CONTINUOUS
10
4.92432
20
-3.06989
11
4.92427
21
-3.06981
0
LINE
8
BLACK
6
CONTINUOUS
10
4.92427
20
-3.06981
11
4.92423
21
-3.06973
0
LINE
8
BLACK
6
CONTINUOUS
10
4.92423
20
-3.06973
11
4.91783
21
-3.05576
0
LINE
8
BLACK
6
CONTINUOUS
10
4.91783
20
-3.05576
11
4.91783
21
-3.05575
0
LINE
8
BLACK
6
CONTINUOUS
10
4.91783
20
-3.05575
11
4.9178
21
-3.05566
0
LINE
8
BLACK
6
CONTINUOUS
10
4.9178
20
-3.05566
11
4.91777
21
-3.05558
0
LINE
8
BLACK
6
CONTINUOUS
10
4.91777
20
-3.05558
11
4.91421
21
-3.04063
0
LINE
8
BLACK
6
CONTINUOUS
10
4.91421
20
-3.04063
11
4.91421
21
-3.04063
0
LINE
8
BLACK
6
CONTINUOUS
10
4.91421
20
-3.04063
11
4.91421
21
-3.04063
0
LINE
8
BLACK
6
CONTINUOUS
10
4.91421
20
-3.04063
11
4.9142
21
-3.04062
0
LINE
8
BLACK
6
CONTINUOUS
10
4.9142
20
-3.04062
11
4.91419
21
-3.04053
0
LINE
8
BLACK
6
CONTINUOUS
10
4.91419
20
-3.04053
11
4.91418
21
-3.04044
0
LINE
8
BLACK
6
CONTINUOUS
10
4.91418
20
-3.04044
11
4.91359
21
-3.02508
0
LINE
8
BLACK
6
CONTINUOUS
10
4.91359
20
-3.02508
11
4.91359
21
-3.02507
0
LINE
8
BLACK
6
CONTINUOUS
10
4.91359
20
-3.02507
11
4.9136
21
-3.02498
0
LINE
8
BLACK
6
CONTINUOUS
10
4.9136
20
-3.02498
11
4.9136
21
-3.02489
0
LINE
8
BLACK
6
CONTINUOUS
10
4.9136
20
-3.02489
11
4.91601
21
-3.00971
0
LINE
8
BLACK
6
CONTINUOUS
10
4.91601
20
-3.00971
11
4.91601
21
-3.0097
0
LINE
8
BLACK
6
CONTINUOUS
10
4.91601
20
-3.0097
11
4.91602
21
-3.00966
0
LINE
8
BLACK
6
CONTINUOUS
10
4.91602
20
-3.00966
11
4.91603
21
-3.00962
0
LINE
8
BLACK
6
CONTINUOUS
10
4.91603
20
-3.00962
11
4.91617
21
-3.00909
0
LINE
8
BLACK
6
CONTINUOUS
10
4.91617
20
-3.00909
11
4.91617
21
-3.00908
0
LINE
8
BLACK
6
CONTINUOUS
10
4.91617
20
-3.00908
11
4.91629
21
-3.0086
0
LINE
8
BLACK
6
CONTINUOUS
10
4.91629
20
-3.0086
11
4.91868
21
-2.99357
0
LINE
8
BLACK
6
CONTINUOUS
10
4.91868
20
-2.99357
11
4.91809
21
-2.9784
0
LINE
8
BLACK
6
CONTINUOUS
10
4.91809
20
-2.9784
11
4.91458
21
-2.96364
0
LINE
8
BLACK
6
CONTINUOUS
10
4.91458
20
-2.96364
11
4.90826
21
-2.94985
0
LINE
8
BLACK
6
CONTINUOUS
10
4.90826
20
-2.94985
11
4.89938
21
-2.93754
0
LINE
8
BLACK
6
CONTINUOUS
10
4.89938
20
-2.93754
11
4.88829
21
-2.92719
0
LINE
8
BLACK
6
CONTINUOUS
10
4.88829
20
-2.92719
11
4.87539
21
-2.91919
0
LINE
8
BLACK
6
CONTINUOUS
10
4.87539
20
-2.91919
11
4.86114
21
-2.91384
0
LINE
8
BLACK
6
CONTINUOUS
10
4.86114
20
-2.91384
11
4.32874
21
-2.77118
0
LINE
8
BLACK
6
CONTINUOUS
10
4.32874
20
-2.77118
11
4.3287
21
-2.77116
0
LINE
8
BLACK
6
CONTINUOUS
10
4.3287
20
-2.77116
11
4.3287
21
-2.77116
0
LINE
8
BLACK
6
CONTINUOUS
10
4.3287
20
-2.77116
11
4.31431
21
-2.76576
0
LINE
8
BLACK
6
CONTINUOUS
10
4.31431
20
-2.76576
11
4.31431
21
-2.76576
0
LINE
8
BLACK
6
CONTINUOUS
10
4.31431
20
-2.76576
11
4.31431
21
-2.76576
0
LINE
8
BLACK
6
CONTINUOUS
10
4.31431
20
-2.76576
11
4.3143
21
-2.76575
0
LINE
8
BLACK
6
CONTINUOUS
10
4.3143
20
-2.76575
11
4.31422
21
-2.76571
0
LINE
8
BLACK
6
CONTINUOUS
10
4.31422
20
-2.76571
11
4.31414
21
-2.76567
0
LINE
8
BLACK
6
CONTINUOUS
10
4.31414
20
-2.76567
11
4.30108
21
-2.75757
0
LINE
8
BLACK
6
CONTINUOUS
10
4.30108
20
-2.75757
11
4.30108
21
-2.75757
0
LINE
8
BLACK
6
CONTINUOUS
10
4.30108
20
-2.75757
11
4.30108
21
-2.75757
0
LINE
8
BLACK
6
CONTINUOUS
10
4.30108
20
-2.75757
11
4.30107
21
-2.75757
0
LINE
8
BLACK
6
CONTINUOUS
10
4.30107
20
-2.75757
11
4.301
21
-2.75751
0
LINE
8
BLACK
6
CONTINUOUS
10
4.301
20
-2.75751
11
4.30092
21
-2.75746
0
LINE
8
BLACK
6
CONTINUOUS
10
4.30092
20
-2.75746
11
4.28969
21
-2.74698
0
LINE
8
BLACK
6
CONTINUOUS
10
4.28969
20
-2.74698
11
4.28968
21
-2.74697
0
LINE
8
BLACK
6
CONTINUOUS
10
4.28968
20
-2.74697
11
4.28962
21
-2.7469
0
LINE
8
BLACK
6
CONTINUOUS
10
4.28962
20
-2.7469
11
4.28956
21
-2.74683
0
LINE
8
BLACK
6
CONTINUOUS
10
4.28956
20
-2.74683
11
4.28057
21
-2.73437
0
LINE
8
BLACK
6
CONTINUOUS
10
4.28057
20
-2.73437
11
4.28056
21
-2.73436
0
LINE
8
BLACK
6
CONTINUOUS
10
4.28056
20
-2.73436
11
4.28052
21
-2.73428
0
LINE
8
BLACK
6
CONTINUOUS
10
4.28052
20
-2.73428
11
4.28047
21
-2.7342
0
LINE
8
BLACK
6
CONTINUOUS
10
4.28047
20
-2.7342
11
4.27408
21
-2.72023
0
LINE
8
BLACK
6
CONTINUOUS
10
4.27408
20
-2.72023
11
4.27407
21
-2.72022
0
LINE
8
BLACK
6
CONTINUOUS
10
4.27407
20
-2.72022
11
4.27404
21
-2.72013
0
LINE
8
BLACK
6
CONTINUOUS
10
4.27404
20
-2.72013
11
4.27401
21
-2.72005
0
LINE
8
BLACK
6
CONTINUOUS
10
4.27401
20
-2.72005
11
4.27045
21
-2.7051
0
LINE
8
BLACK
6
CONTINUOUS
10
4.27045
20
-2.7051
11
4.27045
21
-2.7051
0
LINE
8
BLACK
6
CONTINUOUS
10
4.27045
20
-2.7051
11
4.27045
21
-2.7051
0
LINE
8
BLACK
6
CONTINUOUS
10
4.27045
20
-2.7051
11
4.27045
21
-2.70509
0
LINE
8
BLACK
6
CONTINUOUS
10
4.27045
20
-2.70509
11
4.27044
21
-2.705
0
LINE
8
BLACK
6
CONTINUOUS
10
4.27044
20
-2.705
11
4.27043
21
-2.70491
0
LINE
8
BLACK
6
CONTINUOUS
10
4.27043
20
-2.70491
11
4.26984
21
-2.68955
0
LINE
8
BLACK
6
CONTINUOUS
10
4.26984
20
-2.68955
11
4.26984
21
-2.68954
0
LINE
8
BLACK
6
CONTINUOUS
10
4.26984
20
-2.68954
11
4.26984
21
-2.68945
0
LINE
8
BLACK
6
CONTINUOUS
10
4.26984
20
-2.68945
11
4.26985
21
-2.68936
0
LINE
8
BLACK
6
CONTINUOUS
10
4.26985
20
-2.68936
11
4.27225
21
-2.67418
0
LINE
8
BLACK
6
CONTINUOUS
10
4.27225
20
-2.67418
11
4.27225
21
-2.67417
0
LINE
8
BLACK
6
CONTINUOUS
10
4.27225
20
-2.67417
11
4.27226
21
-2.67413
0
LINE
8
BLACK
6
CONTINUOUS
10
4.27226
20
-2.67413
11
4.27227
21
-2.67409
0
LINE
8
BLACK
6
CONTINUOUS
10
4.27227
20
-2.67409
11
4.27241
21
-2.67356
0
LINE
8
BLACK
6
CONTINUOUS
10
4.27241
20
-2.67356
11
4.27241
21
-2.67355
0
LINE
8
BLACK
6
CONTINUOUS
10
4.27241
20
-2.67355
11
4.27254
21
-2.67307
0
LINE
8
BLACK
6
CONTINUOUS
10
4.27254
20
-2.67307
11
4.27492
21
-2.65804
0
LINE
8
BLACK
6
CONTINUOUS
10
4.27492
20
-2.65804
11
4.27434
21
-2.64287
0
LINE
8
BLACK
6
CONTINUOUS
10
4.27434
20
-2.64287
11
4.27082
21
-2.62811
0
LINE
8
BLACK
6
CONTINUOUS
10
4.27082
20
-2.62811
11
4.2645
21
-2.61432
0
LINE
8
BLACK
6
CONTINUOUS
10
4.2645
20
-2.61432
11
4.25563
21
-2.60201
0
LINE
8
BLACK
6
CONTINUOUS
10
4.25563
20
-2.60201
11
4.24453
21
-2.59166
0
LINE
8
BLACK
6
CONTINUOUS
10
4.24453
20
-2.59166
11
4.23163
21
-2.58366
0
LINE
8
BLACK
6
CONTINUOUS
10
4.23163
20
-2.58366
11
4.21738
21
-2.57831
0
LINE
8
BLACK
6
CONTINUOUS
10
4.21738
20
-2.57831
11
3.53291
21
-2.3949
0
LINE
8
BLACK
6
CONTINUOUS
10
3.53291
20
-2.3949
11
3.53244
21
-2.39478
0
LINE
8
BLACK
6
CONTINUOUS
10
3.53244
20
-2.39478
11
3.5174
21
-2.3924
0
LINE
8
BLACK
6
CONTINUOUS
10
3.5174
20
-2.3924
11
3.50224
21
-2.39298
0
LINE
8
BLACK
6
CONTINUOUS
10
3.50224
20
-2.39298
11
3.48748
21
-2.3965
0
LINE
8
BLACK
6
CONTINUOUS
10
3.48748
20
-2.3965
11
3.47368
21
-2.40281
0
LINE
8
BLACK
6
CONTINUOUS
10
3.47368
20
-2.40281
11
3.46137
21
-2.41169
0
LINE
8
BLACK
6
CONTINUOUS
10
3.46137
20
-2.41169
11
3.45103
21
-2.42279
0
LINE
8
BLACK
6
CONTINUOUS
10
3.45103
20
-2.42279
11
3.44303
21
-2.43568
0
LINE
8
BLACK
6
CONTINUOUS
10
3.44303
20
-2.43568
11
3.43766
21
-2.44998
0
LINE
8
BLACK
6
CONTINUOUS
10
3.43766
20
-2.44998
11
3.43225
21
-2.46436
0
LINE
8
BLACK
6
CONTINUOUS
10
3.43225
20
-2.46436
11
3.43225
21
-2.46436
0
LINE
8
BLACK
6
CONTINUOUS
10
3.43225
20
-2.46436
11
3.43225
21
-2.46436
0
LINE
8
BLACK
6
CONTINUOUS
10
3.43225
20
-2.46436
11
3.43224
21
-2.46438
0
LINE
8
BLACK
6
CONTINUOUS
10
3.43224
20
-2.46438
11
3.4322
21
-2.46446
0
LINE
8
BLACK
6
CONTINUOUS
10
3.4322
20
-2.46446
11
3.43216
21
-2.46454
0
LINE
8
BLACK
6
CONTINUOUS
10
3.43216
20
-2.46454
11
3.42407
21
-2.4776
0
LINE
8
BLACK
6
CONTINUOUS
10
3.42407
20
-2.4776
11
3.42407
21
-2.4776
0
LINE
8
BLACK
6
CONTINUOUS
10
3.42407
20
-2.4776
11
3.42407
21
-2.4776
0
LINE
8
BLACK
6
CONTINUOUS
10
3.42407
20
-2.4776
11
3.42406
21
-2.47761
0
LINE
8
BLACK
6
CONTINUOUS
10
3.42406
20
-2.47761
11
3.424
21
-2.47768
0
LINE
8
BLACK
6
CONTINUOUS
10
3.424
20
-2.47768
11
3.42395
21
-2.47775
0
LINE
8
BLACK
6
CONTINUOUS
10
3.42395
20
-2.47775
11
3.41347
21
-2.48899
0
LINE
8
BLACK
6
CONTINUOUS
10
3.41347
20
-2.48899
11
3.41346
21
-2.489
0
LINE
8
BLACK
6
CONTINUOUS
10
3.41346
20
-2.489
11
3.41339
21
-2.48906
0
LINE
8
BLACK
6
CONTINUOUS
10
3.41339
20
-2.48906
11
3.41333
21
-2.48911
0
LINE
8
BLACK
6
CONTINUOUS
10
3.41333
20
-2.48911
11
3.40086
21
-2.4981
0
LINE
8
BLACK
6
CONTINUOUS
10
3.40086
20
-2.4981
11
3.40085
21
-2.49811
0
LINE
8
BLACK
6
CONTINUOUS
10
3.40085
20
-2.49811
11
3.40077
21
-2.49816
0
LINE
8
BLACK
6
CONTINUOUS
10
3.40077
20
-2.49816
11
3.4007
21
-2.4982
0
LINE
8
BLACK
6
CONTINUOUS
10
3.4007
20
-2.4982
11
3.38672
21
-2.5046
0
LINE
8
BLACK
6
CONTINUOUS
10
3.38672
20
-2.5046
11
3.38671
21
-2.5046
0
LINE
8
BLACK
6
CONTINUOUS
10
3.38671
20
-2.5046
11
3.38662
21
-2.50463
0
LINE
8
BLACK
6
CONTINUOUS
10
3.38662
20
-2.50463
11
3.38654
21
-2.50466
0
LINE
8
BLACK
6
CONTINUOUS
10
3.38654
20
-2.50466
11
3.37159
21
-2.50822
0
LINE
8
BLACK
6
CONTINUOUS
10
3.37159
20
-2.50822
11
3.37159
21
-2.50822
0
LINE
8
BLACK
6
CONTINUOUS
10
3.37159
20
-2.50822
11
3.37159
21
-2.50822
0
LINE
8
BLACK
6
CONTINUOUS
10
3.37159
20
-2.50822
11
3.37158
21
-2.50822
0
LINE
8
BLACK
6
CONTINUOUS
10
3.37158
20
-2.50822
11
3.37149
21
-2.50824
0
LINE
8
BLACK
6
CONTINUOUS
10
3.37149
20
-2.50824
11
3.3714
21
-2.50825
0
LINE
8
BLACK
6
CONTINUOUS
10
3.3714
20
-2.50825
11
3.35605
21
-2.50884
0
LINE
8
BLACK
6
CONTINUOUS
10
3.35605
20
-2.50884
11
3.35603
21
-2.50884
0
LINE
8
BLACK
6
CONTINUOUS
10
3.35603
20
-2.50884
11
3.35594
21
-2.50883
0
LINE
8
BLACK
6
CONTINUOUS
10
3.35594
20
-2.50883
11
3.35585
21
-2.50883
0
LINE
8
BLACK
6
CONTINUOUS
10
3.35585
20
-2.50883
11
3.34068
21
-2.50642
0
LINE
8
BLACK
6
CONTINUOUS
10
3.34068
20
-2.50642
11
3.34066
21
-2.50642
0
LINE
8
BLACK
6
CONTINUOUS
10
3.34066
20
-2.50642
11
3.34062
21
-2.50641
0
LINE
8
BLACK
6
CONTINUOUS
10
3.34062
20
-2.50641
11
3.34058
21
-2.5064
0
LINE
8
BLACK
6
CONTINUOUS
10
3.34058
20
-2.5064
11
3.34009
21
-2.50627
0
LINE
8
BLACK
6
CONTINUOUS
10
3.34009
20
-2.50627
11
3.34009
21
-2.50627
0
LINE
8
BLACK
6
CONTINUOUS
10
3.34009
20
-2.50627
11
2.80765
21
-2.36361
0
LINE
8
BLACK
6
CONTINUOUS
10
2.80765
20
-2.36361
11
2.80765
21
-2.36361
0
LINE
8
BLACK
6
CONTINUOUS
10
2.80765
20
-2.36361
11
2.80716
21
-2.36348
0
LINE
8
BLACK
6
CONTINUOUS
10
2.80716
20
-2.36348
11
2.79213
21
-2.3611
0
LINE
8
BLACK
6
CONTINUOUS
10
2.79213
20
-2.3611
11
2.77697
21
-2.36168
0
LINE
8
BLACK
6
CONTINUOUS
10
2.77697
20
-2.36168
11
2.76221
21
-2.3652
0
LINE
8
BLACK
6
CONTINUOUS
10
2.76221
20
-2.3652
11
2.74841
21
-2.37151
0
LINE
8
BLACK
6
CONTINUOUS
10
2.74841
20
-2.37151
11
2.7361
21
-2.38039
0
LINE
8
BLACK
6
CONTINUOUS
10
2.7361
20
-2.38039
11
2.72575
21
-2.39149
0
LINE
8
BLACK
6
CONTINUOUS
10
2.72575
20
-2.39149
11
2.71776
21
-2.40438
0
LINE
8
BLACK
6
CONTINUOUS
10
2.71776
20
-2.40438
11
2.71238
21
-2.41868
0
LINE
8
BLACK
6
CONTINUOUS
10
2.71238
20
-2.41868
11
2.70698
21
-2.43306
0
LINE
8
BLACK
6
CONTINUOUS
10
2.70698
20
-2.43306
11
2.70698
21
-2.43306
0
LINE
8
BLACK
6
CONTINUOUS
10
2.70698
20
-2.43306
11
2.70698
21
-2.43306
0
LINE
8
BLACK
6
CONTINUOUS
10
2.70698
20
-2.43306
11
2.70697
21
-2.43308
0
LINE
8
BLACK
6
CONTINUOUS
10
2.70697
20
-2.43308
11
2.70693
21
-2.43316
0
LINE
8
BLACK
6
CONTINUOUS
10
2.70693
20
-2.43316
11
2.70689
21
-2.43323
0
LINE
8
BLACK
6
CONTINUOUS
10
2.70689
20
-2.43323
11
2.69879
21
-2.4463
0
LINE
8
BLACK
6
CONTINUOUS
10
2.69879
20
-2.4463
11
2.69879
21
-2.4463
0
LINE
8
BLACK
6
CONTINUOUS
10
2.69879
20
-2.4463
11
2.69879
21
-2.4463
0
LINE
8
BLACK
6
CONTINUOUS
10
2.69879
20
-2.4463
11
2.69879
21
-2.44631
0
LINE
8
BLACK
6
CONTINUOUS
10
2.69879
20
-2.44631
11
2.69873
21
-2.44638
0
LINE
8
BLACK
6
CONTINUOUS
10
2.69873
20
-2.44638
11
2.69868
21
-2.44645
0
LINE
8
BLACK
6
CONTINUOUS
10
2.69868
20
-2.44645
11
2.6882
21
-2.45769
0
LINE
8
BLACK
6
CONTINUOUS
10
2.6882
20
-2.45769
11
2.68819
21
-2.4577
0
LINE
8
BLACK
6
CONTINUOUS
10
2.68819
20
-2.4577
11
2.68812
21
-2.45775
0
LINE
8
BLACK
6
CONTINUOUS
10
2.68812
20
-2.45775
11
2.68805
21
-2.45781
0
LINE
8
BLACK
6
CONTINUOUS
10
2.68805
20
-2.45781
11
2.67559
21
-2.4668
0
LINE
8
BLACK
6
CONTINUOUS
10
2.67559
20
-2.4668
11
2.67558
21
-2.46681
0
LINE
8
BLACK
6
CONTINUOUS
10
2.67558
20
-2.46681
11
2.6755
21
-2.46686
0
LINE
8
BLACK
6
CONTINUOUS
10
2.6755
20
-2.46686
11
2.67542
21
-2.4669
0
LINE
8
BLACK
6
CONTINUOUS
10
2.67542
20
-2.4669
11
2.66145
21
-2.4733
0
LINE
8
BLACK
6
CONTINUOUS
10
2.66145
20
-2.4733
11
2.66144
21
-2.4733
0
LINE
8
BLACK
6
CONTINUOUS
10
2.66144
20
-2.4733
11
2.66135
21
-2.47333
0
LINE
8
BLACK
6
CONTINUOUS
10
2.66135
20
-2.47333
11
2.66127
21
-2.47336
0
LINE
8
BLACK
6
CONTINUOUS
10
2.66127
20
-2.47336
11
2.64632
21
-2.47692
0
LINE
8
BLACK
6
CONTINUOUS
10
2.64632
20
-2.47692
11
2.64632
21
-2.47692
0
LINE
8
BLACK
6
CONTINUOUS
10
2.64632
20
-2.47692
11
2.64632
21
-2.47692
0
LINE
8
BLACK
6
CONTINUOUS
10
2.64632
20
-2.47692
11
2.64631
21
-2.47692
0
LINE
8
BLACK
6
CONTINUOUS
10
2.64631
20
-2.47692
11
2.64622
21
-2.47693
0
LINE
8
BLACK
6
CONTINUOUS
10
2.64622
20
-2.47693
11
2.64613
21
-2.47695
0
LINE
8
BLACK
6
CONTINUOUS
10
2.64613
20
-2.47695
11
2.63077
21
-2.47754
0
LINE
8
BLACK
6
CONTINUOUS
10
2.63077
20
-2.47754
11
2.63076
21
-2.47754
0
LINE
8
BLACK
6
CONTINUOUS
10
2.63076
20
-2.47754
11
2.63067
21
-2.47753
0
LINE
8
BLACK
6
CONTINUOUS
10
2.63067
20
-2.47753
11
2.63058
21
-2.47753
0
LINE
8
BLACK
6
CONTINUOUS
10
2.63058
20
-2.47753
11
2.6154
21
-2.47512
0
LINE
8
BLACK
6
CONTINUOUS
10
2.6154
20
-2.47512
11
2.61539
21
-2.47512
0
LINE
8
BLACK
6
CONTINUOUS
10
2.61539
20
-2.47512
11
2.61535
21
-2.47511
0
LINE
8
BLACK
6
CONTINUOUS
10
2.61535
20
-2.47511
11
2.6153
21
-2.4751
0
LINE
8
BLACK
6
CONTINUOUS
10
2.6153
20
-2.4751
11
2.61482
21
-2.47497
0
LINE
8
BLACK
6
CONTINUOUS
10
2.61482
20
-2.47497
11
2.61482
21
-2.47497
0
LINE
8
BLACK
6
CONTINUOUS
10
2.61482
20
-2.47497
11
2.08237
21
-2.3323
0
LINE
8
BLACK
6
CONTINUOUS
10
2.08237
20
-2.3323
11
2.08237
21
-2.3323
0
LINE
8
BLACK
6
CONTINUOUS
10
2.08237
20
-2.3323
11
2.08189
21
-2.33218
0
LINE
8
BLACK
6
CONTINUOUS
10
2.08189
20
-2.33218
11
2.06686
21
-2.3298
0
LINE
8
BLACK
6
CONTINUOUS
10
2.06686
20
-2.3298
11
2.05169
21
-2.33038
0
LINE
8
BLACK
6
CONTINUOUS
10
2.05169
20
-2.33038
11
2.03693
21
-2.3339
0
LINE
8
BLACK
6
CONTINUOUS
10
2.03693
20
-2.3339
11
2.02314
21
-2.34021
0
LINE
8
BLACK
6
CONTINUOUS
10
2.02314
20
-2.34021
11
2.01083
21
-2.34909
0
LINE
8
BLACK
6
CONTINUOUS
10
2.01083
20
-2.34909
11
2.00048
21
-2.36019
0
LINE
8
BLACK
6
CONTINUOUS
10
2.00048
20
-2.36019
11
1.99248
21
-2.37308
0
LINE
8
BLACK
6
CONTINUOUS
10
1.99248
20
-2.37308
11
1.98713
21
-2.38733
0
LINE
8
BLACK
6
CONTINUOUS
10
1.98713
20
-2.38733
11
1.2331
21
-5.20139
0
LINE
8
BLACK
6
CONTINUOUS
10
1.2331
20
-5.20139
11
1.2331
21
-5.2014
0
LINE
8
BLACK
6
CONTINUOUS
10
1.2331
20
-5.2014
11
1.23297
21
-5.20188
0
LINE
8
BLACK
6
CONTINUOUS
10
1.23297
20
-5.20188
11
1.23059
21
-5.21691
0
LINE
8
BLACK
6
CONTINUOUS
10
1.23059
20
-5.21691
11
1.23117
21
-5.23208
0
LINE
8
BLACK
6
CONTINUOUS
10
1.23117
20
-5.23208
11
1.23469
21
-5.24684
0
LINE
8
BLACK
6
CONTINUOUS
10
1.23469
20
-5.24684
11
1.24101
21
-5.26064
0
LINE
8
BLACK
6
CONTINUOUS
10
1.24101
20
-5.26064
11
1.24988
21
-5.27294
0
LINE
8
BLACK
6
CONTINUOUS
10
1.24988
20
-5.27294
11
1.26098
21
-5.28329
0
LINE
8
BLACK
6
CONTINUOUS
10
1.26098
20
-5.28329
11
1.27388
21
-5.29129
0
LINE
8
BLACK
6
CONTINUOUS
10
1.27388
20
-5.29129
11
1.28813
21
-5.29664
0
LINE
8
BLACK
6
CONTINUOUS
10
1.28813
20
-5.29664
11
1.97259
21
-5.48004
0
LINE
8
BLACK
6
CONTINUOUS
10
1.97259
20
-5.48004
11
1.97259
21
-5.48005
0
LINE
8
BLACK
6
CONTINUOUS
10
1.97259
20
-5.48005
11
1.97308
21
-5.48017
0
LINE
8
BLACK
6
CONTINUOUS
10
1.97308
20
-5.48017
11
1.98811
21
-5.48255
0
LINE
8
BLACK
6
CONTINUOUS
10
1.98811
20
-5.48255
11
2.00327
21
-5.48197
0
LINE
8
BLACK
6
CONTINUOUS
10
2.00327
20
-5.48197
11
2.01803
21
-5.47845
0
LINE
8
BLACK
6
CONTINUOUS
10
2.01803
20
-5.47845
11
2.03183
21
-5.47214
0
LINE
8
BLACK
6
CONTINUOUS
10
2.03183
20
-5.47214
11
2.04414
21
-5.46326
0
LINE
8
BLACK
6
CONTINUOUS
10
2.04414
20
-5.46326
11
2.05449
21
-5.45216
0
LINE
8
BLACK
6
CONTINUOUS
10
2.05449
20
-5.45216
11
2.06248
21
-5.43927
0
LINE
8
BLACK
6
CONTINUOUS
10
2.06248
20
-5.43927
11
2.06786
21
-5.42497
0
LINE
8
BLACK
6
CONTINUOUS
10
2.06786
20
-5.42497
11
2.06786
21
-5.42497
0
LINE
8
BLACK
6
CONTINUOUS
10
2.06786
20
-5.42497
11
2.07326
21
-5.41059
0
LINE
8
BLACK
6
CONTINUOUS
10
2.07326
20
-5.41059
11
2.07327
21
-5.41058
0
LINE
8
BLACK
6
CONTINUOUS
10
2.07327
20
-5.41058
11
2.07331
21
-5.41049
0
LINE
8
BLACK
6
CONTINUOUS
10
2.07331
20
-5.41049
11
2.07335
21
-5.41042
0
LINE
8
BLACK
6
CONTINUOUS
10
2.07335
20
-5.41042
11
2.08145
21
-5.39736
0
LINE
8
BLACK
6
CONTINUOUS
10
2.08145
20
-5.39736
11
2.08145
21
-5.39734
0
LINE
8
BLACK
6
CONTINUOUS
10
2.08145
20
-5.39734
11
2.08151
21
-5.39727
0
LINE
8
BLACK
6
CONTINUOUS
10
2.08151
20
-5.39727
11
2.08156
21
-5.3972
0
LINE
8
BLACK
6
CONTINUOUS
10
2.08156
20
-5.3972
11
2.09204
21
-5.38596
0
LINE
8
BLACK
6
CONTINUOUS
10
2.09204
20
-5.38596
11
2.09205
21
-5.38595
0
LINE
8
BLACK
6
CONTINUOUS
10
2.09205
20
-5.38595
11
2.09212
21
-5.3859
0
LINE
8
BLACK
6
CONTINUOUS
10
2.09212
20
-5.3859
11
2.09219
21
-5.38584
0
LINE
8
BLACK
6
CONTINUOUS
10
2.09219
20
-5.38584
11
2.10465
21
-5.37685
0
LINE
8
BLACK
6
CONTINUOUS
10
2.10465
20
-5.37685
11
2.10465
21
-5.37685
0
LINE
8
BLACK
6
CONTINUOUS
10
2.10465
20
-5.37685
11
2.10465
21
-5.37685
0
LINE
8
BLACK
6
CONTINUOUS
10
2.10465
20
-5.37685
11
2.10466
21
-5.37684
0
LINE
8
BLACK
6
CONTINUOUS
10
2.10466
20
-5.37684
11
2.10474
21
-5.3768
0
LINE
8
BLACK
6
CONTINUOUS
10
2.10474
20
-5.3768
11
2.10482
21
-5.37675
0
LINE
8
BLACK
6
CONTINUOUS
10
2.10482
20
-5.37675
11
2.11879
21
-5.37035
0
LINE
8
BLACK
6
CONTINUOUS
10
2.11879
20
-5.37035
11
2.1188
21
-5.37035
0
LINE
8
BLACK
6
CONTINUOUS
10
2.1188
20
-5.37035
11
2.11889
21
-5.37032
0
LINE
8
BLACK
6
CONTINUOUS
10
2.11889
20
-5.37032
11
2.11897
21
-5.37029
0
LINE
8
BLACK
6
CONTINUOUS
10
2.11897
20
-5.37029
11
2.13392
21
-5.36673
0
LINE
8
BLACK
6
CONTINUOUS
10
2.13392
20
-5.36673
11
2.13392
21
-5.36673
0
LINE
8
BLACK
6
CONTINUOUS
10
2.13392
20
-5.36673
11
2.13392
21
-5.36673
0
LINE
8
BLACK
6
CONTINUOUS
10
2.13392
20
-5.36673
11
2.13393
21
-5.36673
0
LINE
8
BLACK
6
CONTINUOUS
10
2.13393
20
-5.36673
11
2.13402
21
-5.36672
0
LINE
8
BLACK
6
CONTINUOUS
10
2.13402
20
-5.36672
11
2.13411
21
-5.3667
0
LINE
8
BLACK
6
CONTINUOUS
10
2.13411
20
-5.3667
11
2.14947
21
-5.36611
0
LINE
8
BLACK
6
CONTINUOUS
10
2.14947
20
-5.36611
11
2.14947
21
-5.36611
0
LINE
8
BLACK
6
CONTINUOUS
10
2.14947
20
-5.36611
11
2.14948
21
-5.36611
  0
ENDSEC
  0
EOF
