M48
; DRILL file {KiCad (5.1.10)-1} date 10/19/21 15:54:12
; FORMAT={-:-/ absolute / inch / decimal}
; #@! TF.CreationDate,2021-10-19T15:54:12-06:00
; #@! TF.GenerationSoftware,Kicad,Pcbnew,(5.1.10)-1
; #@! TF.FileFunction,Plated,1,2,PTH
FMAT,2
INCH
T1C0.0157
T2C0.0197
T3C0.0300
T4C0.0591
%
G90
G05
T1
X1.7323Y-4.8819
X2.1969Y-3.2283
X2.2835Y-2.9528
X2.4016Y-4.8425
X2.9213Y-3.2638
X2.9921Y-2.9921
X3.1102Y-3.3858
X3.1496Y-4.9213
X3.626Y-3.3228
X3.7402Y-3.0315
X3.7795Y-5.2756
X4.3307Y-3.3465
X4.4488Y-3.1102
X4.6102Y-3.4488
X4.6152Y-3.3839
X4.6732Y-3.2539
X4.7323Y-5.815
X4.8031Y-4.3307
X4.9134Y-5.1378
X4.9705Y-4.7205
X5.0787Y-3.4646
X5.0866Y-4.3976
X5.252Y-5.6063
X6.2717Y-5.5236
X6.3622Y-5.8386
X6.4712Y-5.6311
X6.6063Y-3.9016
X6.6417Y-3.8622
X6.6496Y-4.0354
X6.6614Y-4.1024
X7.3729Y-3.7469
X7.9961Y-3.3858
X8.7008Y-3.3228
X9.4173Y-3.2913
T2
X1.8664Y-4.9635
X2.0397Y-4.317
X2.2129Y-3.6705
X2.3861Y-3.0241
X2.5917Y-4.9948
X2.7649Y-4.3483
X2.9382Y-3.7018
X3.1114Y-3.0554
X3.317Y-5.0261
X3.4902Y-4.3796
X3.6634Y-3.7331
X3.8367Y-3.0867
X3.9607Y-5.3616
X4.134Y-4.7152
X4.3072Y-4.0687
X4.4804Y-3.4222
X4.6045Y-5.6972
X4.7777Y-5.0507
X4.951Y-4.4042
X5.1242Y-3.7577
X5.2483Y-6.0327
X5.4215Y-5.3862
X6.6177Y-5.3251
X6.7909Y-5.9716
X6.915Y-3.6966
X7.0882Y-4.3431
X7.2615Y-4.9896
X7.4347Y-5.636
X7.5588Y-3.3611
X7.732Y-4.0075
X7.9052Y-4.654
X8.0784Y-5.3005
X8.2025Y-3.0255
X8.3758Y-3.672
X8.549Y-4.3185
X8.7222Y-4.965
X8.9278Y-2.9942
X9.101Y-3.6407
X9.2743Y-4.2872
X9.4475Y-4.9337
X9.6531Y-2.9629
X9.8263Y-3.6094
X9.9995Y-4.2559
X10.1727Y-4.9024
T3
X5.7055Y-3.337
X6.1055Y-3.337
T4
X5.6055Y-3.337
X5.6055Y-3.437
X5.6055Y-3.537
X5.6055Y-3.637
X5.6055Y-3.737
X5.6055Y-3.837
X5.6055Y-3.937
X5.6055Y-4.037
X5.6055Y-4.137
X5.6055Y-4.237
X5.6055Y-4.337
X5.6055Y-4.437
X5.6055Y-4.537
X6.2055Y-3.337
X6.2055Y-3.437
X6.2055Y-3.537
X6.2055Y-3.637
X6.2055Y-3.737
X6.2055Y-3.837
X6.2055Y-3.937
X6.2055Y-4.037
X6.2055Y-4.137
X6.2055Y-4.237
X6.2055Y-4.337
X6.2055Y-4.437
X6.2055Y-4.537
T0
M30
