M48
; DRILL file {KiCad (5.1.10)-1} date 10/19/21 15:54:12
; FORMAT={-:-/ absolute / inch / decimal}
; #@! TF.CreationDate,2021-10-19T15:54:12-06:00
; #@! TF.GenerationSoftware,Kicad,Pcbnew,(5.1.10)-1
; #@! TF.FileFunction,NonPlated,1,2,NPTH
FMAT,2
INCH
T1C0.0354
T2C0.0709
T3C0.1181
T4C0.1260
%
G90
G05
T1
X5.8563Y-3.4614
X5.9744Y-3.4614
T2
X1.584Y-4.7248
X1.7572Y-4.0783
X1.9304Y-3.4318
X2.0023Y-4.8369
X2.1036Y-2.7853
X2.1755Y-4.1904
X2.3092Y-4.7561
X2.3487Y-3.5439
X2.4825Y-4.1096
X2.522Y-2.8974
X2.6557Y-3.4631
X2.7275Y-4.8682
X2.8289Y-2.8166
X2.9008Y-4.2217
X3.0345Y-4.7874
X3.074Y-3.5752
X3.2077Y-4.1409
X3.2472Y-2.9287
X3.381Y-3.4944
X3.4528Y-4.8995
X3.5542Y-2.8479
X3.626Y-4.253
X3.6783Y-5.1229
X3.7993Y-3.6065
X3.8515Y-4.4764
X3.9725Y-2.96
X4.0247Y-3.8299
X4.0966Y-5.235
X4.1979Y-3.1835
X4.2698Y-4.5885
X4.322Y-5.4584
X4.443Y-3.942
X4.4952Y-4.812
X4.6163Y-3.2955
X4.6685Y-4.1655
X4.7403Y-5.5705
X4.8417Y-3.519
X4.9136Y-4.9241
X4.9658Y-5.794
X5.0868Y-4.2776
X5.139Y-5.1475
X5.26Y-3.6311
X5.3841Y-5.9061
X5.5573Y-5.2596
X6.2537Y-5.2596
X6.4269Y-5.9061
X6.551Y-3.6311
X6.672Y-5.1475
X6.7242Y-4.2776
X6.8452Y-5.794
X6.8975Y-4.9241
X6.9693Y-3.519
X7.0707Y-5.5705
X7.1426Y-4.1655
X7.1948Y-3.2955
X7.3158Y-4.812
X7.368Y-3.942
X7.489Y-5.4584
X7.5412Y-4.5885
X7.6131Y-3.1835
X7.7144Y-5.235
X7.7863Y-3.8299
X7.8385Y-2.96
X7.9595Y-4.4764
X8.0118Y-3.6065
X8.1328Y-5.1229
X8.185Y-4.253
X8.2568Y-2.8479
X8.3582Y-4.8995
X8.4301Y-3.4944
X8.5638Y-2.9287
X8.6033Y-4.1409
X8.737Y-3.5752
X8.7765Y-4.7874
X8.9102Y-4.2217
X8.9821Y-2.8166
X9.0835Y-4.8682
X9.1553Y-3.4631
X9.2891Y-2.8974
X9.3286Y-4.1096
X9.4623Y-3.5439
X9.5018Y-4.7561
X9.6355Y-4.1904
X9.7074Y-2.7853
X9.8087Y-4.8369
X9.8806Y-3.4318
X10.0538Y-4.0783
X10.2271Y-4.7248
T3
X1.5643Y-4.8744
X1.733Y-5.0052
X1.7375Y-4.2279
X1.9062Y-4.3587
X1.9107Y-3.5814
X2.0795Y-3.7122
X2.0839Y-2.9349
X2.2527Y-3.0657
X2.2895Y-4.9057
X2.4583Y-5.0365
X2.4628Y-4.2592
X2.6315Y-4.39
X2.636Y-3.6127
X2.8047Y-3.7435
X2.8092Y-2.9662
X2.9779Y-3.097
X3.0148Y-4.937
X3.1835Y-5.0678
X3.188Y-4.2905
X3.3568Y-4.4213
X3.3613Y-3.644
X3.53Y-3.7748
X3.5345Y-2.9975
X3.6586Y-5.2725
X3.7032Y-3.1283
X3.8273Y-5.4033
X3.8318Y-4.626
X4.0005Y-4.7568
X4.005Y-3.9796
X4.1738Y-4.1104
X4.1782Y-3.3331
X4.3023Y-5.6081
X4.347Y-3.4639
X4.4711Y-5.7389
X4.4755Y-4.9616
X4.6443Y-5.0924
X4.6488Y-4.3151
X4.8175Y-4.4459
X4.822Y-3.6686
X4.9461Y-5.9436
X4.9907Y-3.7994
X5.1148Y-6.0744
X5.1193Y-5.2971
X5.288Y-5.4279
X6.3114Y-5.399
X6.4847Y-6.0455
X6.523Y-5.4279
X6.6087Y-3.7705
X6.6962Y-6.0744
X6.782Y-4.417
X6.8203Y-3.7994
X6.9552Y-5.0635
X6.9935Y-4.4459
X7.1284Y-5.7099
X7.1667Y-5.0924
X7.2525Y-3.435
X7.34Y-5.7389
X7.4257Y-4.0814
X7.464Y-3.4639
X7.599Y-4.7279
X7.6373Y-4.1104
X7.7722Y-5.3744
X7.8105Y-4.7568
X7.8963Y-3.0994
X7.9837Y-5.4033
X8.0695Y-3.7459
X8.1078Y-3.1283
X8.2427Y-4.3924
X8.281Y-3.7748
X8.4159Y-5.0389
X8.4543Y-4.4213
X8.6215Y-3.0681
X8.6275Y-5.0678
X8.7948Y-3.7146
X8.8331Y-3.097
X8.968Y-4.3611
X9.0063Y-3.7435
X9.1412Y-5.0076
X9.1795Y-4.39
X9.3468Y-3.0368
X9.3528Y-5.0365
X9.52Y-3.6833
X9.5583Y-3.0657
X9.6933Y-4.3298
X9.7316Y-3.7122
X9.8665Y-4.9763
X9.9048Y-4.3587
X10.078Y-5.0052
T4
X1.7931Y-4.7808
X1.9663Y-4.1343
X2.1396Y-3.4879
X2.3128Y-2.8414
X2.5184Y-4.8121
X2.6916Y-4.1656
X2.8648Y-3.5192
X3.0381Y-2.8727
X3.2437Y-4.8434
X3.4169Y-4.1969
X3.5901Y-3.5505
X3.7633Y-2.904
X3.8874Y-5.179
X4.0606Y-4.5325
X4.2339Y-3.886
X4.4071Y-3.2395
X4.5312Y-5.5145
X4.7044Y-4.868
X4.8776Y-4.2215
X5.0509Y-3.575
X5.1749Y-5.85
X5.3482Y-5.2035
X6.4629Y-5.2035
X6.6361Y-5.85
X6.7602Y-3.575
X6.9334Y-4.2215
X7.1066Y-4.868
X7.2798Y-5.5145
X7.4039Y-3.2395
X7.5772Y-3.886
X7.7504Y-4.5325
X7.9236Y-5.179
X8.0477Y-2.904
X8.2209Y-3.5505
X8.3941Y-4.1969
X8.5674Y-4.8434
X8.773Y-2.8727
X8.9462Y-3.5192
X9.1194Y-4.1656
X9.2926Y-4.8121
X9.4982Y-2.8414
X9.6715Y-3.4879
X9.8447Y-4.1343
X10.0179Y-4.7808
T0
M30
