%TF.GenerationSoftware,KiCad,Pcbnew,(5.1.10)-1*%
%TF.CreationDate,2021-10-19T15:54:07-06:00*%
%TF.ProjectId,batreus,62617472-6575-4732-9e6b-696361645f70,rev?*%
%TF.SameCoordinates,Original*%
%TF.FileFunction,Soldermask,Bot*%
%TF.FilePolarity,Negative*%
%FSLAX46Y46*%
G04 Gerber Fmt 4.6, Leading zero omitted, Abs format (unit mm)*
G04 Created by KiCad (PCBNEW (5.1.10)-1) date 2021-10-19 15:54:07*
%MOMM*%
%LPD*%
G01*
G04 APERTURE LIST*
%ADD10C,3.100000*%
%ADD11C,1.900000*%
%ADD12C,3.300000*%
%ADD13C,2.100000*%
%ADD14C,1.000000*%
G04 APERTURE END LIST*
%TO.C,S20*%
G36*
G01*
X39085848Y-106709639D02*
X39422313Y-105453936D01*
G75*
G02*
X40218397Y-104994316I627852J-168232D01*
G01*
X41474100Y-105330781D01*
G75*
G02*
X41933720Y-106126865I-168232J-627852D01*
G01*
X41597255Y-107382568D01*
G75*
G02*
X40801171Y-107842188I-627852J168232D01*
G01*
X39545468Y-107505723D01*
G75*
G02*
X39085848Y-106709639I168232J627852D01*
G01*
G37*
G36*
G01*
X50616400Y-111973322D02*
X50952865Y-110717619D01*
G75*
G02*
X51748949Y-110257999I627852J-168232D01*
G01*
X53004652Y-110594464D01*
G75*
G02*
X53464272Y-111390548I-168232J-627852D01*
G01*
X53127807Y-112646251D01*
G75*
G02*
X52331723Y-113105871I-627852J168232D01*
G01*
X51076020Y-112769406D01*
G75*
G02*
X50616400Y-111973322I168232J627852D01*
G01*
G37*
D10*
X44132005Y-107388824D03*
X48418115Y-110711363D03*
D11*
X55257739Y-106435906D03*
X44632555Y-103588896D03*
D12*
X49945147Y-105012401D03*
%TD*%
%TO.C,S30*%
G36*
G01*
X34685925Y-123130378D02*
X35022390Y-121874675D01*
G75*
G02*
X35818474Y-121415055I627852J-168232D01*
G01*
X37074177Y-121751520D01*
G75*
G02*
X37533797Y-122547604I-168232J-627852D01*
G01*
X37197332Y-123803307D01*
G75*
G02*
X36401248Y-124262927I-627852J168232D01*
G01*
X35145545Y-123926462D01*
G75*
G02*
X34685925Y-123130378I168232J627852D01*
G01*
G37*
G36*
G01*
X46216477Y-128394061D02*
X46552942Y-127138358D01*
G75*
G02*
X47349026Y-126678738I627852J-168232D01*
G01*
X48604729Y-127015203D01*
G75*
G02*
X49064349Y-127811287I-168232J-627852D01*
G01*
X48727884Y-129066990D01*
G75*
G02*
X47931800Y-129526610I-627852J168232D01*
G01*
X46676097Y-129190145D01*
G75*
G02*
X46216477Y-128394061I168232J627852D01*
G01*
G37*
D10*
X39732082Y-123809563D03*
X44018192Y-127132102D03*
D11*
X50857816Y-122856645D03*
X40232632Y-120009635D03*
D12*
X45545224Y-121433140D03*
%TD*%
%TO.C,S43*%
G36*
G01*
X160000919Y-155490059D02*
X159664454Y-154234356D01*
G75*
G02*
X160124074Y-153438272I627852J168232D01*
G01*
X161379777Y-153101807D01*
G75*
G02*
X162175861Y-153561427I168232J-627852D01*
G01*
X162512326Y-154817130D01*
G75*
G02*
X162052706Y-155613214I-627852J-168232D01*
G01*
X160797003Y-155949679D01*
G75*
G02*
X160000919Y-155490059I-168232J627852D01*
G01*
G37*
G36*
G01*
X172618512Y-154283265D02*
X172282047Y-153027562D01*
G75*
G02*
X172741667Y-152231478I627852J168232D01*
G01*
X173997370Y-151895013D01*
G75*
G02*
X174793454Y-152354633I168232J-627852D01*
G01*
X175129919Y-153610336D01*
G75*
G02*
X174670299Y-154406420I-627852J-168232D01*
G01*
X173414596Y-154742885D01*
G75*
G02*
X172618512Y-154283265I-168232J627852D01*
G01*
G37*
D10*
X164710612Y-153555171D03*
X170083761Y-154289520D03*
D11*
X173869321Y-147167053D03*
X163244137Y-150014063D03*
D12*
X168556729Y-148590558D03*
%TD*%
%TO.C,S42*%
G36*
G01*
X120583972Y-150287796D02*
X120920437Y-149032093D01*
G75*
G02*
X121716521Y-148572473I627852J-168232D01*
G01*
X122972224Y-148908938D01*
G75*
G02*
X123431844Y-149705022I-168232J-627852D01*
G01*
X123095379Y-150960725D01*
G75*
G02*
X122299295Y-151420345I-627852J168232D01*
G01*
X121043592Y-151083880D01*
G75*
G02*
X120583972Y-150287796I168232J627852D01*
G01*
G37*
G36*
G01*
X132114524Y-155551479D02*
X132450989Y-154295776D01*
G75*
G02*
X133247073Y-153836156I627852J-168232D01*
G01*
X134502776Y-154172621D01*
G75*
G02*
X134962396Y-154968705I-168232J-627852D01*
G01*
X134625931Y-156224408D01*
G75*
G02*
X133829847Y-156684028I-627852J168232D01*
G01*
X132574144Y-156347563D01*
G75*
G02*
X132114524Y-155551479I168232J627852D01*
G01*
G37*
D10*
X125630129Y-150966981D03*
X129916239Y-154289520D03*
D11*
X136755863Y-150014063D03*
X126130679Y-147167053D03*
D12*
X131443271Y-148590558D03*
%TD*%
%TO.C,S41*%
G36*
G01*
X155600995Y-139069319D02*
X155264530Y-137813616D01*
G75*
G02*
X155724150Y-137017532I627852J168232D01*
G01*
X156979853Y-136681067D01*
G75*
G02*
X157775937Y-137140687I168232J-627852D01*
G01*
X158112402Y-138396390D01*
G75*
G02*
X157652782Y-139192474I-627852J-168232D01*
G01*
X156397079Y-139528939D01*
G75*
G02*
X155600995Y-139069319I-168232J627852D01*
G01*
G37*
G36*
G01*
X168218588Y-137862525D02*
X167882123Y-136606822D01*
G75*
G02*
X168341743Y-135810738I627852J168232D01*
G01*
X169597446Y-135474273D01*
G75*
G02*
X170393530Y-135933893I168232J-627852D01*
G01*
X170729995Y-137189596D01*
G75*
G02*
X170270375Y-137985680I-627852J-168232D01*
G01*
X169014672Y-138322145D01*
G75*
G02*
X168218588Y-137862525I-168232J627852D01*
G01*
G37*
D10*
X160310688Y-137134431D03*
X165683837Y-137868780D03*
D11*
X169469397Y-130746313D03*
X158844213Y-133593323D03*
D12*
X164156805Y-132169818D03*
%TD*%
%TO.C,S40*%
G36*
G01*
X124983896Y-133867056D02*
X125320361Y-132611353D01*
G75*
G02*
X126116445Y-132151733I627852J-168232D01*
G01*
X127372148Y-132488198D01*
G75*
G02*
X127831768Y-133284282I-168232J-627852D01*
G01*
X127495303Y-134539985D01*
G75*
G02*
X126699219Y-134999605I-627852J168232D01*
G01*
X125443516Y-134663140D01*
G75*
G02*
X124983896Y-133867056I168232J627852D01*
G01*
G37*
G36*
G01*
X136514448Y-139130739D02*
X136850913Y-137875036D01*
G75*
G02*
X137646997Y-137415416I627852J-168232D01*
G01*
X138902700Y-137751881D01*
G75*
G02*
X139362320Y-138547965I-168232J-627852D01*
G01*
X139025855Y-139803668D01*
G75*
G02*
X138229771Y-140263288I-627852J168232D01*
G01*
X136974068Y-139926823D01*
G75*
G02*
X136514448Y-139130739I168232J627852D01*
G01*
G37*
D10*
X130030053Y-134546241D03*
X134316163Y-137868780D03*
D11*
X141155787Y-133593323D03*
X130530603Y-130746313D03*
D12*
X135843195Y-132169818D03*
%TD*%
%TO.C,S39*%
G36*
G01*
X245898966Y-128332641D02*
X245562501Y-127076938D01*
G75*
G02*
X246022121Y-126280854I627852J168232D01*
G01*
X247277824Y-125944389D01*
G75*
G02*
X248073908Y-126404009I168232J-627852D01*
G01*
X248410373Y-127659712D01*
G75*
G02*
X247950753Y-128455796I-627852J-168232D01*
G01*
X246695050Y-128792261D01*
G75*
G02*
X245898966Y-128332641I-168232J627852D01*
G01*
G37*
G36*
G01*
X258516559Y-127125847D02*
X258180094Y-125870144D01*
G75*
G02*
X258639714Y-125074060I627852J168232D01*
G01*
X259895417Y-124737595D01*
G75*
G02*
X260691501Y-125197215I168232J-627852D01*
G01*
X261027966Y-126452918D01*
G75*
G02*
X260568346Y-127249002I-627852J-168232D01*
G01*
X259312643Y-127585467D01*
G75*
G02*
X258516559Y-127125847I-168232J627852D01*
G01*
G37*
D10*
X250608659Y-126397753D03*
X255981808Y-127132102D03*
D11*
X259767368Y-120009635D03*
X249142184Y-122856645D03*
D12*
X254454776Y-121433140D03*
%TD*%
%TO.C,S38*%
G36*
G01*
X227477025Y-129127681D02*
X227140560Y-127871978D01*
G75*
G02*
X227600180Y-127075894I627852J168232D01*
G01*
X228855883Y-126739429D01*
G75*
G02*
X229651967Y-127199049I168232J-627852D01*
G01*
X229988432Y-128454752D01*
G75*
G02*
X229528812Y-129250836I-627852J-168232D01*
G01*
X228273109Y-129587301D01*
G75*
G02*
X227477025Y-129127681I-168232J627852D01*
G01*
G37*
G36*
G01*
X240094618Y-127920887D02*
X239758153Y-126665184D01*
G75*
G02*
X240217773Y-125869100I627852J168232D01*
G01*
X241473476Y-125532635D01*
G75*
G02*
X242269560Y-125992255I168232J-627852D01*
G01*
X242606025Y-127247958D01*
G75*
G02*
X242146405Y-128044042I-627852J-168232D01*
G01*
X240890702Y-128380507D01*
G75*
G02*
X240094618Y-127920887I-168232J627852D01*
G01*
G37*
D10*
X232186718Y-127192793D03*
X237559867Y-127927142D03*
D11*
X241345427Y-120804675D03*
X230720243Y-123651685D03*
D12*
X236032835Y-122228180D03*
%TD*%
%TO.C,S37*%
G36*
G01*
X209055084Y-129922720D02*
X208718619Y-128667017D01*
G75*
G02*
X209178239Y-127870933I627852J168232D01*
G01*
X210433942Y-127534468D01*
G75*
G02*
X211230026Y-127994088I168232J-627852D01*
G01*
X211566491Y-129249791D01*
G75*
G02*
X211106871Y-130045875I-627852J-168232D01*
G01*
X209851168Y-130382340D01*
G75*
G02*
X209055084Y-129922720I-168232J627852D01*
G01*
G37*
G36*
G01*
X221672677Y-128715926D02*
X221336212Y-127460223D01*
G75*
G02*
X221795832Y-126664139I627852J168232D01*
G01*
X223051535Y-126327674D01*
G75*
G02*
X223847619Y-126787294I168232J-627852D01*
G01*
X224184084Y-128042997D01*
G75*
G02*
X223724464Y-128839081I-627852J-168232D01*
G01*
X222468761Y-129175546D01*
G75*
G02*
X221672677Y-128715926I-168232J627852D01*
G01*
G37*
D10*
X213764777Y-127987832D03*
X219137926Y-128722181D03*
D11*
X222923486Y-121599714D03*
X212298302Y-124446724D03*
D12*
X217610894Y-123023219D03*
%TD*%
%TO.C,S36*%
G36*
G01*
X192703695Y-138445166D02*
X192367230Y-137189463D01*
G75*
G02*
X192826850Y-136393379I627852J168232D01*
G01*
X194082553Y-136056914D01*
G75*
G02*
X194878637Y-136516534I168232J-627852D01*
G01*
X195215102Y-137772237D01*
G75*
G02*
X194755482Y-138568321I-627852J-168232D01*
G01*
X193499779Y-138904786D01*
G75*
G02*
X192703695Y-138445166I-168232J627852D01*
G01*
G37*
G36*
G01*
X205321288Y-137238372D02*
X204984823Y-135982669D01*
G75*
G02*
X205444443Y-135186585I627852J168232D01*
G01*
X206700146Y-134850120D01*
G75*
G02*
X207496230Y-135309740I168232J-627852D01*
G01*
X207832695Y-136565443D01*
G75*
G02*
X207373075Y-137361527I-627852J-168232D01*
G01*
X206117372Y-137697992D01*
G75*
G02*
X205321288Y-137238372I-168232J627852D01*
G01*
G37*
D10*
X197413388Y-136510278D03*
X202786537Y-137244627D03*
D11*
X206572097Y-130122160D03*
X195946913Y-132969170D03*
D12*
X201259505Y-131545665D03*
%TD*%
%TO.C,S35*%
G36*
G01*
X176352307Y-146967612D02*
X176015842Y-145711909D01*
G75*
G02*
X176475462Y-144915825I627852J168232D01*
G01*
X177731165Y-144579360D01*
G75*
G02*
X178527249Y-145038980I168232J-627852D01*
G01*
X178863714Y-146294683D01*
G75*
G02*
X178404094Y-147090767I-627852J-168232D01*
G01*
X177148391Y-147427232D01*
G75*
G02*
X176352307Y-146967612I-168232J627852D01*
G01*
G37*
G36*
G01*
X188969900Y-145760818D02*
X188633435Y-144505115D01*
G75*
G02*
X189093055Y-143709031I627852J168232D01*
G01*
X190348758Y-143372566D01*
G75*
G02*
X191144842Y-143832186I168232J-627852D01*
G01*
X191481307Y-145087889D01*
G75*
G02*
X191021687Y-145883973I-627852J-168232D01*
G01*
X189765984Y-146220438D01*
G75*
G02*
X188969900Y-145760818I-168232J627852D01*
G01*
G37*
D10*
X181062000Y-145032724D03*
X186435149Y-145767073D03*
D11*
X190220709Y-138644606D03*
X179595525Y-141491616D03*
D12*
X184908117Y-140068111D03*
%TD*%
%TO.C,S34*%
G36*
G01*
X104232584Y-141765349D02*
X104569049Y-140509646D01*
G75*
G02*
X105365133Y-140050026I627852J-168232D01*
G01*
X106620836Y-140386491D01*
G75*
G02*
X107080456Y-141182575I-168232J-627852D01*
G01*
X106743991Y-142438278D01*
G75*
G02*
X105947907Y-142897898I-627852J168232D01*
G01*
X104692204Y-142561433D01*
G75*
G02*
X104232584Y-141765349I168232J627852D01*
G01*
G37*
G36*
G01*
X115763136Y-147029032D02*
X116099601Y-145773329D01*
G75*
G02*
X116895685Y-145313709I627852J-168232D01*
G01*
X118151388Y-145650174D01*
G75*
G02*
X118611008Y-146446258I-168232J-627852D01*
G01*
X118274543Y-147701961D01*
G75*
G02*
X117478459Y-148161581I-627852J168232D01*
G01*
X116222756Y-147825116D01*
G75*
G02*
X115763136Y-147029032I168232J627852D01*
G01*
G37*
D10*
X109278741Y-142444534D03*
X113564851Y-145767073D03*
D11*
X120404475Y-141491616D03*
X109779291Y-138644606D03*
D12*
X115091883Y-140068111D03*
%TD*%
%TO.C,S33*%
G36*
G01*
X87881196Y-133242903D02*
X88217661Y-131987200D01*
G75*
G02*
X89013745Y-131527580I627852J-168232D01*
G01*
X90269448Y-131864045D01*
G75*
G02*
X90729068Y-132660129I-168232J-627852D01*
G01*
X90392603Y-133915832D01*
G75*
G02*
X89596519Y-134375452I-627852J168232D01*
G01*
X88340816Y-134038987D01*
G75*
G02*
X87881196Y-133242903I168232J627852D01*
G01*
G37*
G36*
G01*
X99411748Y-138506586D02*
X99748213Y-137250883D01*
G75*
G02*
X100544297Y-136791263I627852J-168232D01*
G01*
X101800000Y-137127728D01*
G75*
G02*
X102259620Y-137923812I-168232J-627852D01*
G01*
X101923155Y-139179515D01*
G75*
G02*
X101127071Y-139639135I-627852J168232D01*
G01*
X99871368Y-139302670D01*
G75*
G02*
X99411748Y-138506586I168232J627852D01*
G01*
G37*
D10*
X92927353Y-133922088D03*
X97213463Y-137244627D03*
D11*
X104053087Y-132969170D03*
X93427903Y-130122160D03*
D12*
X98740495Y-131545665D03*
%TD*%
%TO.C,S32*%
G36*
G01*
X71529807Y-124720457D02*
X71866272Y-123464754D01*
G75*
G02*
X72662356Y-123005134I627852J-168232D01*
G01*
X73918059Y-123341599D01*
G75*
G02*
X74377679Y-124137683I-168232J-627852D01*
G01*
X74041214Y-125393386D01*
G75*
G02*
X73245130Y-125853006I-627852J168232D01*
G01*
X71989427Y-125516541D01*
G75*
G02*
X71529807Y-124720457I168232J627852D01*
G01*
G37*
G36*
G01*
X83060359Y-129984140D02*
X83396824Y-128728437D01*
G75*
G02*
X84192908Y-128268817I627852J-168232D01*
G01*
X85448611Y-128605282D01*
G75*
G02*
X85908231Y-129401366I-168232J-627852D01*
G01*
X85571766Y-130657069D01*
G75*
G02*
X84775682Y-131116689I-627852J168232D01*
G01*
X83519979Y-130780224D01*
G75*
G02*
X83060359Y-129984140I168232J627852D01*
G01*
G37*
D10*
X76575964Y-125399642D03*
X80862074Y-128722181D03*
D11*
X87701698Y-124446724D03*
X77076514Y-121599714D03*
D12*
X82389106Y-123023219D03*
%TD*%
%TO.C,S31*%
G36*
G01*
X53107866Y-123925418D02*
X53444331Y-122669715D01*
G75*
G02*
X54240415Y-122210095I627852J-168232D01*
G01*
X55496118Y-122546560D01*
G75*
G02*
X55955738Y-123342644I-168232J-627852D01*
G01*
X55619273Y-124598347D01*
G75*
G02*
X54823189Y-125057967I-627852J168232D01*
G01*
X53567486Y-124721502D01*
G75*
G02*
X53107866Y-123925418I168232J627852D01*
G01*
G37*
G36*
G01*
X64638418Y-129189101D02*
X64974883Y-127933398D01*
G75*
G02*
X65770967Y-127473778I627852J-168232D01*
G01*
X67026670Y-127810243D01*
G75*
G02*
X67486290Y-128606327I-168232J-627852D01*
G01*
X67149825Y-129862030D01*
G75*
G02*
X66353741Y-130321650I-627852J168232D01*
G01*
X65098038Y-129985185D01*
G75*
G02*
X64638418Y-129189101I168232J627852D01*
G01*
G37*
D10*
X58154023Y-124604603D03*
X62440133Y-127927142D03*
D11*
X69279757Y-123651685D03*
X58654573Y-120804675D03*
D12*
X63967165Y-122228180D03*
%TD*%
%TO.C,S29*%
G36*
G01*
X241499043Y-111911902D02*
X241162578Y-110656199D01*
G75*
G02*
X241622198Y-109860115I627852J168232D01*
G01*
X242877901Y-109523650D01*
G75*
G02*
X243673985Y-109983270I168232J-627852D01*
G01*
X244010450Y-111238973D01*
G75*
G02*
X243550830Y-112035057I-627852J-168232D01*
G01*
X242295127Y-112371522D01*
G75*
G02*
X241499043Y-111911902I-168232J627852D01*
G01*
G37*
G36*
G01*
X254116636Y-110705108D02*
X253780171Y-109449405D01*
G75*
G02*
X254239791Y-108653321I627852J168232D01*
G01*
X255495494Y-108316856D01*
G75*
G02*
X256291578Y-108776476I168232J-627852D01*
G01*
X256628043Y-110032179D01*
G75*
G02*
X256168423Y-110828263I-627852J-168232D01*
G01*
X254912720Y-111164728D01*
G75*
G02*
X254116636Y-110705108I-168232J627852D01*
G01*
G37*
D10*
X246208736Y-109977014D03*
X251581885Y-110711363D03*
D11*
X255367445Y-103588896D03*
X244742261Y-106435906D03*
D12*
X250054853Y-105012401D03*
%TD*%
%TO.C,S28*%
G36*
G01*
X223077102Y-112706942D02*
X222740637Y-111451239D01*
G75*
G02*
X223200257Y-110655155I627852J168232D01*
G01*
X224455960Y-110318690D01*
G75*
G02*
X225252044Y-110778310I168232J-627852D01*
G01*
X225588509Y-112034013D01*
G75*
G02*
X225128889Y-112830097I-627852J-168232D01*
G01*
X223873186Y-113166562D01*
G75*
G02*
X223077102Y-112706942I-168232J627852D01*
G01*
G37*
G36*
G01*
X235694695Y-111500148D02*
X235358230Y-110244445D01*
G75*
G02*
X235817850Y-109448361I627852J168232D01*
G01*
X237073553Y-109111896D01*
G75*
G02*
X237869637Y-109571516I168232J-627852D01*
G01*
X238206102Y-110827219D01*
G75*
G02*
X237746482Y-111623303I-627852J-168232D01*
G01*
X236490779Y-111959768D01*
G75*
G02*
X235694695Y-111500148I-168232J627852D01*
G01*
G37*
D10*
X227786795Y-110772054D03*
X233159944Y-111506403D03*
D11*
X236945504Y-104383936D03*
X226320320Y-107230946D03*
D12*
X231632912Y-105807441D03*
%TD*%
%TO.C,S27*%
G36*
G01*
X204655161Y-113501981D02*
X204318696Y-112246278D01*
G75*
G02*
X204778316Y-111450194I627852J168232D01*
G01*
X206034019Y-111113729D01*
G75*
G02*
X206830103Y-111573349I168232J-627852D01*
G01*
X207166568Y-112829052D01*
G75*
G02*
X206706948Y-113625136I-627852J-168232D01*
G01*
X205451245Y-113961601D01*
G75*
G02*
X204655161Y-113501981I-168232J627852D01*
G01*
G37*
G36*
G01*
X217272754Y-112295187D02*
X216936289Y-111039484D01*
G75*
G02*
X217395909Y-110243400I627852J168232D01*
G01*
X218651612Y-109906935D01*
G75*
G02*
X219447696Y-110366555I168232J-627852D01*
G01*
X219784161Y-111622258D01*
G75*
G02*
X219324541Y-112418342I-627852J-168232D01*
G01*
X218068838Y-112754807D01*
G75*
G02*
X217272754Y-112295187I-168232J627852D01*
G01*
G37*
D10*
X209364854Y-111567093D03*
X214738003Y-112301442D03*
D11*
X218523563Y-105178975D03*
X207898379Y-108025985D03*
D12*
X213210971Y-106602480D03*
%TD*%
%TO.C,S26*%
G36*
G01*
X188303772Y-122024427D02*
X187967307Y-120768724D01*
G75*
G02*
X188426927Y-119972640I627852J168232D01*
G01*
X189682630Y-119636175D01*
G75*
G02*
X190478714Y-120095795I168232J-627852D01*
G01*
X190815179Y-121351498D01*
G75*
G02*
X190355559Y-122147582I-627852J-168232D01*
G01*
X189099856Y-122484047D01*
G75*
G02*
X188303772Y-122024427I-168232J627852D01*
G01*
G37*
G36*
G01*
X200921365Y-120817633D02*
X200584900Y-119561930D01*
G75*
G02*
X201044520Y-118765846I627852J168232D01*
G01*
X202300223Y-118429381D01*
G75*
G02*
X203096307Y-118889001I168232J-627852D01*
G01*
X203432772Y-120144704D01*
G75*
G02*
X202973152Y-120940788I-627852J-168232D01*
G01*
X201717449Y-121277253D01*
G75*
G02*
X200921365Y-120817633I-168232J627852D01*
G01*
G37*
D10*
X193013465Y-120089539D03*
X198386614Y-120823888D03*
D11*
X202172174Y-113701421D03*
X191546990Y-116548431D03*
D12*
X196859582Y-115124926D03*
%TD*%
%TO.C,S25*%
G36*
G01*
X171952383Y-130546873D02*
X171615918Y-129291170D01*
G75*
G02*
X172075538Y-128495086I627852J168232D01*
G01*
X173331241Y-128158621D01*
G75*
G02*
X174127325Y-128618241I168232J-627852D01*
G01*
X174463790Y-129873944D01*
G75*
G02*
X174004170Y-130670028I-627852J-168232D01*
G01*
X172748467Y-131006493D01*
G75*
G02*
X171952383Y-130546873I-168232J627852D01*
G01*
G37*
G36*
G01*
X184569976Y-129340079D02*
X184233511Y-128084376D01*
G75*
G02*
X184693131Y-127288292I627852J168232D01*
G01*
X185948834Y-126951827D01*
G75*
G02*
X186744918Y-127411447I168232J-627852D01*
G01*
X187081383Y-128667150D01*
G75*
G02*
X186621763Y-129463234I-627852J-168232D01*
G01*
X185366060Y-129799699D01*
G75*
G02*
X184569976Y-129340079I-168232J627852D01*
G01*
G37*
D10*
X176662076Y-128611985D03*
X182035225Y-129346334D03*
D11*
X185820785Y-122223867D03*
X175195601Y-125070877D03*
D12*
X180508193Y-123647372D03*
%TD*%
%TO.C,S24*%
G36*
G01*
X108632508Y-125344610D02*
X108968973Y-124088907D01*
G75*
G02*
X109765057Y-123629287I627852J-168232D01*
G01*
X111020760Y-123965752D01*
G75*
G02*
X111480380Y-124761836I-168232J-627852D01*
G01*
X111143915Y-126017539D01*
G75*
G02*
X110347831Y-126477159I-627852J168232D01*
G01*
X109092128Y-126140694D01*
G75*
G02*
X108632508Y-125344610I168232J627852D01*
G01*
G37*
G36*
G01*
X120163060Y-130608293D02*
X120499525Y-129352590D01*
G75*
G02*
X121295609Y-128892970I627852J-168232D01*
G01*
X122551312Y-129229435D01*
G75*
G02*
X123010932Y-130025519I-168232J-627852D01*
G01*
X122674467Y-131281222D01*
G75*
G02*
X121878383Y-131740842I-627852J168232D01*
G01*
X120622680Y-131404377D01*
G75*
G02*
X120163060Y-130608293I168232J627852D01*
G01*
G37*
D10*
X113678665Y-126023795D03*
X117964775Y-129346334D03*
D11*
X124804399Y-125070877D03*
X114179215Y-122223867D03*
D12*
X119491807Y-123647372D03*
%TD*%
%TO.C,S23*%
G36*
G01*
X92281119Y-116822164D02*
X92617584Y-115566461D01*
G75*
G02*
X93413668Y-115106841I627852J-168232D01*
G01*
X94669371Y-115443306D01*
G75*
G02*
X95128991Y-116239390I-168232J-627852D01*
G01*
X94792526Y-117495093D01*
G75*
G02*
X93996442Y-117954713I-627852J168232D01*
G01*
X92740739Y-117618248D01*
G75*
G02*
X92281119Y-116822164I168232J627852D01*
G01*
G37*
G36*
G01*
X103811671Y-122085847D02*
X104148136Y-120830144D01*
G75*
G02*
X104944220Y-120370524I627852J-168232D01*
G01*
X106199923Y-120706989D01*
G75*
G02*
X106659543Y-121503073I-168232J-627852D01*
G01*
X106323078Y-122758776D01*
G75*
G02*
X105526994Y-123218396I-627852J168232D01*
G01*
X104271291Y-122881931D01*
G75*
G02*
X103811671Y-122085847I168232J627852D01*
G01*
G37*
D10*
X97327276Y-117501349D03*
X101613386Y-120823888D03*
D11*
X108453010Y-116548431D03*
X97827826Y-113701421D03*
D12*
X103140418Y-115124926D03*
%TD*%
%TO.C,S22*%
G36*
G01*
X75929730Y-108299718D02*
X76266195Y-107044015D01*
G75*
G02*
X77062279Y-106584395I627852J-168232D01*
G01*
X78317982Y-106920860D01*
G75*
G02*
X78777602Y-107716944I-168232J-627852D01*
G01*
X78441137Y-108972647D01*
G75*
G02*
X77645053Y-109432267I-627852J168232D01*
G01*
X76389350Y-109095802D01*
G75*
G02*
X75929730Y-108299718I168232J627852D01*
G01*
G37*
G36*
G01*
X87460282Y-113563401D02*
X87796747Y-112307698D01*
G75*
G02*
X88592831Y-111848078I627852J-168232D01*
G01*
X89848534Y-112184543D01*
G75*
G02*
X90308154Y-112980627I-168232J-627852D01*
G01*
X89971689Y-114236330D01*
G75*
G02*
X89175605Y-114695950I-627852J168232D01*
G01*
X87919902Y-114359485D01*
G75*
G02*
X87460282Y-113563401I168232J627852D01*
G01*
G37*
D10*
X80975887Y-108978903D03*
X85261997Y-112301442D03*
D11*
X92101621Y-108025985D03*
X81476437Y-105178975D03*
D12*
X86789029Y-106602480D03*
%TD*%
%TO.C,S21*%
G36*
G01*
X57507789Y-107504679D02*
X57844254Y-106248976D01*
G75*
G02*
X58640338Y-105789356I627852J-168232D01*
G01*
X59896041Y-106125821D01*
G75*
G02*
X60355661Y-106921905I-168232J-627852D01*
G01*
X60019196Y-108177608D01*
G75*
G02*
X59223112Y-108637228I-627852J168232D01*
G01*
X57967409Y-108300763D01*
G75*
G02*
X57507789Y-107504679I168232J627852D01*
G01*
G37*
G36*
G01*
X69038341Y-112768362D02*
X69374806Y-111512659D01*
G75*
G02*
X70170890Y-111053039I627852J-168232D01*
G01*
X71426593Y-111389504D01*
G75*
G02*
X71886213Y-112185588I-168232J-627852D01*
G01*
X71549748Y-113441291D01*
G75*
G02*
X70753664Y-113900911I-627852J168232D01*
G01*
X69497961Y-113564446D01*
G75*
G02*
X69038341Y-112768362I168232J627852D01*
G01*
G37*
D10*
X62553946Y-108183864D03*
X66840056Y-111506403D03*
D11*
X73679680Y-107230946D03*
X63054496Y-104383936D03*
D12*
X68367088Y-105807441D03*
%TD*%
%TO.C,S19*%
G36*
G01*
X237099118Y-95491163D02*
X236762653Y-94235460D01*
G75*
G02*
X237222273Y-93439376I627852J168232D01*
G01*
X238477976Y-93102911D01*
G75*
G02*
X239274060Y-93562531I168232J-627852D01*
G01*
X239610525Y-94818234D01*
G75*
G02*
X239150905Y-95614318I-627852J-168232D01*
G01*
X237895202Y-95950783D01*
G75*
G02*
X237099118Y-95491163I-168232J627852D01*
G01*
G37*
G36*
G01*
X249716711Y-94284369D02*
X249380246Y-93028666D01*
G75*
G02*
X249839866Y-92232582I627852J168232D01*
G01*
X251095569Y-91896117D01*
G75*
G02*
X251891653Y-92355737I168232J-627852D01*
G01*
X252228118Y-93611440D01*
G75*
G02*
X251768498Y-94407524I-627852J-168232D01*
G01*
X250512795Y-94743989D01*
G75*
G02*
X249716711Y-94284369I-168232J627852D01*
G01*
G37*
D10*
X241808811Y-93556275D03*
X247181960Y-94290624D03*
D11*
X250967520Y-87168157D03*
X240342336Y-90015167D03*
D12*
X245654928Y-88591662D03*
%TD*%
%TO.C,S18*%
G36*
G01*
X218677178Y-96286203D02*
X218340713Y-95030500D01*
G75*
G02*
X218800333Y-94234416I627852J168232D01*
G01*
X220056036Y-93897951D01*
G75*
G02*
X220852120Y-94357571I168232J-627852D01*
G01*
X221188585Y-95613274D01*
G75*
G02*
X220728965Y-96409358I-627852J-168232D01*
G01*
X219473262Y-96745823D01*
G75*
G02*
X218677178Y-96286203I-168232J627852D01*
G01*
G37*
G36*
G01*
X231294771Y-95079409D02*
X230958306Y-93823706D01*
G75*
G02*
X231417926Y-93027622I627852J168232D01*
G01*
X232673629Y-92691157D01*
G75*
G02*
X233469713Y-93150777I168232J-627852D01*
G01*
X233806178Y-94406480D01*
G75*
G02*
X233346558Y-95202564I-627852J-168232D01*
G01*
X232090855Y-95539029D01*
G75*
G02*
X231294771Y-95079409I-168232J627852D01*
G01*
G37*
D10*
X223386871Y-94351315D03*
X228760020Y-95085664D03*
D11*
X232545580Y-87963197D03*
X221920396Y-90810207D03*
D12*
X227232988Y-89386702D03*
%TD*%
%TO.C,S17*%
G36*
G01*
X200255236Y-97081242D02*
X199918771Y-95825539D01*
G75*
G02*
X200378391Y-95029455I627852J168232D01*
G01*
X201634094Y-94692990D01*
G75*
G02*
X202430178Y-95152610I168232J-627852D01*
G01*
X202766643Y-96408313D01*
G75*
G02*
X202307023Y-97204397I-627852J-168232D01*
G01*
X201051320Y-97540862D01*
G75*
G02*
X200255236Y-97081242I-168232J627852D01*
G01*
G37*
G36*
G01*
X212872829Y-95874448D02*
X212536364Y-94618745D01*
G75*
G02*
X212995984Y-93822661I627852J168232D01*
G01*
X214251687Y-93486196D01*
G75*
G02*
X215047771Y-93945816I168232J-627852D01*
G01*
X215384236Y-95201519D01*
G75*
G02*
X214924616Y-95997603I-627852J-168232D01*
G01*
X213668913Y-96334068D01*
G75*
G02*
X212872829Y-95874448I-168232J627852D01*
G01*
G37*
D10*
X204964929Y-95146354D03*
X210338078Y-95880703D03*
D11*
X214123638Y-88758236D03*
X203498454Y-91605246D03*
D12*
X208811046Y-90181741D03*
%TD*%
%TO.C,S16*%
G36*
G01*
X183903848Y-105603688D02*
X183567383Y-104347985D01*
G75*
G02*
X184027003Y-103551901I627852J168232D01*
G01*
X185282706Y-103215436D01*
G75*
G02*
X186078790Y-103675056I168232J-627852D01*
G01*
X186415255Y-104930759D01*
G75*
G02*
X185955635Y-105726843I-627852J-168232D01*
G01*
X184699932Y-106063308D01*
G75*
G02*
X183903848Y-105603688I-168232J627852D01*
G01*
G37*
G36*
G01*
X196521441Y-104396894D02*
X196184976Y-103141191D01*
G75*
G02*
X196644596Y-102345107I627852J168232D01*
G01*
X197900299Y-102008642D01*
G75*
G02*
X198696383Y-102468262I168232J-627852D01*
G01*
X199032848Y-103723965D01*
G75*
G02*
X198573228Y-104520049I-627852J-168232D01*
G01*
X197317525Y-104856514D01*
G75*
G02*
X196521441Y-104396894I-168232J627852D01*
G01*
G37*
D10*
X188613541Y-103668800D03*
X193986690Y-104403149D03*
D11*
X197772250Y-97280682D03*
X187147066Y-100127692D03*
D12*
X192459658Y-98704187D03*
%TD*%
%TO.C,S15*%
G36*
G01*
X167552459Y-114126134D02*
X167215994Y-112870431D01*
G75*
G02*
X167675614Y-112074347I627852J168232D01*
G01*
X168931317Y-111737882D01*
G75*
G02*
X169727401Y-112197502I168232J-627852D01*
G01*
X170063866Y-113453205D01*
G75*
G02*
X169604246Y-114249289I-627852J-168232D01*
G01*
X168348543Y-114585754D01*
G75*
G02*
X167552459Y-114126134I-168232J627852D01*
G01*
G37*
G36*
G01*
X180170052Y-112919340D02*
X179833587Y-111663637D01*
G75*
G02*
X180293207Y-110867553I627852J168232D01*
G01*
X181548910Y-110531088D01*
G75*
G02*
X182344994Y-110990708I168232J-627852D01*
G01*
X182681459Y-112246411D01*
G75*
G02*
X182221839Y-113042495I-627852J-168232D01*
G01*
X180966136Y-113378960D01*
G75*
G02*
X180170052Y-112919340I-168232J627852D01*
G01*
G37*
D10*
X172262152Y-112191246D03*
X177635301Y-112925595D03*
D11*
X181420861Y-105803128D03*
X170795677Y-108650138D03*
D12*
X176108269Y-107226633D03*
%TD*%
%TO.C,S14*%
G36*
G01*
X113032432Y-108923871D02*
X113368897Y-107668168D01*
G75*
G02*
X114164981Y-107208548I627852J-168232D01*
G01*
X115420684Y-107545013D01*
G75*
G02*
X115880304Y-108341097I-168232J-627852D01*
G01*
X115543839Y-109596800D01*
G75*
G02*
X114747755Y-110056420I-627852J168232D01*
G01*
X113492052Y-109719955D01*
G75*
G02*
X113032432Y-108923871I168232J627852D01*
G01*
G37*
G36*
G01*
X124562984Y-114187554D02*
X124899449Y-112931851D01*
G75*
G02*
X125695533Y-112472231I627852J-168232D01*
G01*
X126951236Y-112808696D01*
G75*
G02*
X127410856Y-113604780I-168232J-627852D01*
G01*
X127074391Y-114860483D01*
G75*
G02*
X126278307Y-115320103I-627852J168232D01*
G01*
X125022604Y-114983638D01*
G75*
G02*
X124562984Y-114187554I168232J627852D01*
G01*
G37*
D10*
X118078589Y-109603056D03*
X122364699Y-112925595D03*
D11*
X129204323Y-108650138D03*
X118579139Y-105803128D03*
D12*
X123891731Y-107226633D03*
%TD*%
%TO.C,S13*%
G36*
G01*
X96681043Y-100401425D02*
X97017508Y-99145722D01*
G75*
G02*
X97813592Y-98686102I627852J-168232D01*
G01*
X99069295Y-99022567D01*
G75*
G02*
X99528915Y-99818651I-168232J-627852D01*
G01*
X99192450Y-101074354D01*
G75*
G02*
X98396366Y-101533974I-627852J168232D01*
G01*
X97140663Y-101197509D01*
G75*
G02*
X96681043Y-100401425I168232J627852D01*
G01*
G37*
G36*
G01*
X108211595Y-105665108D02*
X108548060Y-104409405D01*
G75*
G02*
X109344144Y-103949785I627852J-168232D01*
G01*
X110599847Y-104286250D01*
G75*
G02*
X111059467Y-105082334I-168232J-627852D01*
G01*
X110723002Y-106338037D01*
G75*
G02*
X109926918Y-106797657I-627852J168232D01*
G01*
X108671215Y-106461192D01*
G75*
G02*
X108211595Y-105665108I168232J627852D01*
G01*
G37*
D10*
X101727200Y-101080610D03*
X106013310Y-104403149D03*
D11*
X112852934Y-100127692D03*
X102227750Y-97280682D03*
D12*
X107540342Y-98704187D03*
%TD*%
%TO.C,S12*%
G36*
G01*
X80329655Y-91878979D02*
X80666120Y-90623276D01*
G75*
G02*
X81462204Y-90163656I627852J-168232D01*
G01*
X82717907Y-90500121D01*
G75*
G02*
X83177527Y-91296205I-168232J-627852D01*
G01*
X82841062Y-92551908D01*
G75*
G02*
X82044978Y-93011528I-627852J168232D01*
G01*
X80789275Y-92675063D01*
G75*
G02*
X80329655Y-91878979I168232J627852D01*
G01*
G37*
G36*
G01*
X91860207Y-97142662D02*
X92196672Y-95886959D01*
G75*
G02*
X92992756Y-95427339I627852J-168232D01*
G01*
X94248459Y-95763804D01*
G75*
G02*
X94708079Y-96559888I-168232J-627852D01*
G01*
X94371614Y-97815591D01*
G75*
G02*
X93575530Y-98275211I-627852J168232D01*
G01*
X92319827Y-97938746D01*
G75*
G02*
X91860207Y-97142662I168232J627852D01*
G01*
G37*
D10*
X85375812Y-92558164D03*
X89661922Y-95880703D03*
D11*
X96501546Y-91605246D03*
X85876362Y-88758236D03*
D12*
X91188954Y-90181741D03*
%TD*%
%TO.C,S11*%
G36*
G01*
X61907713Y-91083940D02*
X62244178Y-89828237D01*
G75*
G02*
X63040262Y-89368617I627852J-168232D01*
G01*
X64295965Y-89705082D01*
G75*
G02*
X64755585Y-90501166I-168232J-627852D01*
G01*
X64419120Y-91756869D01*
G75*
G02*
X63623036Y-92216489I-627852J168232D01*
G01*
X62367333Y-91880024D01*
G75*
G02*
X61907713Y-91083940I168232J627852D01*
G01*
G37*
G36*
G01*
X73438265Y-96347623D02*
X73774730Y-95091920D01*
G75*
G02*
X74570814Y-94632300I627852J-168232D01*
G01*
X75826517Y-94968765D01*
G75*
G02*
X76286137Y-95764849I-168232J-627852D01*
G01*
X75949672Y-97020552D01*
G75*
G02*
X75153588Y-97480172I-627852J168232D01*
G01*
X73897885Y-97143707D01*
G75*
G02*
X73438265Y-96347623I168232J627852D01*
G01*
G37*
D10*
X66953870Y-91763125D03*
X71239980Y-95085664D03*
D11*
X78079604Y-90810207D03*
X67454420Y-87963197D03*
D12*
X72767012Y-89386702D03*
%TD*%
%TO.C,S10*%
G36*
G01*
X43485773Y-90288900D02*
X43822238Y-89033197D01*
G75*
G02*
X44618322Y-88573577I627852J-168232D01*
G01*
X45874025Y-88910042D01*
G75*
G02*
X46333645Y-89706126I-168232J-627852D01*
G01*
X45997180Y-90961829D01*
G75*
G02*
X45201096Y-91421449I-627852J168232D01*
G01*
X43945393Y-91084984D01*
G75*
G02*
X43485773Y-90288900I168232J627852D01*
G01*
G37*
G36*
G01*
X55016325Y-95552583D02*
X55352790Y-94296880D01*
G75*
G02*
X56148874Y-93837260I627852J-168232D01*
G01*
X57404577Y-94173725D01*
G75*
G02*
X57864197Y-94969809I-168232J-627852D01*
G01*
X57527732Y-96225512D01*
G75*
G02*
X56731648Y-96685132I-627852J168232D01*
G01*
X55475945Y-96348667D01*
G75*
G02*
X55016325Y-95552583I168232J627852D01*
G01*
G37*
D10*
X48531930Y-90968085D03*
X52818040Y-94290624D03*
D11*
X59657664Y-90015167D03*
X49032480Y-87168157D03*
D12*
X54345072Y-88591662D03*
%TD*%
%TO.C,S9*%
G36*
G01*
X232699195Y-79070424D02*
X232362730Y-77814721D01*
G75*
G02*
X232822350Y-77018637I627852J168232D01*
G01*
X234078053Y-76682172D01*
G75*
G02*
X234874137Y-77141792I168232J-627852D01*
G01*
X235210602Y-78397495D01*
G75*
G02*
X234750982Y-79193579I-627852J-168232D01*
G01*
X233495279Y-79530044D01*
G75*
G02*
X232699195Y-79070424I-168232J627852D01*
G01*
G37*
G36*
G01*
X245316788Y-77863630D02*
X244980323Y-76607927D01*
G75*
G02*
X245439943Y-75811843I627852J168232D01*
G01*
X246695646Y-75475378D01*
G75*
G02*
X247491730Y-75934998I168232J-627852D01*
G01*
X247828195Y-77190701D01*
G75*
G02*
X247368575Y-77986785I-627852J-168232D01*
G01*
X246112872Y-78323250D01*
G75*
G02*
X245316788Y-77863630I-168232J627852D01*
G01*
G37*
D10*
X237408888Y-77135536D03*
X242782037Y-77869885D03*
D11*
X246567597Y-70747418D03*
X235942413Y-73594428D03*
D12*
X241255005Y-72170923D03*
%TD*%
%TO.C,S8*%
G36*
G01*
X214277254Y-79865464D02*
X213940789Y-78609761D01*
G75*
G02*
X214400409Y-77813677I627852J168232D01*
G01*
X215656112Y-77477212D01*
G75*
G02*
X216452196Y-77936832I168232J-627852D01*
G01*
X216788661Y-79192535D01*
G75*
G02*
X216329041Y-79988619I-627852J-168232D01*
G01*
X215073338Y-80325084D01*
G75*
G02*
X214277254Y-79865464I-168232J627852D01*
G01*
G37*
G36*
G01*
X226894847Y-78658670D02*
X226558382Y-77402967D01*
G75*
G02*
X227018002Y-76606883I627852J168232D01*
G01*
X228273705Y-76270418D01*
G75*
G02*
X229069789Y-76730038I168232J-627852D01*
G01*
X229406254Y-77985741D01*
G75*
G02*
X228946634Y-78781825I-627852J-168232D01*
G01*
X227690931Y-79118290D01*
G75*
G02*
X226894847Y-78658670I-168232J627852D01*
G01*
G37*
D10*
X218986947Y-77930576D03*
X224360096Y-78664925D03*
D11*
X228145656Y-71542458D03*
X217520472Y-74389468D03*
D12*
X222833064Y-72965963D03*
%TD*%
%TO.C,S7*%
G36*
G01*
X195855313Y-80660503D02*
X195518848Y-79404800D01*
G75*
G02*
X195978468Y-78608716I627852J168232D01*
G01*
X197234171Y-78272251D01*
G75*
G02*
X198030255Y-78731871I168232J-627852D01*
G01*
X198366720Y-79987574D01*
G75*
G02*
X197907100Y-80783658I-627852J-168232D01*
G01*
X196651397Y-81120123D01*
G75*
G02*
X195855313Y-80660503I-168232J627852D01*
G01*
G37*
G36*
G01*
X208472906Y-79453709D02*
X208136441Y-78198006D01*
G75*
G02*
X208596061Y-77401922I627852J168232D01*
G01*
X209851764Y-77065457D01*
G75*
G02*
X210647848Y-77525077I168232J-627852D01*
G01*
X210984313Y-78780780D01*
G75*
G02*
X210524693Y-79576864I-627852J-168232D01*
G01*
X209268990Y-79913329D01*
G75*
G02*
X208472906Y-79453709I-168232J627852D01*
G01*
G37*
D10*
X200565006Y-78725615D03*
X205938155Y-79459964D03*
D11*
X209723715Y-72337497D03*
X199098531Y-75184507D03*
D12*
X204411123Y-73761002D03*
%TD*%
%TO.C,S6*%
G36*
G01*
X179503924Y-89182949D02*
X179167459Y-87927246D01*
G75*
G02*
X179627079Y-87131162I627852J168232D01*
G01*
X180882782Y-86794697D01*
G75*
G02*
X181678866Y-87254317I168232J-627852D01*
G01*
X182015331Y-88510020D01*
G75*
G02*
X181555711Y-89306104I-627852J-168232D01*
G01*
X180300008Y-89642569D01*
G75*
G02*
X179503924Y-89182949I-168232J627852D01*
G01*
G37*
G36*
G01*
X192121517Y-87976155D02*
X191785052Y-86720452D01*
G75*
G02*
X192244672Y-85924368I627852J168232D01*
G01*
X193500375Y-85587903D01*
G75*
G02*
X194296459Y-86047523I168232J-627852D01*
G01*
X194632924Y-87303226D01*
G75*
G02*
X194173304Y-88099310I-627852J-168232D01*
G01*
X192917601Y-88435775D01*
G75*
G02*
X192121517Y-87976155I-168232J627852D01*
G01*
G37*
D10*
X184213617Y-87248061D03*
X189586766Y-87982410D03*
D11*
X193372326Y-80859943D03*
X182747142Y-83706953D03*
D12*
X188059734Y-82283448D03*
%TD*%
%TO.C,S5*%
G36*
G01*
X163152536Y-97705395D02*
X162816071Y-96449692D01*
G75*
G02*
X163275691Y-95653608I627852J168232D01*
G01*
X164531394Y-95317143D01*
G75*
G02*
X165327478Y-95776763I168232J-627852D01*
G01*
X165663943Y-97032466D01*
G75*
G02*
X165204323Y-97828550I-627852J-168232D01*
G01*
X163948620Y-98165015D01*
G75*
G02*
X163152536Y-97705395I-168232J627852D01*
G01*
G37*
G36*
G01*
X175770129Y-96498601D02*
X175433664Y-95242898D01*
G75*
G02*
X175893284Y-94446814I627852J168232D01*
G01*
X177148987Y-94110349D01*
G75*
G02*
X177945071Y-94569969I168232J-627852D01*
G01*
X178281536Y-95825672D01*
G75*
G02*
X177821916Y-96621756I-627852J-168232D01*
G01*
X176566213Y-96958221D01*
G75*
G02*
X175770129Y-96498601I-168232J627852D01*
G01*
G37*
D10*
X167862229Y-95770507D03*
X173235378Y-96504856D03*
D11*
X177020938Y-89382389D03*
X166395754Y-92229399D03*
D12*
X171708346Y-90805894D03*
%TD*%
%TO.C,S4*%
G36*
G01*
X117432355Y-92503132D02*
X117768820Y-91247429D01*
G75*
G02*
X118564904Y-90787809I627852J-168232D01*
G01*
X119820607Y-91124274D01*
G75*
G02*
X120280227Y-91920358I-168232J-627852D01*
G01*
X119943762Y-93176061D01*
G75*
G02*
X119147678Y-93635681I-627852J168232D01*
G01*
X117891975Y-93299216D01*
G75*
G02*
X117432355Y-92503132I168232J627852D01*
G01*
G37*
G36*
G01*
X128962907Y-97766815D02*
X129299372Y-96511112D01*
G75*
G02*
X130095456Y-96051492I627852J-168232D01*
G01*
X131351159Y-96387957D01*
G75*
G02*
X131810779Y-97184041I-168232J-627852D01*
G01*
X131474314Y-98439744D01*
G75*
G02*
X130678230Y-98899364I-627852J168232D01*
G01*
X129422527Y-98562899D01*
G75*
G02*
X128962907Y-97766815I168232J627852D01*
G01*
G37*
D10*
X122478512Y-93182317D03*
X126764622Y-96504856D03*
D11*
X133604246Y-92229399D03*
X122979062Y-89382389D03*
D12*
X128291654Y-90805894D03*
%TD*%
%TO.C,S3*%
G36*
G01*
X101080967Y-83980686D02*
X101417432Y-82724983D01*
G75*
G02*
X102213516Y-82265363I627852J-168232D01*
G01*
X103469219Y-82601828D01*
G75*
G02*
X103928839Y-83397912I-168232J-627852D01*
G01*
X103592374Y-84653615D01*
G75*
G02*
X102796290Y-85113235I-627852J168232D01*
G01*
X101540587Y-84776770D01*
G75*
G02*
X101080967Y-83980686I168232J627852D01*
G01*
G37*
G36*
G01*
X112611519Y-89244369D02*
X112947984Y-87988666D01*
G75*
G02*
X113744068Y-87529046I627852J-168232D01*
G01*
X114999771Y-87865511D01*
G75*
G02*
X115459391Y-88661595I-168232J-627852D01*
G01*
X115122926Y-89917298D01*
G75*
G02*
X114326842Y-90376918I-627852J168232D01*
G01*
X113071139Y-90040453D01*
G75*
G02*
X112611519Y-89244369I168232J627852D01*
G01*
G37*
D10*
X106127124Y-84659871D03*
X110413234Y-87982410D03*
D11*
X117252858Y-83706953D03*
X106627674Y-80859943D03*
D12*
X111940266Y-82283448D03*
%TD*%
%TO.C,S2*%
G36*
G01*
X84729578Y-75458240D02*
X85066043Y-74202537D01*
G75*
G02*
X85862127Y-73742917I627852J-168232D01*
G01*
X87117830Y-74079382D01*
G75*
G02*
X87577450Y-74875466I-168232J-627852D01*
G01*
X87240985Y-76131169D01*
G75*
G02*
X86444901Y-76590789I-627852J168232D01*
G01*
X85189198Y-76254324D01*
G75*
G02*
X84729578Y-75458240I168232J627852D01*
G01*
G37*
G36*
G01*
X96260130Y-80721923D02*
X96596595Y-79466220D01*
G75*
G02*
X97392679Y-79006600I627852J-168232D01*
G01*
X98648382Y-79343065D01*
G75*
G02*
X99108002Y-80139149I-168232J-627852D01*
G01*
X98771537Y-81394852D01*
G75*
G02*
X97975453Y-81854472I-627852J168232D01*
G01*
X96719750Y-81518007D01*
G75*
G02*
X96260130Y-80721923I168232J627852D01*
G01*
G37*
D10*
X89775735Y-76137425D03*
X94061845Y-79459964D03*
D11*
X100901469Y-75184507D03*
X90276285Y-72337497D03*
D12*
X95588877Y-73761002D03*
%TD*%
%TO.C,S1*%
G36*
G01*
X66307637Y-74663201D02*
X66644102Y-73407498D01*
G75*
G02*
X67440186Y-72947878I627852J-168232D01*
G01*
X68695889Y-73284343D01*
G75*
G02*
X69155509Y-74080427I-168232J-627852D01*
G01*
X68819044Y-75336130D01*
G75*
G02*
X68022960Y-75795750I-627852J168232D01*
G01*
X66767257Y-75459285D01*
G75*
G02*
X66307637Y-74663201I168232J627852D01*
G01*
G37*
G36*
G01*
X77838189Y-79926884D02*
X78174654Y-78671181D01*
G75*
G02*
X78970738Y-78211561I627852J-168232D01*
G01*
X80226441Y-78548026D01*
G75*
G02*
X80686061Y-79344110I-168232J-627852D01*
G01*
X80349596Y-80599813D01*
G75*
G02*
X79553512Y-81059433I-627852J168232D01*
G01*
X78297809Y-80722968D01*
G75*
G02*
X77838189Y-79926884I168232J627852D01*
G01*
G37*
D10*
X71353794Y-75342386D03*
X75639904Y-78664925D03*
D11*
X82479528Y-74389468D03*
X71854344Y-71542458D03*
D12*
X77166936Y-72965963D03*
%TD*%
%TO.C,S0*%
G36*
G01*
X47885696Y-73868161D02*
X48222161Y-72612458D01*
G75*
G02*
X49018245Y-72152838I627852J-168232D01*
G01*
X50273948Y-72489303D01*
G75*
G02*
X50733568Y-73285387I-168232J-627852D01*
G01*
X50397103Y-74541090D01*
G75*
G02*
X49601019Y-75000710I-627852J168232D01*
G01*
X48345316Y-74664245D01*
G75*
G02*
X47885696Y-73868161I168232J627852D01*
G01*
G37*
G36*
G01*
X59416248Y-79131844D02*
X59752713Y-77876141D01*
G75*
G02*
X60548797Y-77416521I627852J-168232D01*
G01*
X61804500Y-77752986D01*
G75*
G02*
X62264120Y-78549070I-168232J-627852D01*
G01*
X61927655Y-79804773D01*
G75*
G02*
X61131571Y-80264393I-627852J168232D01*
G01*
X59875868Y-79927928D01*
G75*
G02*
X59416248Y-79131844I168232J627852D01*
G01*
G37*
D10*
X52931853Y-74547346D03*
X57217963Y-77869885D03*
D11*
X64057587Y-73594428D03*
X53432403Y-70747418D03*
D12*
X58744995Y-72170923D03*
%TD*%
D13*
%TO.C,N1*%
X142380000Y-84760000D03*
X142380000Y-87300000D03*
X142380000Y-89840000D03*
X142380000Y-92380000D03*
X142380000Y-94920000D03*
X142380000Y-97460000D03*
X142380000Y-100000000D03*
X142380000Y-102540000D03*
X142380000Y-105080000D03*
X142380000Y-107620000D03*
X142380000Y-110160000D03*
X142380000Y-112700000D03*
X142380000Y-115240000D03*
X157620000Y-84760000D03*
X157620000Y-87300000D03*
X157620000Y-89840000D03*
X157620000Y-92380000D03*
X157620000Y-94920000D03*
X157620000Y-97460000D03*
X157620000Y-100000000D03*
X157620000Y-102540000D03*
X157620000Y-105080000D03*
X157620000Y-107620000D03*
X157620000Y-110160000D03*
X157620000Y-112700000D03*
X157620000Y-115240000D03*
%TD*%
%TO.C,SW2*%
G36*
G01*
X148000000Y-96650000D02*
X148000000Y-97650000D01*
G75*
G02*
X147950000Y-97700000I-50000J0D01*
G01*
X146250000Y-97700000D01*
G75*
G02*
X146200000Y-97650000I0J50000D01*
G01*
X146200000Y-96650000D01*
G75*
G02*
X146250000Y-96600000I50000J0D01*
G01*
X147950000Y-96600000D01*
G75*
G02*
X148000000Y-96650000I0J-50000D01*
G01*
G37*
G36*
G01*
X154300000Y-96650000D02*
X154300000Y-97650000D01*
G75*
G02*
X154250000Y-97700000I-50000J0D01*
G01*
X152550000Y-97700000D01*
G75*
G02*
X152500000Y-97650000I0J50000D01*
G01*
X152500000Y-96650000D01*
G75*
G02*
X152550000Y-96600000I50000J0D01*
G01*
X154250000Y-96600000D01*
G75*
G02*
X154300000Y-96650000I0J-50000D01*
G01*
G37*
G36*
G01*
X148000000Y-92850000D02*
X148000000Y-93850000D01*
G75*
G02*
X147950000Y-93900000I-50000J0D01*
G01*
X146250000Y-93900000D01*
G75*
G02*
X146200000Y-93850000I0J50000D01*
G01*
X146200000Y-92850000D01*
G75*
G02*
X146250000Y-92800000I50000J0D01*
G01*
X147950000Y-92800000D01*
G75*
G02*
X148000000Y-92850000I0J-50000D01*
G01*
G37*
G36*
G01*
X154300000Y-92850000D02*
X154300000Y-93850000D01*
G75*
G02*
X154250000Y-93900000I-50000J0D01*
G01*
X152550000Y-93900000D01*
G75*
G02*
X152500000Y-93850000I0J50000D01*
G01*
X152500000Y-92850000D01*
G75*
G02*
X152550000Y-92800000I50000J0D01*
G01*
X154250000Y-92800000D01*
G75*
G02*
X154300000Y-92850000I0J-50000D01*
G01*
G37*
%TD*%
%TO.C,SW1*%
G36*
G01*
X146050000Y-89430000D02*
X146050000Y-88630000D01*
G75*
G02*
X146100000Y-88580000I50000J0D01*
G01*
X147100000Y-88580000D01*
G75*
G02*
X147150000Y-88630000I0J-50000D01*
G01*
X147150000Y-89430000D01*
G75*
G02*
X147100000Y-89480000I-50000J0D01*
G01*
X146100000Y-89480000D01*
G75*
G02*
X146050000Y-89430000I0J50000D01*
G01*
G37*
G36*
G01*
X153350000Y-89430000D02*
X153350000Y-88630000D01*
G75*
G02*
X153400000Y-88580000I50000J0D01*
G01*
X154400000Y-88580000D01*
G75*
G02*
X154450000Y-88630000I0J-50000D01*
G01*
X154450000Y-89430000D01*
G75*
G02*
X154400000Y-89480000I-50000J0D01*
G01*
X153400000Y-89480000D01*
G75*
G02*
X153350000Y-89430000I0J50000D01*
G01*
G37*
G36*
G01*
X153350000Y-87220000D02*
X153350000Y-86420000D01*
G75*
G02*
X153400000Y-86370000I50000J0D01*
G01*
X154400000Y-86370000D01*
G75*
G02*
X154450000Y-86420000I0J-50000D01*
G01*
X154450000Y-87220000D01*
G75*
G02*
X154400000Y-87270000I-50000J0D01*
G01*
X153400000Y-87270000D01*
G75*
G02*
X153350000Y-87220000I0J50000D01*
G01*
G37*
G36*
G01*
X146050000Y-87220000D02*
X146050000Y-86420000D01*
G75*
G02*
X146100000Y-86370000I50000J0D01*
G01*
X147100000Y-86370000D01*
G75*
G02*
X147150000Y-86420000I0J-50000D01*
G01*
X147150000Y-87220000D01*
G75*
G02*
X147100000Y-87270000I-50000J0D01*
G01*
X146100000Y-87270000D01*
G75*
G02*
X146050000Y-87220000I0J50000D01*
G01*
G37*
G36*
G01*
X152100000Y-90430000D02*
X152100000Y-88930000D01*
G75*
G02*
X152150000Y-88880000I50000J0D01*
G01*
X152850000Y-88880000D01*
G75*
G02*
X152900000Y-88930000I0J-50000D01*
G01*
X152900000Y-90430000D01*
G75*
G02*
X152850000Y-90480000I-50000J0D01*
G01*
X152150000Y-90480000D01*
G75*
G02*
X152100000Y-90430000I0J50000D01*
G01*
G37*
G36*
G01*
X150600000Y-90430000D02*
X150600000Y-88930000D01*
G75*
G02*
X150650000Y-88880000I50000J0D01*
G01*
X151350000Y-88880000D01*
G75*
G02*
X151400000Y-88930000I0J-50000D01*
G01*
X151400000Y-90430000D01*
G75*
G02*
X151350000Y-90480000I-50000J0D01*
G01*
X150650000Y-90480000D01*
G75*
G02*
X150600000Y-90430000I0J50000D01*
G01*
G37*
G36*
G01*
X147600000Y-90430000D02*
X147600000Y-88930000D01*
G75*
G02*
X147650000Y-88880000I50000J0D01*
G01*
X148350000Y-88880000D01*
G75*
G02*
X148400000Y-88930000I0J-50000D01*
G01*
X148400000Y-90430000D01*
G75*
G02*
X148350000Y-90480000I-50000J0D01*
G01*
X147650000Y-90480000D01*
G75*
G02*
X147600000Y-90430000I0J50000D01*
G01*
G37*
D14*
X151750000Y-87920000D03*
X148750000Y-87920000D03*
%TD*%
M02*
