%TF.GenerationSoftware,KiCad,Pcbnew,(5.1.10)-1*%
%TF.CreationDate,2021-10-19T15:54:07-06:00*%
%TF.ProjectId,batreus,62617472-6575-4732-9e6b-696361645f70,rev?*%
%TF.SameCoordinates,Original*%
%TF.FileFunction,Profile,NP*%
%FSLAX46Y46*%
G04 Gerber Fmt 4.6, Leading zero omitted, Abs format (unit mm)*
G04 Created by KiCad (PCBNEW (5.1.10)-1) date 2021-10-19 15:54:07*
%MOMM*%
%LPD*%
G01*
G04 APERTURE LIST*
%TA.AperFunction,Profile*%
%ADD10C,0.050000*%
%TD*%
%TA.AperFunction,Profile*%
%ADD11C,0.150000*%
%TD*%
G04 APERTURE END LIST*
D10*
X126275000Y-79425000D02*
X126171066Y-79392128D01*
X173451798Y-79506097D02*
X173810783Y-79374487D01*
D11*
X267281852Y-126807365D02*
G75*
G02*
X265867635Y-129256852I-1931852J-517635D01*
G01*
X230067631Y-134681851D02*
G75*
G02*
X227618149Y-133267631I-517631J1931851D01*
G01*
X224539562Y-132130349D02*
G75*
G02*
X227618149Y-133267631I735438J-2744651D01*
G01*
X242856988Y-131202083D02*
G75*
G02*
X246043149Y-132467631I743012J-2772917D01*
G01*
X248492631Y-133881851D02*
G75*
G02*
X246043149Y-132467631I-517631J1931851D01*
G01*
X214081852Y-136907365D02*
G75*
G02*
X212667635Y-139356852I-1931852J-517635D01*
G01*
X214081852Y-136907365D02*
G75*
G02*
X215496062Y-134457873I1931851J517641D01*
G01*
X197731852Y-145432365D02*
G75*
G02*
X199146062Y-142982873I1931851J517641D01*
G01*
X197731852Y-145432365D02*
G75*
G02*
X196317635Y-147881852I-1931852J-517635D01*
G01*
X181381852Y-153957365D02*
G75*
G02*
X182796062Y-151507873I1931851J517641D01*
G01*
X181381852Y-153957365D02*
G75*
G02*
X179967635Y-156406852I-1931852J-517635D01*
G01*
X247232355Y-59693151D02*
G75*
G02*
X249681849Y-61107355I517645J-1931849D01*
G01*
X228807355Y-60493151D02*
G75*
G02*
X231256849Y-61907355I517645J-1931849D01*
G01*
X233706331Y-63321575D02*
G75*
G02*
X231256849Y-61907355I-517631J1931851D01*
G01*
X210382355Y-61318151D02*
G75*
G02*
X212831849Y-62732355I517645J-1931849D01*
G01*
X215281331Y-64146575D02*
G75*
G02*
X212831849Y-62732355I-517631J1931851D01*
G01*
X117203934Y-151507872D02*
G75*
G02*
X118618148Y-153957362I-517638J-1931852D01*
G01*
X120032362Y-156406852D02*
G75*
G02*
X118618148Y-153957362I517638J1931852D01*
G01*
X103682362Y-147881852D02*
G75*
G02*
X102268148Y-145432362I517638J1931852D01*
G01*
X100853934Y-142982872D02*
G75*
G02*
X102268148Y-145432362I-517638J-1931852D01*
G01*
X87332362Y-139356852D02*
G75*
G02*
X85918148Y-136907362I517638J1931852D01*
G01*
X84503934Y-134457872D02*
G75*
G02*
X85918148Y-136907362I-517638J-1931852D01*
G01*
X72406852Y-133292638D02*
G75*
G02*
X69957362Y-134706852I-1931852J517638D01*
G01*
X72406852Y-133292638D02*
G75*
G02*
X74856342Y-131878424I1931852J-517638D01*
G01*
X53981852Y-132492638D02*
G75*
G02*
X56431342Y-131078424I1931852J-517638D01*
G01*
X53981852Y-132492638D02*
G75*
G02*
X51532362Y-133906852I-1931852J517638D01*
G01*
X34132362Y-129231852D02*
G75*
G02*
X32718148Y-126782362I517638J1931852D01*
G01*
X126171066Y-79392128D02*
G75*
G02*
X124756852Y-76942638I517638J1931852D01*
G01*
X123342638Y-74493148D02*
G75*
G02*
X124756852Y-76942638I-517638J-1931852D01*
G01*
X109821066Y-70867128D02*
G75*
G02*
X108406852Y-68417638I517638J1931852D01*
G01*
X106992638Y-65968148D02*
G75*
G02*
X108406852Y-68417638I-517638J-1931852D01*
G01*
X191593149Y-68417641D02*
G75*
G02*
X193007359Y-65968149I1931851J517641D01*
G01*
X191593149Y-68417641D02*
G75*
G02*
X190178932Y-70867128I-1931852J-517635D01*
G01*
X175225000Y-76925000D02*
G75*
G02*
X176639210Y-74475508I1931851J517641D01*
G01*
X175225000Y-76925000D02*
G75*
G02*
X173810783Y-79374487I-1931852J-517635D01*
G01*
X87168148Y-62707362D02*
G75*
G02*
X84718658Y-64121576I-1931852J517638D01*
G01*
X87168148Y-62707362D02*
G75*
G02*
X89617638Y-61293148I1931852J-517638D01*
G01*
X68743148Y-61907362D02*
G75*
G02*
X66293658Y-63321576I-1931852J517638D01*
G01*
X68743148Y-61907362D02*
G75*
G02*
X71192638Y-60493148I1931852J-517638D01*
G01*
X50319772Y-61113544D02*
G75*
G02*
X52769262Y-59699330I1931852J-517638D01*
G01*
D10*
X162592640Y-161056850D02*
X179967635Y-156406852D01*
X182796062Y-151507873D02*
X196317635Y-147881852D01*
X137407362Y-161056852D02*
X120032362Y-156406852D01*
X162592640Y-161056852D02*
G75*
G02*
X137407362Y-161056852I-12592640J96056852D01*
G01*
X173451798Y-79506096D02*
G75*
G02*
X126275000Y-79425000I-23451798J79506096D01*
G01*
X267281852Y-126807365D02*
X249681849Y-61107355D01*
X215281331Y-64146575D02*
X228807355Y-60493151D01*
X176639210Y-74475508D02*
X190178932Y-70867128D01*
X193007359Y-65968149D02*
X210382355Y-61318151D01*
X233706331Y-63321575D02*
X247232355Y-59693151D01*
X242856988Y-131202082D02*
X230067631Y-134681851D01*
X265867635Y-129256852D02*
X248492631Y-133881851D01*
X224539562Y-132130348D02*
X215496062Y-134457873D01*
X199146062Y-142982873D02*
X212667635Y-139356852D01*
X32718148Y-126782362D02*
X50319772Y-61113544D01*
X109821066Y-70867128D02*
X123342638Y-74493148D01*
X89617638Y-61293148D02*
X106992638Y-65968148D01*
X71192638Y-60493148D02*
X84718658Y-64121576D01*
X52769262Y-59699330D02*
X66293658Y-63321576D01*
X51532362Y-133906852D02*
X34132362Y-129231852D01*
X84503934Y-134457872D02*
X74856342Y-131878424D01*
X100853934Y-142982872D02*
X87332362Y-139356852D01*
X117203934Y-151507872D02*
X103682362Y-147881852D01*
X56431342Y-131078424D02*
X69957362Y-134706852D01*
M02*
